<svg width="343" height="159" viewBox="0 0 343 159" fill="none" xmlns="http://www.w3.org/2000/svg">
<g clip-path="url(#clip0_10328_6092)">
<path d="M0 12C0 5.37258 5.37258 0 12 0H331C337.627 0 343 5.37258 343 12V147C343 153.627 337.627 159 331 159H12C5.37258 159 0 153.627 0 147V12Z" fill="url(#paint0_linear_10328_6092)"/>
<path d="M308.726 79.566L302.834 78.4186L299.37 77.867L291.25 76.8299L286.748 76.3886L282.136 76.0576L277.304 75.837L270.729 75.7266L267.397 75.7708L264.065 75.9032L257.423 76.3886L254.113 76.7637L250.892 77.2271L247.714 77.8008L243.058 78.882L238.689 80.2059L236.527 81.0003L234.497 81.8388L232.533 82.7655L230.658 83.7585L228.958 84.7735L227.458 85.7665L226.134 86.7594L224.987 87.7524L223.883 88.8336L223.001 89.9148L222.295 90.9519L221.743 91.9669L221.39 92.8495L221.169 93.7101L221.081 94.5486V95.4091L221.191 96.2476L221.434 97.064L221.765 97.8805L222.251 98.719L222.868 99.5795L223.663 100.462L224.479 101.212L225.428 101.985L226.575 102.779L227.899 103.573L229.444 104.412L231.099 105.184L232.974 105.912L235.093 106.596L237.476 107.258L239.793 107.788L242.33 108.273L245.066 108.693L248.045 109.046L254.003 109.487L260.711 109.619L264.087 109.553L271.28 109.134L275.098 108.803L278.849 108.362L282.71 107.832L286.682 107.192L290.764 106.442L294.802 105.603L298.906 104.633L303.099 103.573L307.357 102.382L311.109 101.212L314.264 100.131L316.89 99.1161L318.854 98.2556L321.943 96.6889L324.304 95.1664L325.253 94.4162L325.959 93.7101L326.51 93.0481L326.996 92.2979L327.305 91.5918L327.481 90.9519L327.525 90.312L327.459 89.6721L327.283 89.0322L326.996 88.4143L326.599 87.7965L325.959 87.0463L325.164 86.296L324.193 85.5237L322.009 84.1998L318.787 82.6773L316.713 81.8829L312.565 80.5369L308.726 79.566Z" fill="url(#paint1_linear_10328_6092)" fill-opacity="0.5"/>
<path d="M237.388 135.083L237.321 135.348L237.167 135.635L236.858 135.922L235.688 136.562L233.57 137.246L231.673 137.643L229.289 138.04L226.774 138.327L223.883 138.548L220.882 138.68L217.639 138.746L214.395 138.68L211.394 138.548L208.504 138.327L205.966 138.04L203.605 137.643L201.707 137.246L199.567 136.562L198.398 135.922L198.111 135.635L197.934 135.348L197.89 135.083L197.934 134.819L198.111 134.554L198.398 134.245L199.567 133.605L201.707 132.921L203.605 132.524L205.966 132.149L208.504 131.84L211.394 131.619L214.395 131.487L217.639 131.443L220.882 131.487L223.883 131.619L226.774 131.84L229.289 132.149L231.673 132.524L233.57 132.921L235.688 133.605L236.858 134.245L237.167 134.554L237.321 134.819L237.388 135.083Z" fill="#F3F3F3"/>
<path d="M240.785 118.865L239.638 120.034L239.108 120.741L238.424 121.866L237.807 123.057L237.299 124.315L236.483 126.764L235.843 129.699L237.012 128.397L238.557 126.919L240.234 125.485L243.301 122.991L246.567 120.101L249.237 117.519L250.737 115.842L251.267 115.136L250.914 115.467L250.472 115.732L249.943 115.952L249.06 116.173L245.706 116.703L244.47 116.989L243.213 117.409L242.396 117.784L241.602 118.269L240.785 118.865Z" fill="#3BE300"/>
<path d="M235.093 116.945L234.784 117.695L234.541 118.512L234.365 119.394L234.254 120.762L234.276 122.197L234.387 123.653L234.894 126.433L235.203 127.669L235.843 129.699L236.351 128L237.211 126.014L238.226 124.028L240.212 120.564L242.044 116.592L243.39 113.128L244.052 110.943L244.206 110.061L244.052 110.436L243.809 110.789L243.478 111.098L242.882 111.517L239.329 113.194L238.359 113.701L237.41 114.319L236.527 115.047L235.998 115.599L235.534 116.239L235.093 116.945Z" fill="#3BE300"/>
<path d="M282.732 69.7901L282.688 67.4291L282.578 64.9578L282.181 61.67L281.85 60.0151L281.431 58.4043L280.901 56.8376L280.239 55.3372L279.665 54.2339L279.003 53.1968L278.253 52.2039L277.415 51.255L276.51 50.3945L275.473 49.6001L274.325 48.8499L273.024 48.1659L271.678 47.5922L270.31 47.1288L268.941 46.7537L267.529 46.4889L266.117 46.3124L264.705 46.2462L263.293 46.2682L261.903 46.4006L260.534 46.6433L259.188 46.9964L257.865 47.4377L256.585 48.0114L255.371 48.6734L254.202 49.4457L253.098 50.3283L252.017 51.3212L251.068 52.4024L250.186 53.6161L249.369 54.9621L248.641 56.4404" stroke="#B2C3FF" stroke-width="0.598424" stroke-linecap="round" stroke-dasharray="2 2.99"/>
<path d="M313.293 65.2676L313.249 63.5244L313.117 61.7813L312.874 60.016L312.565 58.2508L312.124 56.5297L311.594 54.8306L310.954 53.1316L310.204 51.4766L309.366 49.8658L308.395 48.2992L307.291 46.7987L306.056 45.3203L304.997 44.2171L303.871 43.18L302.636 42.165L301.312 41.1941L299.877 40.2453L298.421 39.4288L296.854 38.6565L295.177 37.9504L293.39 37.2885L291.448 36.6927L289.727 36.2735L287.94 35.9425L286.086 35.6777L284.145 35.5232L282.225 35.457L278.319 35.5894L274.325 36.0528L270.376 36.8472L266.47 37.9725L264.572 38.6565L260.954 40.2232L259.188 41.1499L257.511 42.1208L255.923 43.1579L254.422 44.2833L252.966 45.4748L251.642 46.7546L250.406 48.0785L249.303 49.4466L248.487 50.6161L247.758 51.8297L247.119 53.0654L246.567 54.3452L246.104 55.6691" stroke="#B2C3FF" stroke-width="0.598424" stroke-linecap="round" stroke-dasharray="2 2.99"/>
<path d="M326.312 87.5529L326.246 85.0153L326.069 82.6323L325.805 80.3374L325.429 78.175L324.966 76.1008L324.392 74.0267L323.708 72.0408L322.958 70.1431L322.142 68.3558L321.237 66.6568L320.222 64.9577L319.163 63.369L318.037 61.8686L316.824 60.4122L315.566 59.0662L313.889 57.4334L312.146 55.9329L310.314 54.5428L308.417 53.2409L306.431 52.0494L304.423 50.9682L302.349 49.9752L300.208 49.0926L298.046 48.2982L295.862 47.5921L293.655 46.9743L291.426 46.4668L289.176 46.0475L284.696 45.4518L282.49 45.2973L278.077 45.209L273.862 45.4518L269.758 46.0034L265.985 46.8419L264.153 47.3715L262.41 47.9672L260.821 48.6292L259.321 49.3353L257.843 50.1297L256.541 50.9902L255.349 51.8949L254.312 52.8217L253.518 53.6602L252.856 54.4987L252.26 55.3813L251.797 56.286L251.399 57.2127" stroke="#B2C3FF" stroke-width="0.598424" stroke-linecap="round" stroke-dasharray="2 2.99"/>
<path d="M236.02 55.3382L236.307 54.61L236.549 54.3232L237.123 53.8818L237.851 53.6612L238.623 53.7274L257.975 58.7363L258.571 59.1555L258.902 59.5748L259.122 60.0823L259.189 60.4353L259.144 61.1856L249.127 101.301L248.818 102.007L248.597 102.272L248.156 102.625L247.67 102.845L246.942 102.912L246.545 102.845L228.76 98.366L228.098 98.0571L227.811 97.8365L227.48 97.4172L227.26 96.9318L227.171 96.5787L227.216 95.8506L236.02 55.3382Z" fill="#F3F3F3"/>
<path d="M238.314 53.8158L256.96 58.4496L257.357 58.582L257.975 59.0453L258.218 59.3763L258.482 60.1266L258.438 60.8988L248.641 100.352L248.509 100.749L248.045 101.367L247.361 101.786L246.589 101.897L227.524 97.1967L227.149 97.0643L226.531 96.6009L226.289 96.27L226.024 95.5418L226.046 94.7474L235.865 55.2942L236.196 54.5881L236.792 54.0365L237.52 53.7717L238.314 53.8158Z" fill="white" stroke="#F3F3F3" stroke-width="0.187943"/>
<path d="M252.106 73.8506L251.973 74.1375L251.576 74.5567L251.002 74.7112L250.693 74.6891L236.263 71.0924L235.976 70.9821L235.556 70.5849L235.38 70.0112L235.424 69.7023L237.807 60.1038L237.917 59.8169L238.337 59.3977L238.888 59.2432L239.197 59.2653L253.628 62.862L254.158 63.1488L254.467 63.6563L254.489 64.2521L252.106 73.8506Z" fill="#3BE300"/>
<path d="M232.621 73.255L252.723 78.2418L252.679 78.4184L232.577 73.4315L232.621 73.255Z" fill="#F3F3F3"/>
<path d="M231.474 77.9113L251.553 82.8981L251.509 83.0746L231.43 78.0878L231.474 77.9113Z" fill="#F3F3F3"/>
<path d="M230.305 82.5675L250.407 87.5543L250.362 87.7529L230.261 82.744L230.305 82.5675Z" fill="#F3F3F3"/>
<path d="M233.681 86.6491L245.706 89.6279L246.545 90.003L247.185 90.6209L247.56 91.4152L247.67 92.2979L247.582 92.7612L247.207 93.5997L246.589 94.2396L245.795 94.6368L244.912 94.7251L232.423 91.658L231.584 91.2829L230.944 90.665L230.569 89.8707L230.459 88.988L230.702 88.0833L231.187 87.3552L231.915 86.8256L232.754 86.5829L233.681 86.6491Z" fill="#0066FF"/>
<path d="M235.998 76.565L235.843 76.9401L235.623 77.2269L235.336 77.4697L234.983 77.6241L234.607 77.6682L234.21 77.6462L233.835 77.4917L233.526 77.2711L233.306 76.9621L233.151 76.6091L233.085 76.256L233.129 75.8368L233.284 75.4617L233.504 75.1748L233.791 74.9321L234.144 74.7777L234.519 74.7335L234.916 74.7556L235.292 74.91L235.6 75.1307L235.821 75.4396L235.976 75.7927L236.042 76.1457L235.998 76.565Z" fill="#B2C3FF"/>
<path d="M234.828 81.2212L234.696 81.5963L234.453 81.9052L234.166 82.1259L233.813 82.2804L233.46 82.3466L233.041 82.3024L232.666 82.148L232.379 81.9273L232.136 81.6184L231.982 81.2874L231.938 80.9123L231.96 80.5151L232.114 80.14L232.335 79.8311L232.644 79.5884L232.997 79.4339L233.35 79.3898L233.769 79.4339L234.144 79.5884L234.431 79.809L234.674 80.0959L234.828 80.4489L234.872 80.824L234.828 81.2212Z" fill="#B2C3FF"/>
<path d="M237.167 75.705L250.429 79.0149L250.252 79.721L236.991 76.4332L237.167 75.705Z" fill="#E2E2E2"/>
<path d="M236.77 77.3154L243.743 79.0586L243.566 79.7647L236.571 78.0436L236.77 77.3154Z" fill="#E2E2E2"/>
<path d="M235.997 80.3605L249.281 83.6703L249.082 84.3764L235.821 81.0886L235.997 80.3605Z" fill="#E2E2E2"/>
<path d="M235.6 81.9709L242.595 83.7141L242.419 84.4422L235.424 82.699L235.6 81.9709Z" fill="#E2E2E2"/>
<path d="M234.055 95.1223L241.05 96.8434L240.874 97.5716L233.879 95.8284L234.055 95.1223Z" fill="#E2E2E2"/>
<path d="M241.381 91.3272L241.426 91.1286L240.764 90.0253L240.565 89.9591L240.499 90.1577L241.095 91.1506L240.102 91.7464L240.057 91.945L240.256 92.0112L241.381 91.3272ZM236.968 90.268L241.271 91.3492L241.337 91.0624L237.034 90.0032L236.968 90.268Z" fill="white"/>
<path d="M211.284 109.796L211.417 112.797L211.748 116.592L211.726 119.218L211.549 120.74L211.152 122.991L209.982 128.287L208.835 132.965L209.078 133.097L209.365 133.119L211.328 133.141L211.549 133.097L215.057 120.74L215.741 115.621L219.228 120.321L219.802 132.656L219.868 132.722L220.133 132.854L220.75 132.921L221.324 132.876L221.964 132.656L222.891 122.859L223.023 120.762L223.045 119.483L222.957 118.975L222.074 116.217L219.581 109.553L219.537 106.949H211.946L211.395 108.913L211.284 109.796Z" fill="#3C56C6"/>
<path d="M208.592 112.245L208.504 111.605V110.855L208.592 110.237L209.475 109.73H209.629L209.673 109.818L209.74 110.127L210.49 111.716L210.6 112.091L210.578 112.422L210.468 112.686L210.004 113.084L209.673 113.194L209.364 113.216L209.122 113.128L208.945 112.973L208.725 112.664L208.592 112.245Z" fill="#FCD8E3"/>
<path d="M214.793 90.9961L214.528 92.3642L215.013 92.7835L215.41 92.96L215.874 93.0262L216.337 92.96L216.734 92.8276L217.22 92.4966L217.132 91.5478L217.242 91.0623L217.771 90.8417L218.588 90.1797L218.566 89.0323L218.169 85.4577L218.08 84.9943L217.926 84.5971L217.705 84.2661L217.065 83.7366L216.712 83.56L216.117 83.4056L215.521 83.3615L215.146 83.4276L214.528 83.6924L213.91 84.3544L213.667 84.7516L213.38 85.3915L213.182 86.1196L213.027 87.6201L213.116 88.1717L213.601 89.275L214.793 90.9961Z" fill="#FCD8E3"/>
<path d="M236.99 89.2529L236.505 89.9149L235.843 90.5768L235.159 91.0843L234.431 92.3641L233.217 91.2829L234.166 90.1796L234.872 88.1937L235.159 87.6642L235.777 86.7815L236.086 86.6271L236.174 86.6933L236.483 87.3552L237.211 88.613V88.7895L236.99 89.2529Z" fill="#FCD8E3"/>
<path d="M219.515 108.03L215.984 108.163L214.219 108.096L212.741 107.876L212.343 107.743L211.946 107.457V99.3806L210.49 103.066L209.806 109.95L209.607 110.082L209.056 110.237L208.57 110.127L208.46 109.95L207.997 106L207.776 102.69V101.852L208.681 99.6674L211.042 94.813L213.712 93.1581L214.263 92.0769L214.749 92.2093H215.742H216.867L217.507 92.0769L217.772 93.1581L220.618 93.9745L223.884 96.0707L225.252 96.8872L226.024 97.2181L226.642 96.8651L229.202 94.7909L231.96 92.3637L233.195 91.1281L234.674 92.3637L233.725 93.9745L232.026 95.8942L228.716 99.4909L227.326 100.859L226.774 101.322L226.554 101.411L225.848 101.234L224.568 100.793L220.066 98.9834L220.022 99.0055L219.846 99.7336L219.802 100.462L219.515 108.03Z" fill="#A0B3FA"/>
<path d="M217.772 93.1585L217.485 93.2909L216.47 93.4233L214.616 93.4013L213.579 93.2909L214.065 92.2539L214.263 92.0773L214.594 92.1877L215.874 92.2097L217.507 92.0773L217.772 93.1585Z" fill="#B2C3FF"/>
<path d="M219.25 134.818L219.669 132.655H222.096L222.383 132.964L223.288 133.582L224.855 134.222L225.053 134.553L225.075 135.083L223.509 135.193H221.104L219.603 134.972L219.25 134.818Z" fill="#2B3A7C"/>
<path d="M208.305 134.708L208.835 132.678L211.549 132.81L212.034 133.207L214.395 134.289L214.528 134.487V134.664L214.241 135.061L213.844 135.37L210.115 135.348L208.923 134.973L208.305 134.708Z" fill="#2B3A7C"/>
<path d="M212.763 87.7523L213.027 88.326L213.535 89.0983L214.66 90.5987L216.558 90.4663L216.734 87.4875L217.132 86.9138L217.904 86.2739L218.588 85.5678L218.72 85.325V84.8396L218.433 83.7584L218.08 83.1626L217.904 83.0302L217.573 82.942L217.33 83.0082L216.955 83.295L216.602 82.8758L215.741 82.3462L215.433 82.2579L214.859 82.3683L214.462 82.6331L213.027 83.8246L212.63 84.3542L212.432 85.2368L212.454 85.8546L212.763 87.7523Z" fill="#3049A0"/>
<path d="M332.368 88.2745L332.302 88.4069L332.081 88.5613L330.647 88.9144L327.933 89.1571L326.278 89.2012L324.623 89.1571L321.909 88.9144L321.026 88.7379L320.497 88.5613L320.254 88.4069L320.188 88.2745L320.254 88.1421L320.497 87.9876L321.026 87.8111L321.909 87.6346L324.623 87.3919L326.278 87.3477L327.933 87.3919L330.647 87.6346L331.53 87.8111L332.081 87.9876L332.302 88.1421L332.368 88.2745Z" fill="#F3F3F3"/>
<g clip-path="url(#clip1_10328_6092)">
<path d="M247.462 63.5076L245.564 63.005L245.061 64.9029L246.959 65.4055L247.462 63.5076Z" stroke="white" stroke-opacity="0.878431" stroke-width="0.588989" stroke-linecap="round" stroke-linejoin="round"/>
<path d="M246.155 68.4422L244.257 67.9396L243.755 69.8374L245.653 70.3401L246.155 68.4422Z" stroke="white" stroke-opacity="0.878431" stroke-width="0.588989" stroke-linecap="round" stroke-linejoin="round"/>
<path d="M241.221 67.1346L239.323 66.632L238.82 68.5298L240.718 69.0324L241.221 67.1346Z" stroke="white" stroke-opacity="0.878431" stroke-width="0.588989" stroke-linecap="round" stroke-linejoin="round"/>
<path d="M242.528 62.201L240.63 61.6984L240.127 63.5962L242.025 64.0989L242.528 62.201Z" stroke="white" stroke-opacity="0.878431" stroke-width="0.588989" stroke-linecap="round" stroke-linejoin="round"/>
<path d="M240.104 65.215L244.28 66.3207" stroke="white" stroke-opacity="0.878431" stroke-width="0.588989" stroke-linecap="round" stroke-linejoin="round"/>
<path d="M245.798 66.7238L246.177 66.8243" stroke="white" stroke-opacity="0.878431" stroke-width="0.588989" stroke-linecap="round" stroke-linejoin="round"/>
<path d="M242.488 68.4874L242.387 68.867" stroke="white" stroke-opacity="0.878431" stroke-width="0.588989" stroke-linecap="round" stroke-linejoin="round"/>
<path d="M243.493 64.6906L242.789 67.3476" stroke="white" stroke-opacity="0.878431" stroke-width="0.588989" stroke-linecap="round" stroke-linejoin="round"/>
<path d="M243.945 62.9825L243.845 63.3621" stroke="white" stroke-opacity="0.878431" stroke-width="0.588989" stroke-linecap="round" stroke-linejoin="round"/>
</g>
<g clip-path="url(#clip2_10328_6092)">
<path d="M306.895 71.4066C306.895 71.4691 306.947 71.5197 307.011 71.5197L312.367 71.5198C312.431 71.5198 312.483 71.4691 312.483 71.4067V71.2716C312.486 71.2309 312.491 71.0278 312.357 70.8032C312.273 70.6616 312.15 70.5393 311.993 70.4396C311.803 70.3191 311.561 70.2317 311.268 70.1791C311.266 70.1788 311.049 70.1501 310.827 70.0933C310.439 69.9944 310.406 69.9069 310.405 69.906C310.403 69.8974 310.4 69.889 310.396 69.8812C310.392 69.8649 310.385 69.8035 310.399 69.6388C310.437 69.2207 310.662 68.9735 310.842 68.775C310.899 68.7124 310.953 68.6532 310.994 68.5952C311.172 68.345 311.189 68.0604 311.19 68.0428C311.19 68.0071 311.185 67.9777 311.177 67.9505C311.159 67.896 311.126 67.862 311.102 67.8372L311.102 67.8371C311.096 67.8308 311.09 67.8249 311.086 67.8195C311.084 67.8174 311.079 67.8119 311.083 67.7838C311.099 67.6801 311.109 67.5932 311.113 67.5105C311.121 67.3632 311.128 67.1428 311.09 66.9283C311.085 66.8916 311.077 66.853 311.064 66.8069C311.024 66.6592 310.96 66.5329 310.87 66.4287C310.855 66.4119 310.48 66.017 309.392 65.936C309.241 65.9248 309.092 65.9308 308.946 65.9383C308.911 65.94 308.862 65.9424 308.817 65.9542C308.705 65.9833 308.675 66.0545 308.667 66.0943C308.654 66.1603 308.677 66.2117 308.692 66.2457C308.694 66.2506 308.697 66.2567 308.692 66.2726C308.667 66.3117 308.627 66.3469 308.587 66.3803C308.575 66.3903 308.302 66.6256 308.287 66.9329C308.247 67.1666 308.25 67.5308 308.298 67.7825C308.3 67.7964 308.305 67.817 308.298 67.8309C308.246 67.877 308.188 67.9292 308.188 68.0485C308.189 68.0604 308.205 68.345 308.384 68.5952C308.425 68.6532 308.479 68.7123 308.536 68.7748L308.536 68.775C308.716 68.9735 308.94 69.2207 308.978 69.6388C308.993 69.8034 308.985 69.8649 308.982 69.8812C308.978 69.889 308.975 69.8973 308.972 69.906C308.972 69.9068 308.938 69.9941 308.553 70.0928C308.331 70.1497 308.112 70.1788 308.105 70.1798C307.821 70.2278 307.58 70.313 307.39 70.4329C307.234 70.5319 307.111 70.6544 307.025 70.7971C306.889 71.0252 306.893 71.2329 306.895 71.2708V71.4066Z" fill="#618DFF" stroke="#618DFF" stroke-width="0.441311" stroke-linejoin="round"/>
</g>
<g clip-path="url(#clip3_10328_6092)">
<path d="M277.768 74.9359C277.768 74.9984 277.82 75.049 277.885 75.049L283.24 75.0491C283.304 75.0491 283.357 74.9984 283.357 74.936V74.8009C283.359 74.7602 283.365 74.5571 283.231 74.3325C283.146 74.1909 283.024 74.0686 282.867 73.9689C282.676 73.8484 282.434 73.761 282.142 73.7084C282.14 73.7081 281.922 73.6794 281.7 73.6226C281.313 73.5237 281.279 73.4362 281.279 73.4353C281.277 73.4267 281.273 73.4183 281.269 73.4105C281.266 73.3942 281.258 73.3328 281.273 73.1681C281.311 72.75 281.535 72.5028 281.716 72.3043C281.772 72.2416 281.826 72.1825 281.867 72.1245C282.046 71.8743 282.062 71.5897 282.063 71.5721C282.063 71.5364 282.059 71.507 282.05 71.4798C282.033 71.4253 282 71.3913 281.976 71.3665L281.976 71.3664C281.969 71.3601 281.964 71.3542 281.959 71.3488C281.957 71.3467 281.953 71.3412 281.957 71.3131C281.973 71.2094 281.982 71.1225 281.987 71.0398C281.995 70.8925 282.001 70.6721 281.963 70.4576C281.958 70.4209 281.95 70.3823 281.938 70.3362C281.898 70.1885 281.833 70.0622 281.744 69.958C281.728 69.9412 281.353 69.5463 280.265 69.4653C280.115 69.4541 279.966 69.4601 279.82 69.4676C279.784 69.4693 279.736 69.4717 279.691 69.4835C279.578 69.5126 279.548 69.5838 279.541 69.6236C279.528 69.6896 279.55 69.741 279.566 69.775C279.568 69.7799 279.571 69.786 279.566 69.8019C279.541 69.841 279.501 69.8762 279.46 69.9096C279.449 69.9196 279.176 70.1549 279.161 70.4622C279.12 70.6959 279.123 71.0601 279.171 71.3118C279.174 71.3257 279.178 71.3463 279.171 71.3602C279.12 71.4063 279.062 71.4585 279.062 71.5778C279.062 71.5897 279.079 71.8743 279.257 72.1245C279.299 72.1825 279.352 72.2416 279.409 72.3041L279.409 72.3043C279.589 72.5028 279.814 72.75 279.852 73.1681C279.867 73.3327 279.859 73.3942 279.856 73.4105C279.851 73.4183 279.848 73.4266 279.846 73.4353C279.846 73.4361 279.812 73.5234 279.426 73.6221C279.204 73.679 278.985 73.7081 278.979 73.7091C278.694 73.7571 278.454 73.8423 278.264 73.9622C278.107 74.0612 277.984 74.1837 277.899 74.3264C277.762 74.5545 277.766 74.7622 277.768 74.8001V74.9359Z" fill="#618DFF" stroke="#618DFF" stroke-width="0.441311" stroke-linejoin="round"/>
</g>
<g clip-path="url(#clip4_10328_6092)">
<path d="M319.545 85.5287C319.545 85.5912 319.598 85.6418 319.662 85.6418L325.018 85.6418C325.082 85.6418 325.134 85.5912 325.134 85.5287V85.3937C325.137 85.353 325.142 85.1498 325.008 84.9253C324.924 84.7837 324.801 84.6613 324.644 84.5617C324.454 84.4411 324.212 84.3538 323.919 84.3012C323.917 84.3009 323.7 84.2721 323.477 84.2154C323.09 84.1165 323.056 84.0289 323.056 84.0281C323.054 84.0194 323.051 84.0111 323.046 84.0033C323.043 83.987 323.035 83.9255 323.05 83.7609C323.088 83.3427 323.313 83.0956 323.493 82.897C323.55 82.8344 323.603 82.7753 323.645 82.7173C323.823 82.467 323.84 82.1825 323.84 82.1649C323.84 82.1291 323.836 82.0998 323.828 82.0725C323.81 82.0181 323.777 81.9841 323.753 81.9593L323.753 81.9591C323.747 81.9529 323.741 81.947 323.736 81.9416C323.735 81.9395 323.73 81.934 323.734 81.9058C323.75 81.8021 323.76 81.7153 323.764 81.6326C323.772 81.4852 323.779 81.2648 323.741 81.0503C323.736 81.0137 323.728 80.975 323.715 80.9289C323.675 80.7812 323.611 80.655 323.521 80.5507C323.505 80.534 323.131 80.1391 322.043 80.0581C321.892 80.0469 321.743 80.0529 321.597 80.0604C321.562 80.0621 321.513 80.0645 321.468 80.0762C321.356 80.1053 321.326 80.1765 321.318 80.2164C321.305 80.2824 321.328 80.3338 321.343 80.3677C321.345 80.3727 321.348 80.3788 321.343 80.3946C321.318 80.4337 321.278 80.469 321.238 80.5024C321.226 80.5124 320.953 80.7476 320.938 81.055C320.898 81.2887 320.901 81.6529 320.949 81.9046C320.951 81.9185 320.955 81.939 320.949 81.9529C320.897 81.999 320.839 82.0513 320.839 82.1705C320.84 82.1825 320.856 82.467 321.035 82.7173C321.076 82.7752 321.13 82.8343 321.186 82.8969L321.187 82.897C321.367 83.0956 321.591 83.3427 321.629 83.7609C321.644 83.9255 321.636 83.987 321.633 84.0033C321.629 84.0111 321.625 84.0194 321.623 84.0281C321.623 84.0289 321.589 84.1162 321.204 84.2149C320.981 84.2718 320.763 84.3009 320.756 84.3018C320.472 84.3499 320.231 84.435 320.041 84.5549C319.884 84.6539 319.762 84.7765 319.676 84.9192C319.54 85.1472 319.543 85.3549 319.545 85.3928V85.5287Z" fill="#618DFF" stroke="#618DFF" stroke-width="0.441311" stroke-linejoin="round"/>
</g>
<g clip-path="url(#clip5_10328_6092)">
<path d="M240.527 39.9944L245.614 43.6093L241.958 48.4552L241.508 45.7961C238.124 46.3688 237.287 50.2403 237.287 50.2403C236.592 46.1308 237.351 43.2672 240.977 42.6535L240.527 39.9944Z" fill="#0066FF" stroke="#0066FF" stroke-width="0.735519" stroke-linecap="round" stroke-linejoin="round"/>
</g>
<path d="M19.2344 31.9219L20.9277 25.9688H21.748L21.2734 28.2832L19.4512 34.5H18.6367L19.2344 31.9219ZM17.4824 25.9688L18.8301 31.8047L19.2344 34.5H18.4258L16.3574 25.9688H17.4824ZM23.9395 31.7988L25.2578 25.9688H26.3887L24.3262 34.5H23.5176L23.9395 31.7988ZM21.8711 25.9688L23.5176 31.9219L24.1152 34.5H23.3008L21.543 28.2832L21.0625 25.9688H21.8711ZM28.5625 25.5V34.5H27.4785V25.5H28.5625ZM28.3047 31.0898L27.8535 31.0723C27.8574 30.6387 27.9219 30.2383 28.0469 29.8711C28.1719 29.5 28.3477 29.1777 28.5742 28.9043C28.8008 28.6309 29.0703 28.4199 29.3828 28.2715C29.6992 28.1191 30.0488 28.043 30.4316 28.043C30.7441 28.043 31.0254 28.0859 31.2754 28.1719C31.5254 28.2539 31.7383 28.3867 31.9141 28.5703C32.0938 28.7539 32.2305 28.9922 32.3242 29.2852C32.418 29.5742 32.4648 29.9277 32.4648 30.3457V34.5H31.375V30.334C31.375 30.002 31.3262 29.7363 31.2285 29.5371C31.1309 29.334 30.9883 29.1875 30.8008 29.0977C30.6133 29.0039 30.3828 28.957 30.1094 28.957C29.8398 28.957 29.5938 29.0137 29.3711 29.127C29.1523 29.2402 28.9629 29.3965 28.8027 29.5957C28.6465 29.7949 28.5234 30.0234 28.4336 30.2812C28.3477 30.5352 28.3047 30.8047 28.3047 31.0898ZM37.8262 33.416V30.1523C37.8262 29.9023 37.7754 29.6855 37.6738 29.502C37.5762 29.3145 37.4277 29.1699 37.2285 29.0684C37.0293 28.9668 36.7832 28.916 36.4902 28.916C36.2168 28.916 35.9766 28.9629 35.7695 29.0566C35.5664 29.1504 35.4062 29.2734 35.2891 29.4258C35.1758 29.5781 35.1191 29.7422 35.1191 29.918H34.0352C34.0352 29.6914 34.0938 29.4668 34.2109 29.2441C34.3281 29.0215 34.4961 28.8203 34.7148 28.6406C34.9375 28.457 35.2031 28.3125 35.5117 28.207C35.8242 28.0977 36.1719 28.043 36.5547 28.043C37.0156 28.043 37.4219 28.1211 37.7734 28.2773C38.1289 28.4336 38.4062 28.6699 38.6055 28.9863C38.8086 29.2988 38.9102 29.6914 38.9102 30.1641V33.1172C38.9102 33.3281 38.9277 33.5527 38.9629 33.791C39.002 34.0293 39.0586 34.2344 39.1328 34.4062V34.5H38.002C37.9473 34.375 37.9043 34.209 37.873 34.002C37.8418 33.791 37.8262 33.5957 37.8262 33.416ZM38.0137 30.6562L38.0254 31.418H36.9297C36.6211 31.418 36.3457 31.4434 36.1035 31.4941C35.8613 31.541 35.6582 31.6133 35.4941 31.7109C35.3301 31.8086 35.2051 31.9316 35.1191 32.0801C35.0332 32.2246 34.9902 32.3945 34.9902 32.5898C34.9902 32.7891 35.0352 32.9707 35.125 33.1348C35.2148 33.2988 35.3496 33.4297 35.5293 33.5273C35.7129 33.6211 35.9375 33.668 36.2031 33.668C36.5352 33.668 36.8281 33.5977 37.082 33.457C37.3359 33.3164 37.5371 33.1445 37.6855 32.9414C37.8379 32.7383 37.9199 32.541 37.9316 32.3496L38.3945 32.8711C38.3672 33.0352 38.293 33.2168 38.1719 33.416C38.0508 33.6152 37.8887 33.8066 37.6855 33.9902C37.4863 34.1699 37.248 34.3203 36.9707 34.4414C36.6973 34.5586 36.3887 34.6172 36.0449 34.6172C35.6152 34.6172 35.2383 34.5332 34.9141 34.3652C34.5938 34.1973 34.3438 33.9727 34.1641 33.6914C33.9883 33.4062 33.9004 33.0879 33.9004 32.7363C33.9004 32.3965 33.9668 32.0977 34.0996 31.8398C34.2324 31.5781 34.4238 31.3613 34.6738 31.1895C34.9238 31.0137 35.2246 30.8809 35.5762 30.791C35.9277 30.7012 36.3203 30.6562 36.7539 30.6562H38.0137ZM43.2695 28.1602V28.9922H39.8418V28.1602H43.2695ZM41.002 26.6191H42.0859V32.9297C42.0859 33.1445 42.1191 33.3066 42.1855 33.416C42.252 33.5254 42.3379 33.5977 42.4434 33.6328C42.5488 33.668 42.6621 33.6855 42.7832 33.6855C42.873 33.6855 42.9668 33.6777 43.0645 33.6621C43.166 33.6426 43.2422 33.627 43.293 33.6152L43.2988 34.5C43.2129 34.5273 43.0996 34.5527 42.959 34.5762C42.8223 34.6035 42.6562 34.6172 42.4609 34.6172C42.1953 34.6172 41.9512 34.5645 41.7285 34.459C41.5059 34.3535 41.3281 34.1777 41.1953 33.9316C41.0664 33.6816 41.002 33.3457 41.002 32.9238V26.6191ZM48.6953 28.1602V34.5H47.6055V28.1602H48.6953ZM47.5234 26.4785C47.5234 26.3027 47.5762 26.1543 47.6816 26.0332C47.791 25.9121 47.9512 25.8516 48.1621 25.8516C48.3691 25.8516 48.5273 25.9121 48.6367 26.0332C48.75 26.1543 48.8066 26.3027 48.8066 26.4785C48.8066 26.6465 48.75 26.791 48.6367 26.9121C48.5273 27.0293 48.3691 27.0879 48.1621 27.0879C47.9512 27.0879 47.791 27.0293 47.6816 26.9121C47.5762 26.791 47.5234 26.6465 47.5234 26.4785ZM54.127 32.8184C54.127 32.6621 54.0918 32.5176 54.0215 32.3848C53.9551 32.248 53.8164 32.125 53.6055 32.0156C53.3984 31.9023 53.0859 31.8047 52.668 31.7227C52.3164 31.6484 51.998 31.5605 51.7129 31.459C51.4316 31.3574 51.1914 31.2344 50.9922 31.0898C50.7969 30.9453 50.6465 30.7754 50.541 30.5801C50.4355 30.3848 50.3828 30.1562 50.3828 29.8945C50.3828 29.6445 50.4375 29.4082 50.5469 29.1855C50.6602 28.9629 50.8184 28.7656 51.0215 28.5938C51.2285 28.4219 51.4766 28.2871 51.7656 28.1895C52.0547 28.0918 52.377 28.043 52.7324 28.043C53.2402 28.043 53.6738 28.1328 54.0332 28.3125C54.3926 28.4922 54.668 28.7324 54.8594 29.0332C55.0508 29.3301 55.1465 29.6602 55.1465 30.0234H54.0625C54.0625 29.8477 54.0098 29.6777 53.9043 29.5137C53.8027 29.3457 53.6523 29.207 53.4531 29.0977C53.2578 28.9883 53.0176 28.9336 52.7324 28.9336C52.4316 28.9336 52.1875 28.9805 52 29.0742C51.8164 29.1641 51.6816 29.2793 51.5957 29.4199C51.5137 29.5605 51.4727 29.709 51.4727 29.8652C51.4727 29.9824 51.4922 30.0879 51.5312 30.1816C51.5742 30.2715 51.6484 30.3555 51.7539 30.4336C51.8594 30.5078 52.0078 30.5781 52.1992 30.6445C52.3906 30.7109 52.6348 30.7773 52.9316 30.8438C53.4512 30.9609 53.8789 31.1016 54.2148 31.2656C54.5508 31.4297 54.8008 31.6309 54.9648 31.8691C55.1289 32.1074 55.2109 32.3965 55.2109 32.7363C55.2109 33.0137 55.1523 33.2676 55.0352 33.498C54.9219 33.7285 54.7559 33.9277 54.5371 34.0957C54.3223 34.2598 54.0645 34.3887 53.7637 34.4824C53.4668 34.5723 53.1328 34.6172 52.7617 34.6172C52.2031 34.6172 51.7305 34.5176 51.3438 34.3184C50.957 34.1191 50.6641 33.8613 50.4648 33.5449C50.2656 33.2285 50.166 32.8945 50.166 32.543H51.2559C51.2715 32.8398 51.3574 33.0762 51.5137 33.252C51.6699 33.4238 51.8613 33.5469 52.0879 33.6211C52.3145 33.6914 52.5391 33.7266 52.7617 33.7266C53.0586 33.7266 53.3066 33.6875 53.5059 33.6094C53.709 33.5312 53.8633 33.4238 53.9688 33.2871C54.0742 33.1504 54.127 32.9941 54.127 32.8184ZM62.2656 28.1602V28.9922H58.8379V28.1602H62.2656ZM59.998 26.6191H61.082V32.9297C61.082 33.1445 61.1152 33.3066 61.1816 33.416C61.248 33.5254 61.334 33.5977 61.4395 33.6328C61.5449 33.668 61.6582 33.6855 61.7793 33.6855C61.8691 33.6855 61.9629 33.6777 62.0605 33.6621C62.1621 33.6426 62.2383 33.627 62.2891 33.6152L62.2949 34.5C62.209 34.5273 62.0957 34.5527 61.9551 34.5762C61.8184 34.6035 61.6523 34.6172 61.457 34.6172C61.1914 34.6172 60.9473 34.5645 60.7246 34.459C60.502 34.3535 60.3242 34.1777 60.1914 33.9316C60.0625 33.6816 59.998 33.3457 59.998 32.9238V26.6191ZM64.6211 25.5V34.5H63.5371V25.5H64.6211ZM64.3633 31.0898L63.9121 31.0723C63.916 30.6387 63.9805 30.2383 64.1055 29.8711C64.2305 29.5 64.4062 29.1777 64.6328 28.9043C64.8594 28.6309 65.1289 28.4199 65.4414 28.2715C65.7578 28.1191 66.1074 28.043 66.4902 28.043C66.8027 28.043 67.084 28.0859 67.334 28.1719C67.584 28.2539 67.7969 28.3867 67.9727 28.5703C68.1523 28.7539 68.2891 28.9922 68.3828 29.2852C68.4766 29.5742 68.5234 29.9277 68.5234 30.3457V34.5H67.4336V30.334C67.4336 30.002 67.3848 29.7363 67.2871 29.5371C67.1895 29.334 67.0469 29.1875 66.8594 29.0977C66.6719 29.0039 66.4414 28.957 66.168 28.957C65.8984 28.957 65.6523 29.0137 65.4297 29.127C65.2109 29.2402 65.0215 29.3965 64.8613 29.5957C64.7051 29.7949 64.582 30.0234 64.4922 30.2812C64.4062 30.5352 64.3633 30.8047 64.3633 31.0898ZM72.7773 34.6172C72.3359 34.6172 71.9355 34.543 71.5762 34.3945C71.2207 34.2422 70.9141 34.0293 70.6562 33.7559C70.4023 33.4824 70.207 33.1582 70.0703 32.7832C69.9336 32.4082 69.8652 31.998 69.8652 31.5527V31.3066C69.8652 30.791 69.9414 30.332 70.0938 29.9297C70.2461 29.5234 70.4531 29.1797 70.7148 28.8984C70.9766 28.6172 71.2734 28.4043 71.6055 28.2598C71.9375 28.1152 72.2812 28.043 72.6367 28.043C73.0898 28.043 73.4805 28.1211 73.8086 28.2773C74.1406 28.4336 74.4121 28.6523 74.623 28.9336C74.834 29.2109 74.9902 29.5391 75.0918 29.918C75.1934 30.293 75.2441 30.7031 75.2441 31.1484V31.6348H70.5098V30.75H74.1602V30.668C74.1445 30.3867 74.0859 30.1133 73.9844 29.8477C73.8867 29.582 73.7305 29.3633 73.5156 29.1914C73.3008 29.0195 73.0078 28.9336 72.6367 28.9336C72.3906 28.9336 72.1641 28.9863 71.957 29.0918C71.75 29.1934 71.5723 29.3457 71.4238 29.5488C71.2754 29.752 71.1602 30 71.0781 30.293C70.9961 30.5859 70.9551 30.9238 70.9551 31.3066V31.5527C70.9551 31.8535 70.9961 32.1367 71.0781 32.4023C71.1641 32.6641 71.2871 32.8945 71.4473 33.0938C71.6113 33.293 71.8086 33.4492 72.0391 33.5625C72.2734 33.6758 72.5391 33.7324 72.8359 33.7324C73.2188 33.7324 73.543 33.6543 73.8086 33.498C74.0742 33.3418 74.3066 33.1328 74.5059 32.8711L75.1621 33.3926C75.0254 33.5996 74.8516 33.7969 74.6406 33.9844C74.4297 34.1719 74.1699 34.3242 73.8613 34.4414C73.5566 34.5586 73.1953 34.6172 72.7773 34.6172ZM83.4824 33.2695V25.5H84.5723V34.5H83.5762L83.4824 33.2695ZM79.2168 31.4004V31.2773C79.2168 30.793 79.2754 30.3535 79.3926 29.959C79.5137 29.5605 79.6836 29.2188 79.9023 28.9336C80.125 28.6484 80.3887 28.4297 80.6934 28.2773C81.002 28.1211 81.3457 28.043 81.7246 28.043C82.123 28.043 82.4707 28.1133 82.7676 28.2539C83.0684 28.3906 83.3223 28.5918 83.5293 28.8574C83.7402 29.1191 83.9062 29.4355 84.0273 29.8066C84.1484 30.1777 84.2324 30.5977 84.2793 31.0664V31.6055C84.2363 32.0703 84.1523 32.4883 84.0273 32.8594C83.9062 33.2305 83.7402 33.5469 83.5293 33.8086C83.3223 34.0703 83.0684 34.2715 82.7676 34.4121C82.4668 34.5488 82.1152 34.6172 81.7129 34.6172C81.3418 34.6172 81.002 34.5371 80.6934 34.377C80.3887 34.2168 80.125 33.9922 79.9023 33.7031C79.6836 33.4141 79.5137 33.0742 79.3926 32.6836C79.2754 32.2891 79.2168 31.8613 79.2168 31.4004ZM80.3066 31.2773V31.4004C80.3066 31.7168 80.3379 32.0137 80.4004 32.291C80.4668 32.5684 80.5684 32.8125 80.7051 33.0234C80.8418 33.2344 81.0156 33.4004 81.2266 33.5215C81.4375 33.6387 81.6895 33.6973 81.9824 33.6973C82.3418 33.6973 82.6367 33.6211 82.8672 33.4688C83.1016 33.3164 83.2891 33.1152 83.4297 32.8652C83.5703 32.6152 83.6797 32.3438 83.7578 32.0508V30.6387C83.7109 30.4238 83.6426 30.2168 83.5527 30.0176C83.4668 29.8145 83.3535 29.6348 83.2129 29.4785C83.0762 29.3184 82.9062 29.1914 82.7031 29.0977C82.5039 29.0039 82.2676 28.957 81.9941 28.957C81.6973 28.957 81.4414 29.0195 81.2266 29.1445C81.0156 29.2656 80.8418 29.4336 80.7051 29.6484C80.5684 29.8594 80.4668 30.1055 80.4004 30.3867C80.3379 30.6641 80.3066 30.9609 80.3066 31.2773ZM87.4375 28.1602V34.5H86.3477V28.1602H87.4375ZM86.2656 26.4785C86.2656 26.3027 86.3184 26.1543 86.4238 26.0332C86.5332 25.9121 86.6934 25.8516 86.9043 25.8516C87.1113 25.8516 87.2695 25.9121 87.3789 26.0332C87.4922 26.1543 87.5488 26.3027 87.5488 26.4785C87.5488 26.6465 87.4922 26.791 87.3789 26.9121C87.2695 27.0293 87.1113 27.0879 86.9043 27.0879C86.6934 27.0879 86.5332 27.0293 86.4238 26.9121C86.3184 26.791 86.2656 26.6465 86.2656 26.4785ZM90.7949 34.5H89.7109V27.4922C89.7109 27.0352 89.793 26.6504 89.957 26.3379C90.125 26.0215 90.3652 25.7832 90.6777 25.623C90.9902 25.459 91.3613 25.377 91.791 25.377C91.916 25.377 92.041 25.3848 92.166 25.4004C92.2949 25.416 92.4199 25.4395 92.541 25.4707L92.4824 26.3555C92.4004 26.3359 92.3066 26.3223 92.2012 26.3145C92.0996 26.3066 91.998 26.3027 91.8965 26.3027C91.666 26.3027 91.4668 26.3496 91.2988 26.4434C91.1348 26.5332 91.0098 26.666 90.9238 26.8418C90.8379 27.0176 90.7949 27.2344 90.7949 27.4922V34.5ZM92.1426 28.1602V28.9922H88.709V28.1602H92.1426ZM94.9668 34.5H93.8828V27.4922C93.8828 27.0352 93.9648 26.6504 94.1289 26.3379C94.2969 26.0215 94.5371 25.7832 94.8496 25.623C95.1621 25.459 95.5332 25.377 95.9629 25.377C96.0879 25.377 96.2129 25.3848 96.3379 25.4004C96.4668 25.416 96.5918 25.4395 96.7129 25.4707L96.6543 26.3555C96.5723 26.3359 96.4785 26.3223 96.373 26.3145C96.2715 26.3066 96.1699 26.3027 96.0684 26.3027C95.8379 26.3027 95.6387 26.3496 95.4707 26.4434C95.3066 26.5332 95.1816 26.666 95.0957 26.8418C95.0098 27.0176 94.9668 27.2344 94.9668 27.4922V34.5ZM96.3145 28.1602V28.9922H92.8809V28.1602H96.3145ZM100.012 34.6172C99.5703 34.6172 99.1699 34.543 98.8105 34.3945C98.4551 34.2422 98.1484 34.0293 97.8906 33.7559C97.6367 33.4824 97.4414 33.1582 97.3047 32.7832C97.168 32.4082 97.0996 31.998 97.0996 31.5527V31.3066C97.0996 30.791 97.1758 30.332 97.3281 29.9297C97.4805 29.5234 97.6875 29.1797 97.9492 28.8984C98.2109 28.6172 98.5078 28.4043 98.8398 28.2598C99.1719 28.1152 99.5156 28.043 99.8711 28.043C100.324 28.043 100.715 28.1211 101.043 28.2773C101.375 28.4336 101.646 28.6523 101.857 28.9336C102.068 29.2109 102.225 29.5391 102.326 29.918C102.428 30.293 102.479 30.7031 102.479 31.1484V31.6348H97.7441V30.75H101.395V30.668C101.379 30.3867 101.32 30.1133 101.219 29.8477C101.121 29.582 100.965 29.3633 100.75 29.1914C100.535 29.0195 100.242 28.9336 99.8711 28.9336C99.625 28.9336 99.3984 28.9863 99.1914 29.0918C98.9844 29.1934 98.8066 29.3457 98.6582 29.5488C98.5098 29.752 98.3945 30 98.3125 30.293C98.2305 30.5859 98.1895 30.9238 98.1895 31.3066V31.5527C98.1895 31.8535 98.2305 32.1367 98.3125 32.4023C98.3984 32.6641 98.5215 32.8945 98.6816 33.0938C98.8457 33.293 99.043 33.4492 99.2734 33.5625C99.5078 33.6758 99.7734 33.7324 100.07 33.7324C100.453 33.7324 100.777 33.6543 101.043 33.498C101.309 33.3418 101.541 33.1328 101.74 32.8711L102.396 33.3926C102.26 33.5996 102.086 33.7969 101.875 33.9844C101.664 34.1719 101.404 34.3242 101.096 34.4414C100.791 34.5586 100.43 34.6172 100.012 34.6172ZM104.828 29.1562V34.5H103.744V28.1602H104.799L104.828 29.1562ZM106.809 28.125L106.803 29.1328C106.713 29.1133 106.627 29.1016 106.545 29.0977C106.467 29.0898 106.377 29.0859 106.275 29.0859C106.025 29.0859 105.805 29.125 105.613 29.2031C105.422 29.2812 105.26 29.3906 105.127 29.5312C104.994 29.6719 104.889 29.8398 104.811 30.0352C104.736 30.2266 104.688 30.4375 104.664 30.668L104.359 30.8438C104.359 30.4609 104.396 30.1016 104.471 29.7656C104.549 29.4297 104.668 29.1328 104.828 28.875C104.988 28.6133 105.191 28.4102 105.438 28.2656C105.688 28.1172 105.984 28.043 106.328 28.043C106.406 28.043 106.496 28.0527 106.598 28.0723C106.699 28.0879 106.77 28.1055 106.809 28.125ZM110.324 34.6172C109.883 34.6172 109.482 34.543 109.123 34.3945C108.768 34.2422 108.461 34.0293 108.203 33.7559C107.949 33.4824 107.754 33.1582 107.617 32.7832C107.48 32.4082 107.412 31.998 107.412 31.5527V31.3066C107.412 30.791 107.488 30.332 107.641 29.9297C107.793 29.5234 108 29.1797 108.262 28.8984C108.523 28.6172 108.82 28.4043 109.152 28.2598C109.484 28.1152 109.828 28.043 110.184 28.043C110.637 28.043 111.027 28.1211 111.355 28.2773C111.688 28.4336 111.959 28.6523 112.17 28.9336C112.381 29.2109 112.537 29.5391 112.639 29.918C112.74 30.293 112.791 30.7031 112.791 31.1484V31.6348H108.057V30.75H111.707V30.668C111.691 30.3867 111.633 30.1133 111.531 29.8477C111.434 29.582 111.277 29.3633 111.062 29.1914C110.848 29.0195 110.555 28.9336 110.184 28.9336C109.938 28.9336 109.711 28.9863 109.504 29.0918C109.297 29.1934 109.119 29.3457 108.971 29.5488C108.822 29.752 108.707 30 108.625 30.293C108.543 30.5859 108.502 30.9238 108.502 31.3066V31.5527C108.502 31.8535 108.543 32.1367 108.625 32.4023C108.711 32.6641 108.834 32.8945 108.994 33.0938C109.158 33.293 109.355 33.4492 109.586 33.5625C109.82 33.6758 110.086 33.7324 110.383 33.7324C110.766 33.7324 111.09 33.6543 111.355 33.498C111.621 33.3418 111.854 33.1328 112.053 32.8711L112.709 33.3926C112.572 33.5996 112.398 33.7969 112.188 33.9844C111.977 34.1719 111.717 34.3242 111.408 34.4414C111.104 34.5586 110.742 34.6172 110.324 34.6172ZM115.141 29.5137V34.5H114.057V28.1602H115.082L115.141 29.5137ZM114.883 31.0898L114.432 31.0723C114.436 30.6387 114.5 30.2383 114.625 29.8711C114.75 29.5 114.926 29.1777 115.152 28.9043C115.379 28.6309 115.648 28.4199 115.961 28.2715C116.277 28.1191 116.627 28.043 117.01 28.043C117.322 28.043 117.604 28.0859 117.854 28.1719C118.104 28.2539 118.316 28.3867 118.492 28.5703C118.672 28.7539 118.809 28.9922 118.902 29.2852C118.996 29.5742 119.043 29.9277 119.043 30.3457V34.5H117.953V30.334C117.953 30.002 117.904 29.7363 117.807 29.5371C117.709 29.334 117.566 29.1875 117.379 29.0977C117.191 29.0039 116.961 28.957 116.688 28.957C116.418 28.957 116.172 29.0137 115.949 29.127C115.73 29.2402 115.541 29.3965 115.381 29.5957C115.225 29.7949 115.102 30.0234 115.012 30.2812C114.926 30.5352 114.883 30.8047 114.883 31.0898ZM123.227 33.7266C123.484 33.7266 123.723 33.6738 123.941 33.5684C124.16 33.4629 124.34 33.3184 124.48 33.1348C124.621 32.9473 124.701 32.7344 124.721 32.4961H125.752C125.732 32.8711 125.605 33.2207 125.371 33.5449C125.141 33.8652 124.838 34.125 124.463 34.3242C124.088 34.5195 123.676 34.6172 123.227 34.6172C122.75 34.6172 122.334 34.5332 121.979 34.3652C121.627 34.1973 121.334 33.9668 121.1 33.6738C120.869 33.3809 120.695 33.0449 120.578 32.666C120.465 32.2832 120.408 31.8789 120.408 31.4531V31.207C120.408 30.7812 120.465 30.3789 120.578 30C120.695 29.6172 120.869 29.2793 121.1 28.9863C121.334 28.6934 121.627 28.4629 121.979 28.2949C122.334 28.127 122.75 28.043 123.227 28.043C123.723 28.043 124.156 28.1445 124.527 28.3477C124.898 28.5469 125.189 28.8203 125.4 29.168C125.615 29.5117 125.732 29.9023 125.752 30.3398H124.721C124.701 30.0781 124.627 29.8418 124.498 29.6309C124.373 29.4199 124.201 29.252 123.982 29.127C123.768 28.998 123.516 28.9336 123.227 28.9336C122.895 28.9336 122.615 29 122.389 29.1328C122.166 29.2617 121.988 29.4375 121.855 29.6602C121.727 29.8789 121.633 30.123 121.574 30.3926C121.52 30.6582 121.492 30.9297 121.492 31.207V31.4531C121.492 31.7305 121.52 32.0039 121.574 32.2734C121.629 32.543 121.721 32.7871 121.85 33.0059C121.982 33.2246 122.16 33.4004 122.383 33.5332C122.609 33.6621 122.891 33.7266 123.227 33.7266ZM129.602 34.6172C129.16 34.6172 128.76 34.543 128.4 34.3945C128.045 34.2422 127.738 34.0293 127.48 33.7559C127.227 33.4824 127.031 33.1582 126.895 32.7832C126.758 32.4082 126.689 31.998 126.689 31.5527V31.3066C126.689 30.791 126.766 30.332 126.918 29.9297C127.07 29.5234 127.277 29.1797 127.539 28.8984C127.801 28.6172 128.098 28.4043 128.43 28.2598C128.762 28.1152 129.105 28.043 129.461 28.043C129.914 28.043 130.305 28.1211 130.633 28.2773C130.965 28.4336 131.236 28.6523 131.447 28.9336C131.658 29.2109 131.814 29.5391 131.916 29.918C132.018 30.293 132.068 30.7031 132.068 31.1484V31.6348H127.334V30.75H130.984V30.668C130.969 30.3867 130.91 30.1133 130.809 29.8477C130.711 29.582 130.555 29.3633 130.34 29.1914C130.125 29.0195 129.832 28.9336 129.461 28.9336C129.215 28.9336 128.988 28.9863 128.781 29.0918C128.574 29.1934 128.396 29.3457 128.248 29.5488C128.1 29.752 127.984 30 127.902 30.293C127.82 30.5859 127.779 30.9238 127.779 31.3066V31.5527C127.779 31.8535 127.82 32.1367 127.902 32.4023C127.988 32.6641 128.111 32.8945 128.271 33.0938C128.436 33.293 128.633 33.4492 128.863 33.5625C129.098 33.6758 129.363 33.7324 129.66 33.7324C130.043 33.7324 130.367 33.6543 130.633 33.498C130.898 33.3418 131.131 33.1328 131.33 32.8711L131.986 33.3926C131.85 33.5996 131.676 33.7969 131.465 33.9844C131.254 34.1719 130.994 34.3242 130.686 34.4414C130.381 34.5586 130.02 34.6172 129.602 34.6172ZM20.043 48.2812V62.5H17.3574V48.2812H20.043ZM25.7754 54.4238V56.543H19.3398V54.4238H25.7754ZM26.5273 48.2812V50.4004H19.3398V48.2812H26.5273ZM27.4844 57.3242V57.1191C27.4844 56.3444 27.5951 55.6315 27.8164 54.9805C28.0378 54.3229 28.36 53.7533 28.7832 53.2715C29.2064 52.7897 29.724 52.4154 30.3359 52.1484C30.9479 51.875 31.6445 51.7383 32.4258 51.7383C33.2201 51.7383 33.9232 51.875 34.5352 52.1484C35.1536 52.4154 35.6745 52.7897 36.0977 53.2715C36.5208 53.7533 36.8431 54.3229 37.0645 54.9805C37.2858 55.6315 37.3965 56.3444 37.3965 57.1191V57.3242C37.3965 58.0924 37.2858 58.8053 37.0645 59.4629C36.8431 60.1139 36.5208 60.6836 36.0977 61.1719C35.6745 61.6536 35.1569 62.028 34.5449 62.2949C33.9329 62.5618 33.2331 62.6953 32.4453 62.6953C31.6641 62.6953 30.9642 62.5618 30.3457 62.2949C29.7272 62.028 29.2064 61.6536 28.7832 61.1719C28.36 60.6836 28.0378 60.1139 27.8164 59.4629C27.5951 58.8053 27.4844 58.0924 27.4844 57.3242ZM30.0625 57.1191V57.3242C30.0625 57.7865 30.1081 58.2194 30.1992 58.623C30.2904 59.0267 30.4303 59.3815 30.6191 59.6875C30.8079 59.9935 31.0521 60.2344 31.3516 60.4102C31.6576 60.5794 32.0221 60.6641 32.4453 60.6641C32.862 60.6641 33.2201 60.5794 33.5195 60.4102C33.819 60.2344 34.0632 59.9935 34.252 59.6875C34.4473 59.3815 34.5905 59.0267 34.6816 58.623C34.7728 58.2194 34.8184 57.7865 34.8184 57.3242V57.1191C34.8184 56.6634 34.7728 56.237 34.6816 55.8398C34.5905 55.4362 34.4473 55.0814 34.252 54.7754C34.0632 54.4629 33.8158 54.2188 33.5098 54.043C33.2103 53.8607 32.849 53.7695 32.4258 53.7695C32.0091 53.7695 31.651 53.8607 31.3516 54.043C31.0521 54.2188 30.8079 54.4629 30.6191 54.7754C30.4303 55.0814 30.2904 55.4362 30.1992 55.8398C30.1081 56.237 30.0625 56.6634 30.0625 57.1191ZM41.8496 54.0918V62.5H39.2715V51.9336H41.7129L41.8496 54.0918ZM45.0625 51.8652L45.0234 54.2676C44.8802 54.2415 44.7174 54.222 44.5352 54.209C44.3594 54.196 44.1934 54.1895 44.0371 54.1895C43.64 54.1895 43.2917 54.2448 42.9922 54.3555C42.6927 54.4596 42.4421 54.6126 42.2402 54.8145C42.0449 55.0163 41.8952 55.2637 41.791 55.5566C41.6868 55.8431 41.6283 56.1686 41.6152 56.5332L41.0586 56.4648C41.0586 55.7943 41.127 55.1725 41.2637 54.5996C41.4004 54.0267 41.599 53.5254 41.8594 53.0957C42.1198 52.666 42.4453 52.334 42.8359 52.0996C43.2331 51.8587 43.6888 51.7383 44.2031 51.7383C44.3464 51.7383 44.4993 51.7513 44.6621 51.7773C44.8314 51.7969 44.9648 51.8262 45.0625 51.8652ZM54.1934 51.9336V62.5H51.6055V51.9336H54.1934ZM51.4297 49.1699C51.4297 48.7858 51.5599 48.4668 51.8203 48.2129C52.0872 47.959 52.4453 47.832 52.8945 47.832C53.3438 47.832 53.6986 47.959 53.959 48.2129C54.2259 48.4668 54.3594 48.7858 54.3594 49.1699C54.3594 49.5475 54.2259 49.8633 53.959 50.1172C53.6986 50.3711 53.3438 50.498 52.8945 50.498C52.4453 50.498 52.0872 50.3711 51.8203 50.1172C51.5599 49.8633 51.4297 49.5475 51.4297 49.1699ZM59.1836 54.1895V62.5H56.6055V51.9336H59.0273L59.1836 54.1895ZM58.7734 56.8359H58.0117C58.0182 56.0677 58.1224 55.3711 58.3242 54.7461C58.526 54.1211 58.8092 53.584 59.1738 53.1348C59.5449 52.6855 59.9844 52.3405 60.4922 52.0996C61 51.8587 61.5664 51.7383 62.1914 51.7383C62.6992 51.7383 63.1582 51.8099 63.5684 51.9531C63.9785 52.0964 64.3301 52.3242 64.623 52.6367C64.9225 52.9492 65.1504 53.3594 65.3066 53.8672C65.4694 54.3685 65.5508 54.987 65.5508 55.7227V62.5H62.9531V55.7031C62.9531 55.2214 62.8815 54.8405 62.7383 54.5605C62.6016 54.2806 62.3997 54.082 62.1328 53.9648C61.8724 53.8477 61.5501 53.7891 61.166 53.7891C60.7689 53.7891 60.4206 53.8704 60.1211 54.0332C59.8281 54.1895 59.5807 54.4076 59.3789 54.6875C59.1836 54.9674 59.0339 55.2897 58.9297 55.6543C58.8255 56.0189 58.7734 56.4128 58.7734 56.8359ZM74.1641 60.2539V47.5H76.7617V62.5H74.418L74.1641 60.2539ZM67.377 57.3438V57.1387C67.377 56.3314 67.4681 55.599 67.6504 54.9414C67.8392 54.2773 68.1126 53.7077 68.4707 53.2324C68.8288 52.7572 69.2617 52.3893 69.7695 52.1289C70.2839 51.8685 70.8665 51.7383 71.5176 51.7383C72.1491 51.7383 72.6992 51.8652 73.168 52.1191C73.6432 52.373 74.0469 52.7344 74.3789 53.2031C74.7174 53.6719 74.9876 54.2285 75.1895 54.873C75.3913 55.5111 75.5378 56.2142 75.6289 56.9824V57.5391C75.5378 58.2878 75.3913 58.9746 75.1895 59.5996C74.9876 60.2246 74.7174 60.7715 74.3789 61.2402C74.0469 61.7025 73.6432 62.0605 73.168 62.3145C72.6927 62.5684 72.1361 62.6953 71.498 62.6953C70.8535 62.6953 70.2741 62.5618 69.7598 62.2949C69.252 62.028 68.819 61.6536 68.4609 61.1719C68.1094 60.6901 67.8392 60.1237 67.6504 59.4727C67.4681 58.8216 67.377 58.112 67.377 57.3438ZM69.9648 57.1387V57.3438C69.9648 57.7995 70.0039 58.2259 70.082 58.623C70.1602 59.0202 70.2871 59.3717 70.4629 59.6777C70.6387 59.9772 70.8633 60.2116 71.1367 60.3809C71.4167 60.5501 71.7552 60.6348 72.1523 60.6348C72.6602 60.6348 73.0768 60.5241 73.4023 60.3027C73.7344 60.0749 73.9915 59.7656 74.1738 59.375C74.3561 58.9779 74.4733 58.5319 74.5254 58.0371V56.5039C74.4993 56.1133 74.431 55.752 74.3203 55.4199C74.2161 55.0879 74.0664 54.8014 73.8711 54.5605C73.6823 54.3197 73.4479 54.1309 73.168 53.9941C72.888 53.8574 72.556 53.7891 72.1719 53.7891C71.7747 53.7891 71.4362 53.877 71.1562 54.0527C70.8763 54.222 70.6484 54.4596 70.4727 54.7656C70.2969 55.0716 70.1667 55.4264 70.082 55.8301C70.0039 56.2337 69.9648 56.6699 69.9648 57.1387ZM81.8301 51.9336V62.5H79.2422V51.9336H81.8301ZM79.0664 49.1699C79.0664 48.7858 79.1966 48.4668 79.457 48.2129C79.724 47.959 80.082 47.832 80.5312 47.832C80.9805 47.832 81.3353 47.959 81.5957 48.2129C81.8626 48.4668 81.9961 48.7858 81.9961 49.1699C81.9961 49.5475 81.8626 49.8633 81.5957 50.1172C81.3353 50.3711 80.9805 50.498 80.5312 50.498C80.082 50.498 79.724 50.3711 79.457 50.1172C79.1966 49.8633 79.0664 49.5475 79.0664 49.1699ZM87.7969 60.5469L90.2578 51.9336H92.9531L89.3301 62.5H87.6895L87.7969 60.5469ZM86 51.9336L88.4902 60.5664L88.5781 62.5H86.9277L83.2949 51.9336H86ZM97.0449 51.9336V62.5H94.457V51.9336H97.0449ZM94.2812 49.1699C94.2812 48.7858 94.4115 48.4668 94.6719 48.2129C94.9388 47.959 95.2969 47.832 95.7461 47.832C96.1953 47.832 96.5501 47.959 96.8105 48.2129C97.0775 48.4668 97.2109 48.7858 97.2109 49.1699C97.2109 49.5475 97.0775 49.8633 96.8105 50.1172C96.5501 50.3711 96.1953 50.498 95.7461 50.498C95.2969 50.498 94.9388 50.3711 94.6719 50.1172C94.4115 49.8633 94.2812 49.5475 94.2812 49.1699ZM105.844 60.2539V47.5H108.441V62.5H106.098L105.844 60.2539ZM99.0566 57.3438V57.1387C99.0566 56.3314 99.1478 55.599 99.3301 54.9414C99.5189 54.2773 99.7923 53.7077 100.15 53.2324C100.508 52.7572 100.941 52.3893 101.449 52.1289C101.964 51.8685 102.546 51.7383 103.197 51.7383C103.829 51.7383 104.379 51.8652 104.848 52.1191C105.323 52.373 105.727 52.7344 106.059 53.2031C106.397 53.6719 106.667 54.2285 106.869 54.873C107.071 55.5111 107.217 56.2142 107.309 56.9824V57.5391C107.217 58.2878 107.071 58.9746 106.869 59.5996C106.667 60.2246 106.397 60.7715 106.059 61.2402C105.727 61.7025 105.323 62.0605 104.848 62.3145C104.372 62.5684 103.816 62.6953 103.178 62.6953C102.533 62.6953 101.954 62.5618 101.439 62.2949C100.932 62.028 100.499 61.6536 100.141 61.1719C99.7891 60.6901 99.5189 60.1237 99.3301 59.4727C99.1478 58.8216 99.0566 58.112 99.0566 57.3438ZM101.645 57.1387V57.3438C101.645 57.7995 101.684 58.2259 101.762 58.623C101.84 59.0202 101.967 59.3717 102.143 59.6777C102.318 59.9772 102.543 60.2116 102.816 60.3809C103.096 60.5501 103.435 60.6348 103.832 60.6348C104.34 60.6348 104.757 60.5241 105.082 60.3027C105.414 60.0749 105.671 59.7656 105.854 59.375C106.036 58.9779 106.153 58.5319 106.205 58.0371V56.5039C106.179 56.1133 106.111 55.752 106 55.4199C105.896 55.0879 105.746 54.8014 105.551 54.5605C105.362 54.3197 105.128 54.1309 104.848 53.9941C104.568 53.8574 104.236 53.7891 103.852 53.7891C103.454 53.7891 103.116 53.877 102.836 54.0527C102.556 54.222 102.328 54.4596 102.152 54.7656C101.977 55.0716 101.846 55.4264 101.762 55.8301C101.684 56.2337 101.645 56.6699 101.645 57.1387ZM117.064 59.9902V51.9336H119.662V62.5H117.221L117.064 59.9902ZM117.396 57.8027L118.197 57.7832C118.197 58.4928 118.119 59.1471 117.963 59.7461C117.807 60.3451 117.562 60.8659 117.23 61.3086C116.905 61.7448 116.492 62.0866 115.99 62.334C115.489 62.5749 114.896 62.6953 114.213 62.6953C113.692 62.6953 113.217 62.6237 112.787 62.4805C112.357 62.3307 111.986 62.0996 111.674 61.7871C111.368 61.4681 111.13 61.0612 110.961 60.5664C110.792 60.0651 110.707 59.4629 110.707 58.7598V51.9336H113.285V58.7793C113.285 59.1309 113.324 59.4238 113.402 59.6582C113.487 59.8926 113.601 60.0846 113.744 60.2344C113.894 60.3776 114.066 60.4818 114.262 60.5469C114.464 60.6055 114.678 60.6348 114.906 60.6348C115.531 60.6348 116.023 60.5111 116.381 60.2637C116.745 60.0098 117.006 59.6712 117.162 59.248C117.318 58.8184 117.396 58.3366 117.396 57.8027ZM127.768 60.2539V55.3809C127.768 55.0228 127.706 54.7135 127.582 54.4531C127.458 54.1927 127.27 53.9909 127.016 53.8477C126.762 53.7044 126.439 53.6328 126.049 53.6328C125.704 53.6328 125.401 53.6914 125.141 53.8086C124.887 53.9258 124.691 54.0918 124.555 54.3066C124.418 54.515 124.35 54.7559 124.35 55.0293H121.762C121.762 54.5931 121.866 54.1797 122.074 53.7891C122.283 53.3919 122.579 53.0404 122.963 52.7344C123.354 52.4219 123.819 52.1777 124.359 52.002C124.906 51.8262 125.518 51.7383 126.195 51.7383C126.996 51.7383 127.709 51.875 128.334 52.1484C128.965 52.4154 129.46 52.819 129.818 53.3594C130.183 53.8997 130.365 54.5801 130.365 55.4004V60.0098C130.365 60.5371 130.398 60.9896 130.463 61.3672C130.535 61.7383 130.639 62.0605 130.775 62.334V62.5H128.148C128.025 62.2331 127.93 61.8945 127.865 61.4844C127.8 61.0677 127.768 60.6576 127.768 60.2539ZM128.129 56.0645L128.148 57.5977H126.518C126.114 57.5977 125.759 57.64 125.453 57.7246C125.147 57.8027 124.896 57.9199 124.701 58.0762C124.506 58.2259 124.359 58.4082 124.262 58.623C124.164 58.8314 124.115 59.069 124.115 59.3359C124.115 59.5964 124.174 59.8307 124.291 60.0391C124.415 60.2474 124.59 60.4134 124.818 60.5371C125.053 60.6543 125.326 60.7129 125.639 60.7129C126.094 60.7129 126.492 60.6217 126.83 60.4395C127.169 60.2507 127.432 60.0228 127.621 59.7559C127.81 59.4889 127.911 59.235 127.924 58.9941L128.666 60.1074C128.575 60.3743 128.438 60.6576 128.256 60.957C128.074 61.2565 127.839 61.5365 127.553 61.7969C127.266 62.0573 126.921 62.2721 126.518 62.4414C126.114 62.6107 125.645 62.6953 125.111 62.6953C124.428 62.6953 123.816 62.5586 123.275 62.2852C122.735 62.0117 122.309 61.6374 121.996 61.1621C121.684 60.6868 121.527 60.1465 121.527 59.541C121.527 58.9811 121.632 58.4863 121.84 58.0566C122.048 57.627 122.357 57.2656 122.768 56.9727C123.178 56.6732 123.686 56.4486 124.291 56.2988C124.903 56.1426 125.603 56.0645 126.391 56.0645H128.129ZM135.424 47.5V62.5H132.836V47.5H135.424ZM143.695 59.6094C143.695 59.388 143.637 59.1895 143.52 59.0137C143.402 58.8379 143.181 58.6784 142.855 58.5352C142.536 58.3854 142.068 58.2454 141.449 58.1152C140.902 57.998 140.398 57.8516 139.936 57.6758C139.473 57.5 139.076 57.2884 138.744 57.041C138.412 56.7871 138.152 56.4909 137.963 56.1523C137.781 55.8073 137.689 55.4102 137.689 54.9609C137.689 54.5247 137.784 54.1146 137.973 53.7305C138.161 53.3398 138.435 52.998 138.793 52.7051C139.151 52.4056 139.587 52.1712 140.102 52.002C140.616 51.8262 141.195 51.7383 141.84 51.7383C142.738 51.7383 143.51 51.8848 144.154 52.1777C144.805 52.4707 145.303 52.8743 145.648 53.3887C145.993 53.8965 146.166 54.4694 146.166 55.1074H143.588C143.588 54.8275 143.523 54.5736 143.393 54.3457C143.269 54.1178 143.077 53.9355 142.816 53.7988C142.556 53.6556 142.227 53.584 141.83 53.584C141.472 53.584 141.169 53.6426 140.922 53.7598C140.681 53.877 140.499 54.0299 140.375 54.2188C140.251 54.4076 140.189 54.6159 140.189 54.8438C140.189 55.013 140.222 55.166 140.287 55.3027C140.359 55.4329 140.473 55.5534 140.629 55.6641C140.785 55.7747 140.997 55.8757 141.264 55.9668C141.537 56.0579 141.872 56.1458 142.27 56.2305C143.057 56.3867 143.744 56.5951 144.33 56.8555C144.923 57.1094 145.385 57.4479 145.717 57.8711C146.049 58.2943 146.215 58.8346 146.215 59.4922C146.215 59.9609 146.114 60.3906 145.912 60.7812C145.71 61.1654 145.417 61.5007 145.033 61.7871C144.649 62.0736 144.19 62.2982 143.656 62.4609C143.122 62.6172 142.52 62.6953 141.85 62.6953C140.88 62.6953 140.059 62.5228 139.389 62.1777C138.718 61.8262 138.21 61.3835 137.865 60.8496C137.52 60.3092 137.348 59.7493 137.348 59.1699H139.818C139.838 59.5801 139.949 59.9089 140.15 60.1562C140.352 60.4036 140.606 60.5827 140.912 60.6934C141.225 60.7975 141.553 60.8496 141.898 60.8496C142.289 60.8496 142.618 60.7975 142.885 60.6934C143.152 60.5827 143.354 60.4362 143.49 60.2539C143.627 60.0651 143.695 59.8503 143.695 59.6094ZM153.998 60.2539V55.3809C153.998 55.0228 153.936 54.7135 153.812 54.4531C153.689 54.1927 153.5 53.9909 153.246 53.8477C152.992 53.7044 152.67 53.6328 152.279 53.6328C151.934 53.6328 151.632 53.6914 151.371 53.8086C151.117 53.9258 150.922 54.0918 150.785 54.3066C150.648 54.515 150.58 54.7559 150.58 55.0293H147.992C147.992 54.5931 148.096 54.1797 148.305 53.7891C148.513 53.3919 148.809 53.0404 149.193 52.7344C149.584 52.4219 150.049 52.1777 150.59 52.002C151.137 51.8262 151.749 51.7383 152.426 51.7383C153.227 51.7383 153.939 51.875 154.564 52.1484C155.196 52.4154 155.691 52.819 156.049 53.3594C156.413 53.8997 156.596 54.5801 156.596 55.4004V60.0098C156.596 60.5371 156.628 60.9896 156.693 61.3672C156.765 61.7383 156.869 62.0605 157.006 62.334V62.5H154.379C154.255 62.2331 154.161 61.8945 154.096 61.4844C154.031 61.0677 153.998 60.6576 153.998 60.2539ZM154.359 56.0645L154.379 57.5977H152.748C152.344 57.5977 151.99 57.64 151.684 57.7246C151.378 57.8027 151.127 57.9199 150.932 58.0762C150.736 58.2259 150.59 58.4082 150.492 58.623C150.395 58.8314 150.346 59.069 150.346 59.3359C150.346 59.5964 150.404 59.8307 150.521 60.0391C150.645 60.2474 150.821 60.4134 151.049 60.5371C151.283 60.6543 151.557 60.7129 151.869 60.7129C152.325 60.7129 152.722 60.6217 153.061 60.4395C153.399 60.2507 153.663 60.0228 153.852 59.7559C154.04 59.4889 154.141 59.235 154.154 58.9941L154.896 60.1074C154.805 60.3743 154.669 60.6576 154.486 60.957C154.304 61.2565 154.07 61.5365 153.783 61.7969C153.497 62.0573 153.152 62.2721 152.748 62.4414C152.344 62.6107 151.876 62.6953 151.342 62.6953C150.658 62.6953 150.046 62.5586 149.506 62.2852C148.965 62.0117 148.539 61.6374 148.227 61.1621C147.914 60.6868 147.758 60.1465 147.758 59.541C147.758 58.9811 147.862 58.4863 148.07 58.0566C148.279 57.627 148.588 57.2656 148.998 56.9727C149.408 56.6732 149.916 56.4486 150.521 56.2988C151.133 56.1426 151.833 56.0645 152.621 56.0645H154.359ZM161.449 54.1895V62.5H158.871V51.9336H161.293L161.449 54.1895ZM161.039 56.8359H160.277C160.284 56.0677 160.388 55.3711 160.59 54.7461C160.792 54.1211 161.075 53.584 161.439 53.1348C161.811 52.6855 162.25 52.3405 162.758 52.0996C163.266 51.8587 163.832 51.7383 164.457 51.7383C164.965 51.7383 165.424 51.8099 165.834 51.9531C166.244 52.0964 166.596 52.3242 166.889 52.6367C167.188 52.9492 167.416 53.3594 167.572 53.8672C167.735 54.3685 167.816 54.987 167.816 55.7227V62.5H165.219V55.7031C165.219 55.2214 165.147 54.8405 165.004 54.5605C164.867 54.2806 164.665 54.082 164.398 53.9648C164.138 53.8477 163.816 53.7891 163.432 53.7891C163.035 53.7891 162.686 53.8704 162.387 54.0332C162.094 54.1895 161.846 54.4076 161.645 54.6875C161.449 54.9674 161.299 55.2897 161.195 55.6543C161.091 56.0189 161.039 56.4128 161.039 56.8359ZM176.43 60.2539V47.5H179.027V62.5H176.684L176.43 60.2539ZM169.643 57.3438V57.1387C169.643 56.3314 169.734 55.599 169.916 54.9414C170.105 54.2773 170.378 53.7077 170.736 53.2324C171.094 52.7572 171.527 52.3893 172.035 52.1289C172.549 51.8685 173.132 51.7383 173.783 51.7383C174.415 51.7383 174.965 51.8652 175.434 52.1191C175.909 52.373 176.312 52.7344 176.645 53.2031C176.983 53.6719 177.253 54.2285 177.455 54.873C177.657 55.5111 177.803 56.2142 177.895 56.9824V57.5391C177.803 58.2878 177.657 58.9746 177.455 59.5996C177.253 60.2246 176.983 60.7715 176.645 61.2402C176.312 61.7025 175.909 62.0605 175.434 62.3145C174.958 62.5684 174.402 62.6953 173.764 62.6953C173.119 62.6953 172.54 62.5618 172.025 62.2949C171.518 62.028 171.085 61.6536 170.727 61.1719C170.375 60.6901 170.105 60.1237 169.916 59.4727C169.734 58.8216 169.643 58.112 169.643 57.3438ZM172.23 57.1387V57.3438C172.23 57.7995 172.27 58.2259 172.348 58.623C172.426 59.0202 172.553 59.3717 172.729 59.6777C172.904 59.9772 173.129 60.2116 173.402 60.3809C173.682 60.5501 174.021 60.6348 174.418 60.6348C174.926 60.6348 175.342 60.5241 175.668 60.3027C176 60.0749 176.257 59.7656 176.439 59.375C176.622 58.9779 176.739 58.5319 176.791 58.0371V56.5039C176.765 56.1133 176.697 55.752 176.586 55.4199C176.482 55.0879 176.332 54.8014 176.137 54.5605C175.948 54.3197 175.714 54.1309 175.434 53.9941C175.154 53.8574 174.822 53.7891 174.438 53.7891C174.04 53.7891 173.702 53.877 173.422 54.0527C173.142 54.222 172.914 54.4596 172.738 54.7656C172.562 55.0716 172.432 55.4264 172.348 55.8301C172.27 56.2337 172.23 56.6699 172.23 57.1387ZM192.162 60.2539V55.3809C192.162 55.0228 192.1 54.7135 191.977 54.4531C191.853 54.1927 191.664 53.9909 191.41 53.8477C191.156 53.7044 190.834 53.6328 190.443 53.6328C190.098 53.6328 189.796 53.6914 189.535 53.8086C189.281 53.9258 189.086 54.0918 188.949 54.3066C188.812 54.515 188.744 54.7559 188.744 55.0293H186.156C186.156 54.5931 186.26 54.1797 186.469 53.7891C186.677 53.3919 186.973 53.0404 187.357 52.7344C187.748 52.4219 188.214 52.1777 188.754 52.002C189.301 51.8262 189.913 51.7383 190.59 51.7383C191.391 51.7383 192.104 51.875 192.729 52.1484C193.36 52.4154 193.855 52.819 194.213 53.3594C194.577 53.8997 194.76 54.5801 194.76 55.4004V60.0098C194.76 60.5371 194.792 60.9896 194.857 61.3672C194.929 61.7383 195.033 62.0605 195.17 62.334V62.5H192.543C192.419 62.2331 192.325 61.8945 192.26 61.4844C192.195 61.0677 192.162 60.6576 192.162 60.2539ZM192.523 56.0645L192.543 57.5977H190.912C190.508 57.5977 190.154 57.64 189.848 57.7246C189.542 57.8027 189.291 57.9199 189.096 58.0762C188.9 58.2259 188.754 58.4082 188.656 58.623C188.559 58.8314 188.51 59.069 188.51 59.3359C188.51 59.5964 188.568 59.8307 188.686 60.0391C188.809 60.2474 188.985 60.4134 189.213 60.5371C189.447 60.6543 189.721 60.7129 190.033 60.7129C190.489 60.7129 190.886 60.6217 191.225 60.4395C191.563 60.2507 191.827 60.0228 192.016 59.7559C192.204 59.4889 192.305 59.235 192.318 58.9941L193.061 60.1074C192.969 60.3743 192.833 60.6576 192.65 60.957C192.468 61.2565 192.234 61.5365 191.947 61.7969C191.661 62.0573 191.316 62.2721 190.912 62.4414C190.508 62.6107 190.04 62.6953 189.506 62.6953C188.822 62.6953 188.21 62.5586 187.67 62.2852C187.13 62.0117 186.703 61.6374 186.391 61.1621C186.078 60.6868 185.922 60.1465 185.922 59.541C185.922 58.9811 186.026 58.4863 186.234 58.0566C186.443 57.627 186.752 57.2656 187.162 56.9727C187.572 56.6732 188.08 56.4486 188.686 56.2988C189.298 56.1426 189.997 56.0645 190.785 56.0645H192.523ZM199.613 54.1895V62.5H197.035V51.9336H199.457L199.613 54.1895ZM199.203 56.8359H198.441C198.448 56.0677 198.552 55.3711 198.754 54.7461C198.956 54.1211 199.239 53.584 199.604 53.1348C199.975 52.6855 200.414 52.3405 200.922 52.0996C201.43 51.8587 201.996 51.7383 202.621 51.7383C203.129 51.7383 203.588 51.8099 203.998 51.9531C204.408 52.0964 204.76 52.3242 205.053 52.6367C205.352 52.9492 205.58 53.3594 205.736 53.8672C205.899 54.3685 205.98 54.987 205.98 55.7227V62.5H203.383V55.7031C203.383 55.2214 203.311 54.8405 203.168 54.5605C203.031 54.2806 202.829 54.082 202.562 53.9648C202.302 53.8477 201.98 53.7891 201.596 53.7891C201.199 53.7891 200.85 53.8704 200.551 54.0332C200.258 54.1895 200.01 54.4076 199.809 54.6875C199.613 54.9674 199.464 55.2897 199.359 55.6543C199.255 56.0189 199.203 56.4128 199.203 56.8359ZM214.594 60.2539V47.5H217.191V62.5H214.848L214.594 60.2539ZM207.807 57.3438V57.1387C207.807 56.3314 207.898 55.599 208.08 54.9414C208.269 54.2773 208.542 53.7077 208.9 53.2324C209.258 52.7572 209.691 52.3893 210.199 52.1289C210.714 51.8685 211.296 51.7383 211.947 51.7383C212.579 51.7383 213.129 51.8652 213.598 52.1191C214.073 52.373 214.477 52.7344 214.809 53.2031C215.147 53.6719 215.417 54.2285 215.619 54.873C215.821 55.5111 215.967 56.2142 216.059 56.9824V57.5391C215.967 58.2878 215.821 58.9746 215.619 59.5996C215.417 60.2246 215.147 60.7715 214.809 61.2402C214.477 61.7025 214.073 62.0605 213.598 62.3145C213.122 62.5684 212.566 62.6953 211.928 62.6953C211.283 62.6953 210.704 62.5618 210.189 62.2949C209.682 62.028 209.249 61.6536 208.891 61.1719C208.539 60.6901 208.269 60.1237 208.08 59.4727C207.898 58.8216 207.807 58.112 207.807 57.3438ZM210.395 57.1387V57.3438C210.395 57.7995 210.434 58.2259 210.512 58.623C210.59 59.0202 210.717 59.3717 210.893 59.6777C211.068 59.9772 211.293 60.2116 211.566 60.3809C211.846 60.5501 212.185 60.6348 212.582 60.6348C213.09 60.6348 213.507 60.5241 213.832 60.3027C214.164 60.0749 214.421 59.7656 214.604 59.375C214.786 58.9779 214.903 58.5319 214.955 58.0371V56.5039C214.929 56.1133 214.861 55.752 214.75 55.4199C214.646 55.0879 214.496 54.8014 214.301 54.5605C214.112 54.3197 213.878 54.1309 213.598 53.9941C213.318 53.8574 212.986 53.7891 212.602 53.7891C212.204 53.7891 211.866 53.877 211.586 54.0527C211.306 54.222 211.078 54.4596 210.902 54.7656C210.727 55.0716 210.596 55.4264 210.512 55.8301C210.434 56.2337 210.395 56.6699 210.395 57.1387Z" fill="black"/>
<path d="M20.043 76.2812V90.5H17.3574V76.2812H20.043ZM25.7754 82.4238V84.543H19.3398V82.4238H25.7754ZM26.5273 76.2812V78.4004H19.3398V76.2812H26.5273ZM27.4844 85.3242V85.1191C27.4844 84.3444 27.5951 83.6315 27.8164 82.9805C28.0378 82.3229 28.36 81.7533 28.7832 81.2715C29.2064 80.7897 29.724 80.4154 30.3359 80.1484C30.9479 79.875 31.6445 79.7383 32.4258 79.7383C33.2201 79.7383 33.9232 79.875 34.5352 80.1484C35.1536 80.4154 35.6745 80.7897 36.0977 81.2715C36.5208 81.7533 36.8431 82.3229 37.0645 82.9805C37.2858 83.6315 37.3965 84.3444 37.3965 85.1191V85.3242C37.3965 86.0924 37.2858 86.8053 37.0645 87.4629C36.8431 88.1139 36.5208 88.6836 36.0977 89.1719C35.6745 89.6536 35.1569 90.028 34.5449 90.2949C33.9329 90.5618 33.2331 90.6953 32.4453 90.6953C31.6641 90.6953 30.9642 90.5618 30.3457 90.2949C29.7272 90.028 29.2064 89.6536 28.7832 89.1719C28.36 88.6836 28.0378 88.1139 27.8164 87.4629C27.5951 86.8053 27.4844 86.0924 27.4844 85.3242ZM30.0625 85.1191V85.3242C30.0625 85.7865 30.1081 86.2194 30.1992 86.623C30.2904 87.0267 30.4303 87.3815 30.6191 87.6875C30.8079 87.9935 31.0521 88.2344 31.3516 88.4102C31.6576 88.5794 32.0221 88.6641 32.4453 88.6641C32.862 88.6641 33.2201 88.5794 33.5195 88.4102C33.819 88.2344 34.0632 87.9935 34.252 87.6875C34.4473 87.3815 34.5905 87.0267 34.6816 86.623C34.7728 86.2194 34.8184 85.7865 34.8184 85.3242V85.1191C34.8184 84.6634 34.7728 84.237 34.6816 83.8398C34.5905 83.4362 34.4473 83.0814 34.252 82.7754C34.0632 82.4629 33.8158 82.2188 33.5098 82.043C33.2103 81.8607 32.849 81.7695 32.4258 81.7695C32.0091 81.7695 31.651 81.8607 31.3516 82.043C31.0521 82.2188 30.8079 82.4629 30.6191 82.7754C30.4303 83.0814 30.2904 83.4362 30.1992 83.8398C30.1081 84.237 30.0625 84.6634 30.0625 85.1191ZM41.8496 82.0918V90.5H39.2715V79.9336H41.7129L41.8496 82.0918ZM45.0625 79.8652L45.0234 82.2676C44.8802 82.2415 44.7174 82.222 44.5352 82.209C44.3594 82.196 44.1934 82.1895 44.0371 82.1895C43.64 82.1895 43.2917 82.2448 42.9922 82.3555C42.6927 82.4596 42.4421 82.6126 42.2402 82.8145C42.0449 83.0163 41.8952 83.2637 41.791 83.5566C41.6868 83.8431 41.6283 84.1686 41.6152 84.5332L41.0586 84.4648C41.0586 83.7943 41.127 83.1725 41.2637 82.5996C41.4004 82.0267 41.599 81.5254 41.8594 81.0957C42.1198 80.666 42.4453 80.334 42.8359 80.0996C43.2331 79.8587 43.6888 79.7383 44.2031 79.7383C44.3464 79.7383 44.4993 79.7513 44.6621 79.7773C44.8314 79.7969 44.9648 79.8262 45.0625 79.8652ZM57.1035 84.1621H53.4707L53.4512 82.2676H56.5664C57.1003 82.2676 57.5462 82.1927 57.9043 82.043C58.2624 81.8932 58.5326 81.6751 58.7148 81.3887C58.9036 81.1022 58.998 80.7539 58.998 80.3438C58.998 79.888 58.9102 79.5169 58.7344 79.2305C58.5651 78.944 58.2982 78.7357 57.9336 78.6055C57.569 78.4688 57.1068 78.4004 56.5469 78.4004H54.3398V90.5H51.6543V76.2812H56.5469C57.3542 76.2812 58.0736 76.3594 58.7051 76.5156C59.3431 76.6654 59.8835 76.8997 60.3262 77.2188C60.7689 77.5378 61.1042 77.9382 61.332 78.4199C61.5664 78.9017 61.6836 79.4746 61.6836 80.1387C61.6836 80.7246 61.5469 81.265 61.2734 81.7598C61.0065 82.248 60.5931 82.6452 60.0332 82.9512C59.4798 83.2572 58.7767 83.4329 57.9238 83.4785L57.1035 84.1621ZM56.9863 90.5H52.6797L53.8027 88.3906H56.9863C57.5202 88.3906 57.9596 88.3027 58.3047 88.127C58.6562 87.9512 58.9167 87.7103 59.0859 87.4043C59.2617 87.0918 59.3496 86.7337 59.3496 86.3301C59.3496 85.8874 59.2715 85.5033 59.1152 85.1777C58.9655 84.8522 58.7246 84.6016 58.3926 84.4258C58.0671 84.25 57.6374 84.1621 57.1035 84.1621H54.3105L54.3301 82.2676H57.8848L58.5 83C59.3203 83.0065 59.9876 83.1693 60.502 83.4883C61.0228 83.8073 61.4069 84.2174 61.6543 84.7188C61.9017 85.2201 62.0254 85.7604 62.0254 86.3398C62.0254 87.2513 61.8268 88.0163 61.4297 88.6348C61.0391 89.2533 60.4661 89.7188 59.7109 90.0312C58.9622 90.3438 58.054 90.5 56.9863 90.5ZM70.4434 87.9902V79.9336H73.041V90.5H70.5996L70.4434 87.9902ZM70.7754 85.8027L71.5762 85.7832C71.5762 86.4928 71.498 87.1471 71.3418 87.7461C71.1855 88.3451 70.9414 88.8659 70.6094 89.3086C70.2839 89.7448 69.8704 90.0866 69.3691 90.334C68.8678 90.5749 68.2754 90.6953 67.5918 90.6953C67.071 90.6953 66.5957 90.6237 66.166 90.4805C65.7363 90.3307 65.3652 90.0996 65.0527 89.7871C64.7467 89.4681 64.5091 89.0612 64.3398 88.5664C64.1706 88.0651 64.0859 87.4629 64.0859 86.7598V79.9336H66.6641V86.7793C66.6641 87.1309 66.7031 87.4238 66.7812 87.6582C66.8659 87.8926 66.9798 88.0846 67.123 88.2344C67.2728 88.3776 67.4453 88.4818 67.6406 88.5469C67.8424 88.6055 68.0573 88.6348 68.2852 88.6348C68.9102 88.6348 69.4017 88.5111 69.7598 88.2637C70.1243 88.0098 70.3848 87.6712 70.541 87.248C70.6973 86.8184 70.7754 86.3366 70.7754 85.8027ZM81.1367 87.6094C81.1367 87.388 81.0781 87.1895 80.9609 87.0137C80.8438 86.8379 80.6224 86.6784 80.2969 86.5352C79.9779 86.3854 79.5091 86.2454 78.8906 86.1152C78.3438 85.998 77.8392 85.8516 77.377 85.6758C76.9147 85.5 76.5176 85.2884 76.1855 85.041C75.8535 84.7871 75.5931 84.4909 75.4043 84.1523C75.222 83.8073 75.1309 83.4102 75.1309 82.9609C75.1309 82.5247 75.2253 82.1146 75.4141 81.7305C75.6029 81.3398 75.8763 80.998 76.2344 80.7051C76.5924 80.4056 77.0286 80.1712 77.543 80.002C78.0573 79.8262 78.6367 79.7383 79.2812 79.7383C80.1797 79.7383 80.9512 79.8848 81.5957 80.1777C82.2467 80.4707 82.7448 80.8743 83.0898 81.3887C83.4349 81.8965 83.6074 82.4694 83.6074 83.1074H81.0293C81.0293 82.8275 80.9642 82.5736 80.834 82.3457C80.7103 82.1178 80.5182 81.9355 80.2578 81.7988C79.9974 81.6556 79.6686 81.584 79.2715 81.584C78.9134 81.584 78.6107 81.6426 78.3633 81.7598C78.1224 81.877 77.9401 82.0299 77.8164 82.2188C77.6927 82.4076 77.6309 82.6159 77.6309 82.8438C77.6309 83.013 77.6634 83.166 77.7285 83.3027C77.8001 83.4329 77.9141 83.5534 78.0703 83.6641C78.2266 83.7747 78.4382 83.8757 78.7051 83.9668C78.9785 84.0579 79.3138 84.1458 79.7109 84.2305C80.4987 84.3867 81.1855 84.5951 81.7715 84.8555C82.3639 85.1094 82.8262 85.4479 83.1582 85.8711C83.4902 86.2943 83.6562 86.8346 83.6562 87.4922C83.6562 87.9609 83.5553 88.3906 83.3535 88.7812C83.1517 89.1654 82.8587 89.5007 82.4746 89.7871C82.0905 90.0736 81.6315 90.2982 81.0977 90.4609C80.5638 90.6172 79.9616 90.6953 79.291 90.6953C78.321 90.6953 77.5007 90.5228 76.8301 90.1777C76.1595 89.8262 75.6517 89.3835 75.3066 88.8496C74.9616 88.3092 74.7891 87.7493 74.7891 87.1699H77.2598C77.2793 87.5801 77.39 87.9089 77.5918 88.1562C77.7936 88.4036 78.0475 88.5827 78.3535 88.6934C78.666 88.7975 78.9948 88.8496 79.3398 88.8496C79.7305 88.8496 80.0592 88.7975 80.3262 88.6934C80.5931 88.5827 80.7949 88.4362 80.9316 88.2539C81.0684 88.0651 81.1367 87.8503 81.1367 87.6094ZM88.3535 79.9336V90.5H85.7656V79.9336H88.3535ZM85.5898 77.1699C85.5898 76.7858 85.7201 76.4668 85.9805 76.2129C86.2474 75.959 86.6055 75.832 87.0547 75.832C87.5039 75.832 87.8587 75.959 88.1191 76.2129C88.3861 76.4668 88.5195 76.7858 88.5195 77.1699C88.5195 77.5475 88.3861 77.8633 88.1191 78.1172C87.8587 78.3711 87.5039 78.498 87.0547 78.498C86.6055 78.498 86.2474 78.3711 85.9805 78.1172C85.7201 77.8633 85.5898 77.5475 85.5898 77.1699ZM93.3438 82.1895V90.5H90.7656V79.9336H93.1875L93.3438 82.1895ZM92.9336 84.8359H92.1719C92.1784 84.0677 92.2826 83.3711 92.4844 82.7461C92.6862 82.1211 92.9694 81.584 93.334 81.1348C93.7051 80.6855 94.1445 80.3405 94.6523 80.0996C95.1602 79.8587 95.7266 79.7383 96.3516 79.7383C96.8594 79.7383 97.3184 79.8099 97.7285 79.9531C98.1387 80.0964 98.4902 80.3242 98.7832 80.6367C99.0827 80.9492 99.3105 81.3594 99.4668 81.8672C99.6296 82.3685 99.7109 82.987 99.7109 83.7227V90.5H97.1133V83.7031C97.1133 83.2214 97.0417 82.8405 96.8984 82.5605C96.7617 82.2806 96.5599 82.082 96.293 81.9648C96.0326 81.8477 95.7103 81.7891 95.3262 81.7891C94.929 81.7891 94.5807 81.8704 94.2812 82.0332C93.9883 82.1895 93.7409 82.4076 93.5391 82.6875C93.3438 82.9674 93.194 83.2897 93.0898 83.6543C92.9857 84.0189 92.9336 84.4128 92.9336 84.8359ZM106.732 90.6953C105.932 90.6953 105.212 90.5651 104.574 90.3047C103.936 90.0443 103.393 89.6829 102.943 89.2207C102.501 88.752 102.159 88.2083 101.918 87.5898C101.684 86.9648 101.566 86.2943 101.566 85.5781V85.1875C101.566 84.3737 101.684 83.6348 101.918 82.9707C102.152 82.3001 102.484 81.724 102.914 81.2422C103.344 80.7604 103.858 80.3893 104.457 80.1289C105.056 79.8685 105.717 79.7383 106.439 79.7383C107.188 79.7383 107.849 79.8652 108.422 80.1191C108.995 80.3665 109.473 80.7181 109.857 81.1738C110.242 81.6296 110.531 82.1764 110.727 82.8145C110.922 83.446 111.02 84.1458 111.02 84.9141V85.998H102.738V84.2207H108.48V84.0254C108.467 83.6152 108.389 83.2409 108.246 82.9023C108.103 82.5573 107.882 82.2839 107.582 82.082C107.283 81.8737 106.895 81.7695 106.42 81.7695C106.036 81.7695 105.701 81.8542 105.414 82.0234C105.134 82.1862 104.9 82.4206 104.711 82.7266C104.529 83.026 104.392 83.3841 104.301 83.8008C104.21 84.2174 104.164 84.6797 104.164 85.1875V85.5781C104.164 86.0208 104.223 86.431 104.34 86.8086C104.464 87.1862 104.643 87.515 104.877 87.7949C105.118 88.0684 105.404 88.2832 105.736 88.4395C106.075 88.5892 106.459 88.6641 106.889 88.6641C107.429 88.6641 107.917 88.5599 108.354 88.3516C108.796 88.1367 109.18 87.821 109.506 87.4043L110.805 88.752C110.583 89.0775 110.284 89.39 109.906 89.6895C109.535 89.9889 109.086 90.2331 108.559 90.4219C108.031 90.6042 107.423 90.6953 106.732 90.6953ZM118.559 87.6094C118.559 87.388 118.5 87.1895 118.383 87.0137C118.266 86.8379 118.044 86.6784 117.719 86.5352C117.4 86.3854 116.931 86.2454 116.312 86.1152C115.766 85.998 115.261 85.8516 114.799 85.6758C114.337 85.5 113.939 85.2884 113.607 85.041C113.275 84.7871 113.015 84.4909 112.826 84.1523C112.644 83.8073 112.553 83.4102 112.553 82.9609C112.553 82.5247 112.647 82.1146 112.836 81.7305C113.025 81.3398 113.298 80.998 113.656 80.7051C114.014 80.4056 114.451 80.1712 114.965 80.002C115.479 79.8262 116.059 79.7383 116.703 79.7383C117.602 79.7383 118.373 79.8848 119.018 80.1777C119.669 80.4707 120.167 80.8743 120.512 81.3887C120.857 81.8965 121.029 82.4694 121.029 83.1074H118.451C118.451 82.8275 118.386 82.5736 118.256 82.3457C118.132 82.1178 117.94 81.9355 117.68 81.7988C117.419 81.6556 117.09 81.584 116.693 81.584C116.335 81.584 116.033 81.6426 115.785 81.7598C115.544 81.877 115.362 82.0299 115.238 82.2188C115.115 82.4076 115.053 82.6159 115.053 82.8438C115.053 83.013 115.085 83.166 115.15 83.3027C115.222 83.4329 115.336 83.5534 115.492 83.6641C115.648 83.7747 115.86 83.8757 116.127 83.9668C116.4 84.0579 116.736 84.1458 117.133 84.2305C117.921 84.3867 118.607 84.5951 119.193 84.8555C119.786 85.1094 120.248 85.4479 120.58 85.8711C120.912 86.2943 121.078 86.8346 121.078 87.4922C121.078 87.9609 120.977 88.3906 120.775 88.7812C120.574 89.1654 120.281 89.5007 119.896 89.7871C119.512 90.0736 119.053 90.2982 118.52 90.4609C117.986 90.6172 117.383 90.6953 116.713 90.6953C115.743 90.6953 114.923 90.5228 114.252 90.1777C113.581 89.8262 113.074 89.3835 112.729 88.8496C112.383 88.3092 112.211 87.7493 112.211 87.1699H114.682C114.701 87.5801 114.812 87.9089 115.014 88.1562C115.215 88.4036 115.469 88.5827 115.775 88.6934C116.088 88.7975 116.417 88.8496 116.762 88.8496C117.152 88.8496 117.481 88.7975 117.748 88.6934C118.015 88.5827 118.217 88.4362 118.354 88.2539C118.49 88.0651 118.559 87.8503 118.559 87.6094ZM128.852 87.6094C128.852 87.388 128.793 87.1895 128.676 87.0137C128.559 86.8379 128.337 86.6784 128.012 86.5352C127.693 86.3854 127.224 86.2454 126.605 86.1152C126.059 85.998 125.554 85.8516 125.092 85.6758C124.63 85.5 124.232 85.2884 123.9 85.041C123.568 84.7871 123.308 84.4909 123.119 84.1523C122.937 83.8073 122.846 83.4102 122.846 82.9609C122.846 82.5247 122.94 82.1146 123.129 81.7305C123.318 81.3398 123.591 80.998 123.949 80.7051C124.307 80.4056 124.743 80.1712 125.258 80.002C125.772 79.8262 126.352 79.7383 126.996 79.7383C127.895 79.7383 128.666 79.8848 129.311 80.1777C129.962 80.4707 130.46 80.8743 130.805 81.3887C131.15 81.8965 131.322 82.4694 131.322 83.1074H128.744C128.744 82.8275 128.679 82.5736 128.549 82.3457C128.425 82.1178 128.233 81.9355 127.973 81.7988C127.712 81.6556 127.383 81.584 126.986 81.584C126.628 81.584 126.326 81.6426 126.078 81.7598C125.837 81.877 125.655 82.0299 125.531 82.2188C125.408 82.4076 125.346 82.6159 125.346 82.8438C125.346 83.013 125.378 83.166 125.443 83.3027C125.515 83.4329 125.629 83.5534 125.785 83.6641C125.941 83.7747 126.153 83.8757 126.42 83.9668C126.693 84.0579 127.029 84.1458 127.426 84.2305C128.214 84.3867 128.9 84.5951 129.486 84.8555C130.079 85.1094 130.541 85.4479 130.873 85.8711C131.205 86.2943 131.371 86.8346 131.371 87.4922C131.371 87.9609 131.27 88.3906 131.068 88.7812C130.867 89.1654 130.574 89.5007 130.189 89.7871C129.805 90.0736 129.346 90.2982 128.812 90.4609C128.279 90.6172 127.676 90.6953 127.006 90.6953C126.036 90.6953 125.215 90.5228 124.545 90.1777C123.874 89.8262 123.367 89.3835 123.021 88.8496C122.676 88.3092 122.504 87.7493 122.504 87.1699H124.975C124.994 87.5801 125.105 87.9089 125.307 88.1562C125.508 88.4036 125.762 88.5827 126.068 88.6934C126.381 88.7975 126.71 88.8496 127.055 88.8496C127.445 88.8496 127.774 88.7975 128.041 88.6934C128.308 88.5827 128.51 88.4362 128.646 88.2539C128.783 88.0651 128.852 87.8503 128.852 87.6094Z" fill="#1677FF"/>
<rect x="16.5" y="106" width="58" height="31" rx="15.5" stroke="#0066FF"/>
<path d="M29.3696 116.504H31.2876L34.6896 124.344H34.7456L38.1336 116.504H40.0516V126.5H38.4136V119.612H38.3576L35.4176 126.5H34.0036L31.0636 119.612H31.0076V126.5H29.3696V116.504ZM45.2361 119.066C46.3281 119.066 47.2101 119.416 47.8821 120.144C48.5401 120.858 48.8761 121.768 48.8761 122.888C48.8761 123.994 48.5401 124.904 47.8961 125.604C47.2241 126.332 46.3281 126.696 45.2361 126.696C44.1301 126.696 43.2481 126.332 42.5761 125.604C41.9181 124.904 41.5961 123.994 41.5961 122.888C41.5961 121.768 41.9181 120.858 42.5901 120.144C43.2481 119.416 44.1301 119.066 45.2361 119.066ZM45.2361 120.368C44.5641 120.368 44.0601 120.62 43.6961 121.152C43.3881 121.6 43.2341 122.188 43.2341 122.888C43.2341 123.588 43.3881 124.162 43.6961 124.61C44.0601 125.128 44.5641 125.394 45.2361 125.394C45.8941 125.394 46.4121 125.128 46.7761 124.61C47.0841 124.148 47.2521 123.574 47.2521 122.888C47.2521 122.188 47.0841 121.6 46.7761 121.152C46.4121 120.62 45.8941 120.368 45.2361 120.368ZM53.6867 119.066C54.0367 119.066 54.3447 119.122 54.5967 119.248V120.844C54.2327 120.732 53.8967 120.69 53.5607 120.69C53.1407 120.69 52.7627 120.844 52.4267 121.18C52.0347 121.558 51.8527 122.048 51.8527 122.664V126.5H50.2707V119.262H51.8527V120.298C52.0487 119.934 52.2727 119.654 52.5387 119.458C52.8607 119.192 53.2387 119.066 53.6867 119.066ZM58.587 119.066C59.777 119.066 60.687 119.458 61.317 120.27C61.891 120.998 62.185 122.02 62.185 123.322H56.767C56.823 123.994 57.005 124.512 57.313 124.862C57.621 125.212 58.069 125.394 58.643 125.394C59.133 125.394 59.525 125.282 59.833 125.058C60.071 124.876 60.281 124.582 60.477 124.176H62.073C61.905 124.848 61.569 125.422 61.065 125.87C60.421 126.416 59.623 126.696 58.657 126.696C57.579 126.696 56.725 126.36 56.095 125.702C55.423 125.016 55.087 124.078 55.087 122.874C55.087 121.796 55.395 120.9 56.039 120.172C56.655 119.43 57.509 119.066 58.587 119.066ZM58.629 120.368C58.097 120.368 57.691 120.508 57.383 120.816C57.089 121.11 56.893 121.544 56.795 122.118H60.519C60.379 120.942 59.749 120.368 58.629 120.368Z" fill="#0066FF"/>
</g>
<path d="M12 0.5H331C337.351 0.5 342.5 5.64873 342.5 12V147C342.5 153.351 337.351 158.5 331 158.5H12C5.64873 158.5 0.5 153.351 0.5 147V12C0.5 5.64873 5.64873 0.5 12 0.5Z" stroke="white"/>
<defs>
<linearGradient id="paint0_linear_10328_6092" x1="171.5" y1="0" x2="171.5" y2="159" gradientUnits="userSpaceOnUse">
<stop stop-color="#DCEBFF"/>
<stop offset="1" stop-color="white"/>
</linearGradient>
<linearGradient id="paint1_linear_10328_6092" x1="38317.5" y1="9265.94" x2="38729.6" y2="13747.3" gradientUnits="userSpaceOnUse">
<stop stop-color="#6885EF" stop-opacity="0.43"/>
<stop offset="1" stop-color="#F9AEC5" stop-opacity="0.3"/>
</linearGradient>
<clipPath id="clip0_10328_6092">
<path d="M0 12C0 5.37258 5.37258 0 12 0H331C337.627 0 343 5.37258 343 12V147C343 153.627 337.627 159 331 159H12C5.37258 159 0 153.627 0 147V12Z" fill="white"/>
</clipPath>
<clipPath id="clip1_10328_6092">
<rect width="9.42382" height="9.42382" fill="white" transform="translate(239.792 60.2579) rotate(14.8332)"/>
</clipPath>
<clipPath id="clip2_10328_6092">
<rect width="7.06098" height="7.06098" fill="white" transform="translate(306.159 65.1934)"/>
</clipPath>
<clipPath id="clip3_10328_6092">
<rect width="7.06098" height="7.06098" fill="white" transform="translate(277.032 68.7247)"/>
</clipPath>
<clipPath id="clip4_10328_6092">
<rect width="7.06098" height="7.06098" fill="white" transform="translate(318.81 79.3155)"/>
</clipPath>
<clipPath id="clip5_10328_6092">
<rect width="11.7683" height="11.7683" fill="white" transform="translate(234.078 40.0909) rotate(-9.6052)"/>
</clipPath>
</defs>
</svg>
