<svg width="41" height="40" viewBox="0 0 41 40" fill="none" xmlns="http://www.w3.org/2000/svg">
<rect width="40" height="40" rx="20" transform="matrix(-1 0 0 1 40.75 0)" fill="#1677FF"/>
<path fill-rule="evenodd" clip-rule="evenodd" d="M26.7497 13H14.75C14.1977 13 13.75 13.4477 13.75 14C13.75 14.5523 14.1977 15 14.75 15H24.3356L14.7094 24.6262C14.3189 25.0168 14.3189 25.6499 14.7094 26.0404C15.0999 26.431 15.7331 26.431 16.1236 26.0404L25.75 16.4141V26C25.75 26.5523 26.1977 27 26.75 27C27.3023 27 27.75 26.5523 27.75 26V14C27.75 13.4477 27.3023 13 26.75 13H26.7497Z" fill="white"/>
</svg>
