<svg width="61" height="16" viewBox="0 0 61 16" fill="none" xmlns="http://www.w3.org/2000/svg">
<g id="CPcash">
<path id="Vector" d="M52.5335 0.854492H54.6543L54.1748 4.80093H56.6828C59.2277 4.80093 60.5002 5.96888 60.5002 8.30478C60.5002 8.58754 60.4817 8.8949 60.4448 9.22684L59.7256 15.0727H57.6049L58.3241 9.17152C58.3487 8.92564 58.361 8.75352 58.361 8.65516C58.361 7.40115 57.7217 6.77415 56.4431 6.77415H53.9351L52.9208 15.0727H50.8L52.5335 0.854492Z" fill="#0066FF"/>
<path id="Vector_2" d="M44.5189 15.1463C43.3878 15.1218 42.4104 15.0726 41.5867 14.9988L41.8633 13.0072C43.0682 13.1178 44.0333 13.1854 44.7586 13.21H45.3856C46.1725 13.21 46.7196 13.1117 47.0269 12.915C47.3466 12.7182 47.5433 12.4355 47.617 12.0667C47.6293 12.0052 47.6355 11.9191 47.6355 11.8085C47.6355 11.5011 47.5863 11.2983 47.4879 11.1999C47.4019 11.0647 47.2605 10.9725 47.0638 10.9233C46.8671 10.8741 46.4921 10.8188 45.9389 10.7573L45.5147 10.702C44.8754 10.6528 44.2669 10.5422 43.689 10.3701C43.2342 10.1979 42.8961 9.95205 42.6748 9.6324C42.4535 9.30046 42.3428 8.86401 42.3428 8.32307C42.3428 8.21242 42.3551 8.02186 42.3797 7.75139C42.4658 7.00144 42.6809 6.41747 43.0252 5.99947C43.3694 5.56917 43.8489 5.26181 44.4636 5.0774C45.0783 4.89299 45.8713 4.80078 46.8425 4.80078H47.5986L50.1988 4.81922L49.9591 6.774H46.6028C46.0618 6.774 45.65 6.80474 45.3672 6.86621C45.0844 6.91538 44.8754 7.00759 44.7402 7.14283C44.6172 7.26577 44.5373 7.45018 44.5005 7.69607C44.4882 7.75754 44.482 7.83745 44.482 7.9358C44.482 8.13251 44.5373 8.29848 44.648 8.43372C44.7709 8.58125 44.9492 8.68575 45.1828 8.74722C45.4287 8.7964 45.8774 8.85787 46.529 8.93163C47.3035 9.0054 47.9367 9.12219 48.4285 9.28202C48.8587 9.42955 49.1845 9.68158 49.4058 10.0381C49.6394 10.3946 49.7562 10.8557 49.7562 11.4212C49.7562 11.6917 49.7439 11.9007 49.7193 12.0482C49.5718 13.1916 49.1415 13.9907 48.4285 14.4456C47.7154 14.9128 46.6212 15.1463 45.1459 15.1463H44.5189Z" fill="#0066FF"/>
<path id="Vector_3" d="M34.8038 15.0726C33.8817 15.0726 33.1441 14.8144 32.5908 14.2981C32.0376 13.7694 31.761 13.0871 31.761 12.2511C31.761 12.0667 31.7671 11.9253 31.7794 11.8269C31.8901 11.0647 32.0868 10.4623 32.3695 10.0197C32.6523 9.56478 33.058 9.23899 33.5867 9.04228C34.1276 8.83328 34.8345 8.72878 35.7074 8.72878H38.8056L38.824 8.58125C38.8363 8.51978 38.8424 8.43372 38.8424 8.32307C38.8424 7.8436 38.6826 7.45633 38.363 7.16127C38.0433 6.86621 37.5454 6.71868 36.8692 6.71868H36.3898C35.2956 6.71868 34.312 6.74941 33.4391 6.81088L33.7158 4.92987L34.2506 4.89299C34.4473 4.88069 34.7915 4.86225 35.2833 4.83766C35.7873 4.81308 36.2238 4.80078 36.5926 4.80078H37.0905C38.3568 4.80078 39.3158 5.10199 39.9674 5.70441C40.619 6.30682 40.9448 7.11209 40.9448 8.12022C40.9448 8.23086 40.9325 8.42142 40.9079 8.6919L40.1518 15.0726H34.8038ZM33.8817 12.0482C33.8817 12.4047 33.9801 12.6814 34.1768 12.8781C34.3858 13.0625 34.6809 13.1547 35.062 13.1547H38.2708L38.5843 10.5729L35.523 10.5545C35.0558 10.5422 34.6809 10.6344 34.3981 10.8311C34.1276 11.0155 33.9616 11.3474 33.9002 11.8269L33.8817 12.0482Z" fill="#0066FF"/>
<path id="Vector_4" d="M28.2438 6.774C27.4816 6.774 26.8976 6.97686 26.4919 7.38256C26.0985 7.78827 25.8526 8.39069 25.7542 9.18981L25.5698 10.7758C25.5452 11.0216 25.5329 11.1999 25.5329 11.3106C25.5329 12.5523 26.1661 13.1731 27.4324 13.1731H28.1516C28.7048 13.1731 29.6331 13.1178 30.9362 13.0072L30.7334 14.9804C29.6515 15.091 28.7233 15.1463 27.9487 15.1463H27.1927C24.6478 15.1463 23.3753 13.9907 23.3753 11.6794C23.3753 11.372 23.3937 11.0524 23.4306 10.7204L23.615 9.24513C23.7995 7.76983 24.2912 6.66335 25.0903 5.9257C25.8895 5.17575 27.0205 4.80078 28.4835 4.80078H29.1659L31.7477 4.83766L31.5079 6.79244L28.2438 6.774Z" fill="#0066FF"/>
<path id="Vector_5" d="M18.9637 1.22363C20.2423 1.23593 21.2258 1.54328 21.9143 2.1457C22.6151 2.73582 22.9654 3.59027 22.9654 4.70904C22.9654 5.01639 22.9531 5.25613 22.9286 5.42825L22.8179 6.36876C22.6458 7.72112 22.1294 8.75998 21.2688 9.48534C20.4082 10.1984 19.2587 10.5611 17.8203 10.5734H14.0583L13.5051 15.0731H11.329L13.0256 1.22363H18.9637ZM18.1154 8.54483C18.8776 8.53254 19.4616 8.36656 19.8673 8.04692C20.273 7.71497 20.525 7.19247 20.6234 6.4794L20.7709 5.35448C20.7832 5.26843 20.7894 5.15163 20.7894 5.0041C20.7894 4.40168 20.6234 3.96524 20.2915 3.69477C19.9718 3.412 19.4677 3.26447 18.7793 3.25218H14.9619L14.298 8.54483H18.1154Z" fill="#0066FF"/>
<path id="Vector_6" d="M7.54444 1.22363C8.0608 1.22363 8.79845 1.23593 9.7574 1.26051L10.9008 1.27896L10.6241 3.32594L9.55454 3.28906C8.32512 3.26447 7.55673 3.25218 7.24938 3.25218H6.43796C5.31919 3.25218 4.48318 3.53494 3.92994 4.10048C3.389 4.66601 3.03247 5.58193 2.86035 6.84823L2.5284 9.52222C2.47923 10.014 2.45464 10.3582 2.45464 10.5549C2.45464 11.4524 2.66364 12.104 3.08164 12.5097C3.51194 12.9154 4.21271 13.1183 5.18395 13.1183H6.06913C6.72073 13.1183 7.77803 13.0752 9.24104 12.9892L9.70207 12.9707L9.55454 14.9993C8.34971 15.0976 7.12644 15.1468 5.88472 15.1468H4.99954C3.3767 15.1345 2.18417 14.7841 1.42193 14.0957C0.659685 13.4072 0.278564 12.3253 0.278564 10.85C0.278564 10.4689 0.3093 9.9894 0.370771 9.41157L0.647391 6.95888C0.905569 4.95492 1.51413 3.50421 2.47308 2.60673C3.44432 1.69696 4.8643 1.23593 6.73302 1.22363H7.54444Z" fill="#0066FF"/>
</g>
</svg>
