<svg width="25" height="24" viewBox="0 0 25 24" fill="none" xmlns="http://www.w3.org/2000/svg">
<path d="M10.8371 12.0002C13.1603 12.0002 15.0437 10.1169 15.0437 7.79368C15.0437 5.47048 13.1603 3.58716 10.8371 3.58716C8.51394 3.58716 6.63062 5.47048 6.63062 7.79368C6.63062 10.1169 8.51394 12.0002 10.8371 12.0002Z" fill="white"/>
<path d="M22.0544 12.0002C22.0565 11.4143 21.9011 10.8385 21.6046 10.3331C21.308 9.82765 20.8812 9.41116 20.3686 9.12711C19.8561 8.84306 19.2767 8.70189 18.6909 8.71833C18.1052 8.73477 17.5346 8.90823 17.0388 9.22059C16.543 9.53294 16.1402 9.97273 15.8724 10.494C15.6047 11.0152 15.4819 11.5988 15.5168 12.1838C15.5517 12.7687 15.7431 13.3336 16.071 13.8192C16.3988 14.3049 16.8511 14.6937 17.3805 14.9448V19.9459L18.7827 21.3481L21.1197 19.0111L19.7175 17.6089L21.1197 16.2068L19.9605 15.0476C20.5762 14.8101 21.1056 14.3919 21.4792 13.8481C21.8529 13.3042 22.0534 12.6601 22.0544 12.0002ZM18.7827 12.0002C18.5978 12.0002 18.4171 11.9454 18.2634 11.8427C18.1096 11.74 17.9898 11.594 17.9191 11.4232C17.8483 11.2524 17.8298 11.0644 17.8659 10.8831C17.902 10.7018 17.991 10.5352 18.1217 10.4045C18.2524 10.2737 18.419 10.1847 18.6003 10.1486C18.7817 10.1126 18.9696 10.1311 19.1404 10.2018C19.3112 10.2726 19.4572 10.3924 19.56 10.5461C19.6627 10.6999 19.7175 10.8806 19.7175 11.0655C19.7175 11.3134 19.619 11.5512 19.4437 11.7265C19.2684 11.9018 19.0306 12.0002 18.7827 12.0002Z" fill="white"/>
<path d="M14.5202 13.8884C13.8024 13.5684 13.0253 13.4028 12.2393 13.4023H9.43499C7.94747 13.4023 6.52088 13.9933 5.46904 15.0451C4.41721 16.0969 3.82629 17.5235 3.82629 19.011V20.8806H15.9785V15.73C15.3481 15.2457 14.8471 14.6131 14.5202 13.8884V13.8884Z" fill="white"/>
</svg>
