<svg width="24" height="24" viewBox="0 0 24 24" fill="none" xmlns="http://www.w3.org/2000/svg">
<path d="M11.0841 14.8933L16.4466 9.53069L15.3859 8.47004L11.0841 12.772L8.61398 10.3018L7.55332 11.3625L11.0841 14.8933Z" fill="#0066FF"/>
<path d="M3.75004 3L3.75 13.5001C3.75 15.6247 4.86473 17.5936 6.68657 18.6867L11.9997 21.8747L17.3134 18.6866C19.1353 17.5936 20.2501 15.6247 20.2501 13.5001L20.2501 3H3.75004ZM5.25 13.5001L5.25004 4.5H18.7501L18.7501 13.5001C18.7501 15.0978 17.9118 16.5784 16.5417 17.4004L11.9997 20.1254L7.45834 17.4005C6.08829 16.5784 5.25 15.0978 5.25 13.5001Z" fill="#0066FF"/>
</svg>
