<svg width="32" height="32" viewBox="0 0 32 32" fill="none" xmlns="http://www.w3.org/2000/svg">
<rect x="0.25" y="0.25" width="31.5" height="31.5" rx="15.75" fill="white"/>
<rect x="0.25" y="0.25" width="31.5" height="31.5" rx="15.75" stroke="#EEEEEE" stroke-width="0.5"/>
<path d="M28 4H4V28H28V4Z" fill="white"/>
<path d="M24.6478 6.6742L17.1525 12.2411L18.5386 8.95669L24.6478 6.6742Z" fill="#E2761B"/>
<path d="M7.34463 6.6742L14.7797 12.2938L13.4614 8.95669L7.34463 6.6742Z" fill="#E4761B"/>
<path d="M21.9511 19.5781L19.9548 22.6365L24.226 23.8117L25.4539 19.6459L21.9511 19.5781Z" fill="#E4761B"/>
<path d="M6.55368 19.6459L7.77401 23.8117L12.0452 22.6365L10.049 19.5781L6.55368 19.6459Z" fill="#E4761B"/>
<path d="M11.8041 14.4105L10.6139 16.2109L14.855 16.3993L14.7043 11.8418L11.8041 14.4105Z" fill="#E4761B"/>
<path d="M20.1883 14.4105L17.2505 11.7891L17.1525 16.3993L21.386 16.2109L20.1883 14.4105Z" fill="#E4761B"/>
<path d="M12.0452 22.6365L14.5914 21.3936L12.3917 19.6761L12.0452 22.6365Z" fill="#E4761B"/>
<path d="M17.4012 21.3936L19.9548 22.6365L19.6008 19.6761L17.4012 21.3936Z" fill="#E4761B"/>
<path d="M19.9548 22.6365L17.4012 21.3936L17.6045 23.0584L17.5819 23.7589L19.9548 22.6365Z" fill="#D7C1B3"/>
<path d="M12.0452 22.6365L14.4181 23.7589L14.403 23.0584L14.5914 21.3936L12.0452 22.6365Z" fill="#D7C1B3"/>
<path d="M14.4558 18.5762L12.3314 17.951L13.8305 17.2656L14.4558 18.5762Z" fill="#233447"/>
<path d="M17.5367 18.5762L18.162 17.2656L19.6686 17.951L17.5367 18.5762Z" fill="#233447"/>
<path d="M12.0452 22.6365L12.4068 19.5781L10.049 19.6459L12.0452 22.6365Z" fill="#CD6116"/>
<path d="M19.5932 19.5781L19.9548 22.6365L21.9511 19.6459L19.5932 19.5781Z" fill="#CD6116"/>
<path d="M21.386 16.2109L17.1525 16.3993L17.5442 18.5763L18.1695 17.2656L19.6761 17.951L21.386 16.2109Z" fill="#CD6116"/>
<path d="M12.3314 17.951L13.838 17.2656L14.4558 18.5762L14.855 16.3993L10.6139 16.2109L12.3314 17.951Z" fill="#CD6116"/>
<path d="M10.6139 16.2109L12.3917 19.6761L12.3314 17.951L10.6139 16.2109Z" fill="#E4751F"/>
<path d="M19.6761 17.951L19.6008 19.6761L21.386 16.2109L19.6761 17.951Z" fill="#E4751F"/>
<path d="M14.855 16.3993L14.4558 18.5762L14.9529 21.145L15.0659 17.7627L14.855 16.3993Z" fill="#E4751F"/>
<path d="M17.1525 16.3993L16.9491 17.7552L17.0395 21.145L17.5442 18.5763L17.1525 16.3993Z" fill="#E4751F"/>
<path d="M17.5442 18.5763L17.0395 21.145L17.4012 21.3936L19.6008 19.6761L19.6761 17.951L17.5442 18.5763Z" fill="#F6851B"/>
<path d="M12.3314 17.951L12.3917 19.6761L14.5914 21.3936L14.9529 21.145L14.4558 18.5762L12.3314 17.951Z" fill="#F6851B"/>
<path d="M17.5819 23.7589L17.6045 23.0584L17.4162 22.8926H14.5763L14.403 23.0584L14.4181 23.7589L12.0452 22.6365L12.8738 23.3145L14.5537 24.4821H17.4388L19.1262 23.3145L19.9548 22.6365L17.5819 23.7589Z" fill="#C0AD9E"/>
<path d="M17.4012 21.3936L17.0395 21.145H14.9529L14.5914 21.3936L14.403 23.0584L14.5763 22.8926H17.4162L17.6045 23.0584L17.4012 21.3936Z" fill="#161616"/>
<path d="M24.9643 12.6026L25.6045 9.52919L24.6478 6.6742L17.4012 12.0527L20.1883 14.4105L24.128 15.5631L25.0019 14.5461L24.6253 14.2749L25.2278 13.7251L24.7609 13.3634L25.3634 12.9039L24.9643 12.6026Z" fill="#763D16"/>
<path d="M6.39547 9.52919L7.03578 12.6026L6.629 12.9039L7.23163 13.3634L6.77213 13.7251L7.37476 14.2749L6.99811 14.5461L7.8644 15.5631L11.8041 14.4105L14.5914 12.0527L7.34463 6.6742L6.39547 9.52919Z" fill="#763D16"/>
<path d="M24.128 15.5631L20.1883 14.4105L21.386 16.2109L19.6008 19.6761L21.9511 19.6459H25.4539L24.128 15.5631Z" fill="#F6851B"/>
<path d="M11.8041 14.4105L7.8644 15.5631L6.55368 19.6459H10.049L12.3917 19.6761L10.6139 16.2109L11.8041 14.4105Z" fill="#F6851B"/>
<path d="M17.1525 16.3993L17.4012 12.0527L18.5461 8.95669H13.4614L14.5914 12.0527L14.855 16.3993L14.9454 17.7703L14.9529 21.145H17.0395L17.0546 17.7703L17.1525 16.3993Z" fill="#F6851B"/>
</svg>
