<svg width="48" height="48" viewBox="0 0 48 48" fill="none" xmlns="http://www.w3.org/2000/svg">
<g clip-path="url(#clip0_6551_23148)">
<path d="M24 48C37.2548 48 48 37.2548 48 24C48 10.7452 37.2548 0 24 0C10.7452 0 0 10.7452 0 24C0 37.2548 10.7452 48 24 48Z" fill="#EF0027"/>
<path d="M32.898 14.8693L11.25 10.8853L22.6425 39.5533L38.517 20.2123L32.898 14.8693ZM32.55 16.6243L35.862 19.7728L26.805 21.4123L32.55 16.6243ZM24.837 21.0838L15.291 13.1668L30.894 16.0378L24.837 21.0838ZM24.1575 22.4848L22.6005 35.3548L14.208 14.2303L24.1575 22.4833V22.4848ZM25.5975 23.1673L35.628 21.3523L24.123 35.3668L25.5975 23.1673Z" fill="white"/>
</g>
<defs>
<clipPath id="clip0_6551_23148">
<rect width="48" height="48" fill="white"/>
</clipPath>
</defs>
</svg>
