<svg width="32" height="33" viewBox="0 0 32 33" fill="none" xmlns="http://www.w3.org/2000/svg">
<g clip-path="url(#clip0_11542_19177)">
<rect y="0.5" width="32" height="32" fill="#0066FF"/>
<path d="M25.3438 19.73C23.9777 22.6929 20.9794 24.75 17.5004 24.75C17.0493 24.75 16.6061 24.7156 16.1735 24.6481C15.9494 24.6136 15.7283 24.5707 15.5103 24.5189C15.4823 24.5124 15.4543 24.5056 15.4263 24.4987C14.2111 24.1994 13.0971 23.6427 12.1459 22.89C11.5813 22.443 11.0736 21.9272 10.6365 21.3548L5.40625 16.0362L11.0275 10.4193L11.7901 9.65732C12.815 8.75321 14.0562 8.08842 15.4263 7.75091C15.4543 7.7441 15.4823 7.73728 15.5103 7.7308C15.7283 7.67932 15.9494 7.63603 16.1735 7.60193C16.6061 7.53443 17.0493 7.5 17.5004 7.5C20.9442 7.5 23.9173 9.51549 25.3018 12.4303L21.7549 15.9741L17.5004 11.7233L16.1735 13.0491L15.5103 13.7118L13.1613 16.059L15.5103 18.4069L17.5004 20.3951L21.7549 16.1439L25.3438 19.73Z" fill="white"/>
</g>
<defs>
<clipPath id="clip0_11542_19177">
<rect y="0.5" width="32" height="32" rx="16" fill="white"/>
</clipPath>
</defs>
</svg>
