<svg width="343" height="158" viewBox="0 0 343 158" fill="none" xmlns="http://www.w3.org/2000/svg">
<g clip-path="url(#clip0_19334_49869)">
<rect y="-0.5" width="343" height="159" rx="12" fill="url(#paint0_linear_19334_49869)"/>
<g clip-path="url(#clip1_19334_49869)">
<path d="M282.303 133.727L282.236 133.993L282.08 134.282L281.77 134.571L280.592 135.215L278.46 135.903L276.55 136.303L274.151 136.703L271.618 136.992L268.709 137.214L265.688 137.347L262.423 137.414L259.157 137.347L256.136 137.214L253.227 136.992L250.672 136.703L248.295 136.303L246.385 135.903L244.231 135.215L243.053 134.571L242.765 134.282L242.587 133.993L242.542 133.727L242.587 133.46L242.765 133.193L243.053 132.882L244.231 132.238L246.385 131.55L248.295 131.15L250.672 130.772L253.227 130.461L256.136 130.239L259.157 130.106L262.423 130.062L265.688 130.106L268.709 130.239L271.618 130.461L274.151 130.772L276.55 131.15L278.46 131.55L280.592 132.238L281.77 132.882L282.08 133.193L282.236 133.46L282.303 133.727Z" fill="#F3F3F3"/>
<path d="M222.97 93.1072L224.293 94.4776L225.545 95.6353L226.75 96.5804L227.908 97.3601L229.137 98.0453L230.342 98.5887L231.523 98.9904L232.657 99.2503L233.839 99.4393L234.996 99.4866L236.154 99.463L237.312 99.3212L238.824 99.014L240.36 98.5887L241.919 98.0217L244.187 97.0057L246.527 95.8007L253.568 91.9022L256.001 90.6735L257.679 89.9647L259.356 89.374L261.01 88.9487L262.688 88.6416L264.389 88.4526L266.066 88.358L267.768 88.3817L269.469 88.4762L271.713 88.7597L273.958 89.1378L276.203 89.6339L279.534 90.5318L292.08 94.5012L294.916 95.2336L296.806 95.6117L298.578 95.8243L300.232 95.9188L301.484 95.8716L302.665 95.7298L303.799 95.4463L304.886 95.0682L305.69 94.6902L306.493 94.2177L307.249 93.627L307.982 92.9418L308.714 92.1384L309.446 91.0988L310.108 89.9647L310.651 88.7125L311.1 87.3184L311.431 85.9244L311.644 84.4595L311.786 82.8765L311.833 81.1989L311.597 77.8438L310.982 74.2525L310.014 70.6375L308.667 66.9516L307.863 65.1323L305.997 61.5409L304.934 59.7688L303.799 58.044L302.594 56.3901L301.295 54.7834L299.925 53.2004L298.46 51.7119L296.948 50.2942L295.341 48.9711L293.687 47.7425L291.655 46.3957L289.599 45.1907L287.544 44.1511L285.488 43.2296L283.409 42.4499L281.33 41.7883L279.227 41.2449L277.077 40.8432L274.903 40.5361L272.706 40.3471L270.438 40.2998L268.146 40.3471L265.807 40.5361L263.42 40.8432L260.727 41.3158L257.962 41.9301L255.103 42.7098L252.174 43.6549L249.126 44.7654L245.983 46.0649L244.187 46.8919L240.643 48.8293L238.895 49.9162L236.65 51.4992L234.477 53.1768L232.397 54.9961L230.413 56.9099L228.546 58.8946L226.821 60.9502L225.593 62.5569L223.395 65.8411L221.552 69.1962L220.796 70.8974L220.135 72.5985L219.568 74.2997L219.119 76.0245L218.788 77.7257L218.599 79.3796L218.504 81.0335L218.552 82.6875L218.741 84.2941L219.071 85.8772L219.544 87.4129L220.017 88.5943L220.607 89.7521L221.269 90.9098L222.072 92.0203L222.97 93.1072Z" fill="#DFE5FC"/>
<g clip-path="url(#clip2_19334_49869)">
<path d="M249.939 73.5656C254.961 73.5656 259.033 69.494 259.033 64.4713C259.033 59.4486 254.961 55.377 249.939 55.377C244.916 55.377 240.844 59.4486 240.844 64.4713C240.844 69.494 244.916 73.5656 249.939 73.5656Z" fill="white"/>
<path d="M256.613 63.0726C256.523 62.636 256.39 62.2093 256.216 61.7988C256.045 61.3945 255.835 61.0076 255.59 60.6433C255.347 60.2834 255.069 59.9478 254.762 59.6412C254.455 59.3335 254.119 59.0562 253.759 58.8131C253.394 58.5691 253.007 58.3594 252.604 58.1867C251.77 57.8328 250.872 57.6504 249.966 57.6504C249.06 57.6504 248.163 57.8328 247.328 58.1867C246.521 58.527 245.788 59.0212 245.171 59.6418C244.863 59.9482 244.586 60.2836 244.342 60.6433C244.098 61.0083 243.889 61.3952 243.716 61.7988C243.362 62.6333 243.18 63.5304 243.18 64.4368C243.18 65.3431 243.362 66.2403 243.716 67.0747C243.883 67.4783 244.099 67.8608 244.342 68.2297C244.585 68.5898 244.863 68.9255 245.171 69.2323C245.477 69.54 245.813 69.8174 246.173 70.0605C246.535 70.3038 246.925 70.5129 247.328 70.6868C248.163 71.0408 249.06 71.2231 249.966 71.2231C250.872 71.2231 251.77 71.0408 252.604 70.6868C253.008 70.5197 253.39 70.3038 253.759 70.0605C254.119 69.8174 254.455 69.54 254.762 69.2323C255.069 68.9256 255.347 68.5898 255.59 68.2297C255.833 67.8682 256.042 67.4783 256.216 67.0747C256.752 65.8119 256.89 64.416 256.613 63.0726ZM249.972 70.3737C246.694 70.3737 244.043 67.7147 244.043 64.4436C244.043 61.1725 246.702 58.5135 249.972 58.5135C253.243 58.5135 255.902 61.1725 255.902 64.4436C255.902 67.7147 253.244 70.3737 249.972 70.3737Z" fill="#292929"/>
<path d="M250.077 69.8587H250.238C250.265 69.8587 250.293 69.8587 250.321 69.8513H250.328C250.356 69.8513 250.376 69.8513 250.404 69.8445H250.425C250.446 69.8445 250.467 69.8445 250.488 69.8376H250.509C250.53 69.8376 250.551 69.8308 250.579 69.8308H250.592C250.62 69.8308 250.648 69.8234 250.676 69.8234C250.704 69.8234 250.725 69.8166 250.753 69.8098H250.766C250.787 69.8098 250.808 69.803 250.829 69.803H250.843C250.871 69.7956 250.892 69.7956 250.92 69.7888C250.975 69.7819 251.031 69.7677 251.079 69.7541H251.094C251.114 69.7473 251.142 69.7473 251.163 69.7399H251.17C251.226 69.7262 251.274 69.712 251.33 69.6984C250.809 69.7149 250.287 69.6658 249.778 69.5523C249.012 69.3852 248.282 69.0862 247.662 68.5707C247.174 68.1642 246.782 67.6543 246.515 67.0777C246.247 66.5012 246.112 65.8725 246.117 65.2371C246.122 64.2891 246.46 63.3729 247.071 62.648C247.864 61.7084 248.992 61.2139 250.147 61.1861H250.307V60.2607H250.126C249.775 60.2672 249.425 60.3091 249.082 60.3858C248.737 60.4638 248.401 60.5781 248.08 60.7268C247.753 60.8803 247.446 61.0679 247.161 61.2839C246.866 61.508 246.598 61.7648 246.361 62.0495C246.137 62.3129 245.944 62.6 245.783 62.9055C245.624 63.2 245.496 63.5101 245.4 63.8308C245.306 64.1466 245.243 64.4708 245.212 64.7988L245.191 65.1046V65.2854C245.198 65.6406 245.24 65.9885 245.316 66.3295C245.393 66.6779 245.511 67.0116 245.657 67.3322C245.832 67.7147 246.145 68.2785 246.611 68.7031C247.563 69.4534 248.74 69.8605 249.952 69.8587H250.077Z" fill="#292929"/>
<path d="M251.594 68.9667C251.251 68.9544 250.909 68.9172 250.571 68.8553C249.138 68.5978 247.906 67.7208 247.454 66.3987C246.903 64.7907 247.746 63.0508 249.346 62.5222C249.651 62.42 249.971 62.3682 250.293 62.3687C250.704 62.3687 251.114 62.4523 251.49 62.6052L251.88 61.777C251.763 61.7301 251.644 61.6861 251.525 61.6452C251.126 61.52 250.711 61.4566 250.293 61.457C249.874 61.4578 249.458 61.5259 249.061 61.6588C248.554 61.826 248.088 62.0961 247.69 62.4523C247.499 62.623 247.324 62.8118 247.168 63.0161C247.015 63.2181 246.882 63.435 246.772 63.6635C246.547 64.123 246.415 64.622 246.382 65.1323C246.347 65.6609 246.416 66.1895 246.59 66.6908C246.768 67.2065 247.052 67.6787 247.426 68.076C247.767 68.4449 248.164 68.7234 248.643 68.9809C249.145 69.2452 249.764 69.3845 250.411 69.4754C250.829 69.5305 251.386 69.5447 251.713 69.5447C251.998 69.4402 252.116 69.3913 252.27 69.3288C252.402 69.2662 252.534 69.2037 252.666 69.127C252.799 69.0502 252.82 69.036 253.042 68.8905C253.062 68.8782 253.081 68.8641 253.098 68.8485C252.332 68.9809 252.137 68.9735 251.594 68.9667Z" fill="#292929"/>
<path d="M253.307 67.9309C253.091 67.9446 252.785 67.965 252.437 67.965C251.817 67.965 251.058 67.9099 250.412 67.6939C249.409 67.3603 248.463 66.5042 248.463 65.4459C248.462 65.1954 248.512 64.9473 248.607 64.7159C248.703 64.4844 248.843 64.2741 249.021 64.097C249.198 63.9198 249.408 63.7794 249.639 63.6836C249.871 63.5879 250.119 63.5387 250.37 63.5389C251.086 63.5389 251.706 63.9357 252.033 64.5132L252.861 64.1028C252.732 63.8583 252.565 63.6353 252.367 63.4417C252.105 63.1791 251.793 62.9708 251.451 62.8286C251.108 62.6865 250.74 62.6133 250.369 62.6133C249.998 62.6133 249.631 62.6865 249.288 62.8286C248.945 62.9708 248.634 63.1791 248.372 63.4417C248.109 63.7039 247.901 64.0152 247.759 64.358C247.617 64.7007 247.543 65.0681 247.543 65.4391C247.545 65.8279 247.629 66.2121 247.788 66.5668C247.933 66.8868 248.136 67.1863 248.393 67.4648C248.846 67.9514 249.465 68.3413 250.126 68.5641C250.759 68.7727 251.692 68.8495 252.597 68.7869C252.847 68.7659 253.035 68.7449 253.355 68.6755C253.664 68.4318 253.944 68.154 254.191 67.8474C253.975 67.8684 253.578 67.9099 253.307 67.9309Z" fill="#292929"/>
</g>
<path d="M301.79 89.1262L301.601 92.0797L301.625 93.6627L301.719 96.0255L301.956 98.3646L302.263 100.68L303.066 104.862L303.491 106.587L304.295 109.304L303.515 110.793L302.286 105.429L301.459 100.775L300.916 95.8128L300.798 93.4264V91.8434L301.01 89.0081L301.389 86.858L301.837 84.8024L302.405 82.8413L303.704 79.1318L305.523 75.0679L306.61 73.0123L308.571 69.6572L308.808 70.1061L307.437 72.4689L306.634 73.9811L304.956 77.7142L304.106 79.8407L303.373 82.038L302.712 84.3535L302.334 85.9365L301.79 89.1262Z" fill="#0DD058"/>
<path d="M307.296 94.8671L306.492 95.7649L305.807 96.7337L305.24 97.726L304.791 98.7656L304.13 100.892L303.822 102.522L303.681 104.082V105.594L303.752 106.917L304.106 109.138L306.587 104.909L307.65 103.397L309.28 101.412L311.218 99.5217L312.328 98.6475L315.471 96.521L317.125 95.2215L318.566 93.9456L319.913 92.5752L321.094 91.2285L322.086 89.8817L323.032 88.5113L324.496 85.8887L324.118 86.314L323.622 86.7393L322.937 87.1646L321.803 87.708L315.471 90.0471L313.699 90.7796L311.95 91.6065L310.273 92.528L309.209 93.2368L308.217 94.0165L307.296 94.8671Z" fill="#7795FF" fill-opacity="0.7"/>
<path d="M308.193 89.1257L307.532 89.8818L306.917 90.7323L305.901 92.7171L305.122 94.9144L304.696 96.6392L304.365 98.364L304.035 101.719V104.578L304.271 106.61L306.964 102.026L308.169 100.231L309.469 98.4349L310.958 96.6392L312.044 95.4815L313.202 94.3473L315.707 92.1736L316.864 91.0395L318.92 88.6531L319.794 87.4245L321.259 84.92L322.275 82.5336L322.629 81.3286L322.866 80.2181L322.96 79.2021L322.488 79.8637L321.873 80.478L321.117 81.0923L319.865 81.8721L313.344 85.2744L311.572 86.3613L310.438 87.1882L309.304 88.0861L308.193 89.1257Z" fill="#7795FF" fill-opacity="0.7"/>
<path d="M304.625 90.284L303.964 91.678L303.444 93.0956L303.042 94.5605L302.759 96.0255L302.57 97.4904L302.475 98.9316L302.522 101.767L302.924 105.004L303.278 106.658L304.082 109.351L304.672 107.438L305.476 105.24L306.421 102.996L307.531 100.68L308.713 98.3646L309.989 96.1672L311.784 93.4264L313.745 90.7329L314.69 89.1971L315.494 87.5905L316.226 85.9365L317.384 82.5814L318.093 80.0297L319.629 73.0596L319.345 73.7448L318.92 74.4536L318.353 75.2097L317.384 76.2729L311.808 81.4237L310.225 82.9358L308.713 84.5425L307.224 86.3146L306.303 87.5668L304.625 90.284Z" fill="#6785EF"/>
<path fill-rule="evenodd" clip-rule="evenodd" d="M321.968 48.3221L320.385 50.4249L318.542 53.0475L316.794 55.7174L315.494 57.9857L318.542 53.402L320.456 50.7557L322.252 48.4874L322.559 48.771L322.842 49.2435L323.055 49.9051L323.173 50.6139L323.22 51.559L323.15 52.7876L322.724 55.5048L322.275 57.3241L320.338 57.1115H319.44L318.731 57.206L320.243 57.3477L322.157 57.6785L321.047 61.2463L320.551 62.4749L318.991 61.6952L317.597 61.2699L318.849 61.8842L320.409 62.8057L319.794 64.0343L319.109 65.1448L317.55 67.1768L316.038 66.1135L314.644 65.452L315.849 66.2789L317.314 67.4367L316.369 68.4054L314.431 70.012L312.895 71.0517L311.43 71.8786L309.942 72.5638L308.619 73.0836L306.303 73.6979V70.3901L306.398 69.2087L306.823 66.9877L307.555 64.9794L308.028 63.9162L309.02 64.7904L309.706 65.5937L309.469 65.1212L309.091 64.5777L308.146 63.6326L309.209 61.6479L310.438 59.6632L311.761 57.7258L313.132 55.8828L313.959 56.6862L314.549 57.3714L314.053 56.5208L313.297 55.6702L314.289 54.4416L315.211 55.2921L315.849 56.0482L315.329 55.1268L314.478 54.2289L317.125 51.3227L318.377 50.1177L320.078 48.7473L320.952 48.2984L321.33 48.2275L321.968 48.3221Z" fill="#0DD058"/>
<path d="M293.828 45.6751V93.7806H293.048L269.043 78.3046L268.854 31.5459H269.917L293.828 45.6751Z" fill="#4F70E4"/>
<path d="M268.263 78.6827L268.854 31.5459L293.048 46.0768V93.7806L268.263 78.6827Z" fill="#6785EF"/>
<path d="M288.795 49.1722V97.2777H288.015L264.01 81.7781L263.821 35.043H264.884L288.795 49.1722Z" fill="#B2C3FF"/>
<path d="M263.23 82.1797L263.821 35.043L288.016 49.5502V97.2777L263.23 82.1797Z" fill="#E8EDFF"/>
<path d="M265.167 47.3294V39.3906L286.574 51.8659V60.2064L265.167 47.3294Z" fill="white" fill-opacity="0.3"/>
<path d="M269.468 45.2028L269.397 46.1479L269.113 46.9512L268.806 47.3529L268.475 47.5892L268.145 47.6837L267.79 47.6128L267.459 47.4001L267.129 46.9985L266.94 46.6441L266.703 45.7698L266.68 44.8011L266.869 43.9269L267.034 43.5489L267.341 43.1236L267.648 42.8873L268.003 42.8164L268.357 42.8873L268.688 43.0999L269.019 43.5016L269.35 44.2813L269.468 45.2028Z" fill="white"/>
<path d="M270.602 45.2028V44.5176L277.477 48.676V49.3612L270.602 45.2028Z" fill="#B2C3FF"/>
<path d="M270.602 48.5817V47.8965L274.476 50.3301V50.9917L270.602 48.5817Z" fill="#B2C3FF"/>
<path d="M270.602 46.8334V46.1719L279.604 51.6771V52.3623L270.602 46.8334Z" fill="#B2C3FF"/>
<path d="M269.468 54.7967L269.397 55.7182L269.114 56.5215L268.806 56.9468L268.476 57.1831L268.145 57.254L267.79 57.2067L267.46 56.9704L267.129 56.5688L266.798 55.7891L266.656 54.8676L266.751 53.9225L267.034 53.1428L267.341 52.7175L267.649 52.4812L268.003 52.3867L268.357 52.4576L268.688 52.6702L269.019 53.0719L269.35 53.8516L269.468 54.7967Z" fill="white"/>
<path d="M270.602 54.7719V54.1104L277.477 58.2688V58.9304L270.602 54.7719Z" fill="#B2C3FF"/>
<path d="M270.602 58.1745V57.4893L274.476 59.8993V60.5845L270.602 58.1745Z" fill="#B2C3FF"/>
<path d="M270.602 56.4254V55.7402L279.604 61.2691V61.9306L270.602 56.4254Z" fill="#B2C3FF"/>
<path d="M265.167 66.7748V58.8359L286.574 71.3349V79.6517L265.167 66.7748Z" fill="white" fill-opacity="0.3"/>
<path d="M269.468 64.6717L269.444 65.3333L269.326 65.9003L269.09 66.4202L268.617 66.9872L268.145 67.129L267.649 67.0108L267.129 66.4674L266.893 65.9712L266.727 65.4042L266.656 64.7426L266.751 63.7975L267.034 63.0178L267.341 62.5925L267.649 62.3562L268.003 62.2617L268.357 62.3326L268.688 62.5452L269.019 62.9469L269.35 63.7266L269.468 64.6717Z" fill="white"/>
<path d="M270.602 64.6481V63.9629L277.477 68.1449V68.8065L270.602 64.6481Z" fill="#B2C3FF"/>
<path d="M270.602 68.0268V67.3652L274.476 69.7752V70.4604L270.602 68.0268Z" fill="#B2C3FF"/>
<path d="M270.602 66.3014V65.6162L279.604 71.145V71.8066L270.602 66.3014Z" fill="#B2C3FF"/>
<path d="M265.167 76.6507V68.7119L286.574 81.2108V89.5277L265.167 76.6507Z" fill="white" fill-opacity="0.3"/>
<path d="M269.468 74.5241L269.444 75.1856L269.326 75.7763L269.09 76.2725L268.83 76.6505L268.381 76.9577L267.885 76.9813L267.412 76.6978L267.129 76.3434L266.893 75.8472L266.727 75.2802L266.656 74.6186L266.704 73.957L266.822 73.3663L267.034 72.8701L267.294 72.4921L267.767 72.185L268.003 72.1377L268.499 72.2795L268.995 72.7993L269.255 73.3191L269.397 73.8861L269.468 74.5241Z" fill="white"/>
<path d="M270.602 74.525V73.8398L277.477 77.9983V78.6835L270.602 74.525Z" fill="#B2C3FF"/>
<path d="M270.602 77.9038V77.2422L274.476 79.6522V80.3374L270.602 77.9038Z" fill="#B2C3FF"/>
<path d="M270.602 76.1784V75.4932L279.604 80.9984V81.6836L270.602 76.1784Z" fill="#B2C3FF"/>
<path d="M283.148 83.2429L282.982 84.0699L283.833 85.6529L285.298 83.2429L285.227 82.1797L283.833 84.6606L283.148 83.2429Z" fill="#C4C4C4"/>
<path d="M290.071 84.3531L290.048 85.2982L289.812 87.0939L289.575 87.9445L288.937 89.433L288.512 90.0946L288.063 90.6144L287.567 91.016L287.047 91.3232L286.504 91.5358L285.937 91.6067L285.37 91.5595L284.826 91.3941L284.259 91.1106L283.763 90.7325L283.29 90.2363L282.818 89.5984L282.109 88.1571L281.825 87.3065L281.471 85.5345L281.424 84.5894V83.6443L281.66 81.8486L281.896 80.998L282.534 79.5095L282.96 78.8715L283.432 78.3517L283.905 77.9264L284.425 77.6193L284.968 77.4303L285.535 77.3594L286.102 77.383L286.645 77.5484L287.213 77.8556L287.709 78.2336L288.181 78.7298L288.654 79.3441L289.386 80.7854L289.646 81.6359L290.001 83.408L290.071 84.3531Z" fill="#47FD8D"/>
<path d="M289.315 84.3531L289.291 85.2982L289.055 87.0939L288.818 87.9445L288.181 89.433L287.755 90.0946L287.306 90.6144L286.834 91.016L286.29 91.3232L285.747 91.5358L285.18 91.6067L284.613 91.5595L284.069 91.3941L283.526 91.1106L283.03 90.7325L282.534 90.2363L282.061 89.5984L281.352 88.1571L281.069 87.3065L280.738 85.5345L280.667 84.5894L280.762 82.7228L281.14 80.998L281.447 80.2183L281.801 79.5095L282.226 78.8715L282.675 78.3517L283.148 77.9264L283.691 77.6193L284.235 77.4303L284.802 77.3594L285.345 77.383L285.912 77.5484L286.456 77.8556L286.952 78.2336L287.448 78.7298L287.897 79.3441L288.629 80.7854L288.913 81.6359L289.244 83.408L289.315 84.3531Z" fill="#0DD058"/>
<path d="M284.377 87.3539V81.3525L285.062 81.7306V87.732L284.377 87.3539Z" fill="white"/>
<path d="M282.841 83.8578V83.0781L286.905 85.6063V86.2678L282.841 83.8578Z" fill="white"/>
<path d="M256.724 106.36L256.858 109.38L257.191 113.201L257.169 115.844L256.991 117.377L256.591 119.643L255.414 124.973L254.259 129.683L254.503 129.816L254.792 129.838L256.769 129.86L256.991 129.816L260.523 117.377L261.211 112.224L264.721 116.955L265.298 129.372L265.365 129.438L265.632 129.571L266.253 129.638L266.831 129.594L267.475 129.372L268.408 119.509L268.541 117.399L268.564 116.111L268.475 115.6L267.586 112.823L265.076 106.115L265.032 103.494H257.391L256.835 105.471L256.724 106.36Z" fill="#3C56C6"/>
<path d="M254.014 108.825L253.925 108.181V107.426L254.014 106.804L254.903 106.293H255.058L255.103 106.382L255.169 106.693L255.924 108.292L256.035 108.67L256.013 109.003L255.902 109.269L255.436 109.669L255.103 109.78L254.792 109.803L254.547 109.714L254.37 109.558L254.147 109.247L254.014 108.825Z" fill="#FCD8E3"/>
<path d="M260.256 87.4345L259.989 88.8117L260.478 89.2337L260.877 89.4114L261.344 89.478L261.81 89.4114L262.21 89.2781L262.699 88.9449L262.61 87.9898L262.721 87.5011L263.254 87.279L264.076 86.6126L264.054 85.4576L263.654 81.8592L263.565 81.3927L263.41 80.9929L263.188 80.6597L262.543 80.1266L262.188 79.9489L261.588 79.7935L260.989 79.749L260.611 79.8157L259.989 80.0822L259.367 80.7486L259.123 81.1484L258.834 81.7926L258.634 82.5256L258.479 84.036L258.567 84.5913L259.056 85.7019L260.256 87.4345Z" fill="#FCD8E3"/>
<path d="M282.602 85.6804L282.113 86.3468L281.446 87.0131L280.758 87.524L280.025 88.8123L278.803 87.7239L279.758 86.6133L280.469 84.6142L280.758 84.0811L281.38 83.1926L281.691 83.0371L281.78 83.1038L282.091 83.7701L282.824 85.0362V85.2139L282.602 85.6804Z" fill="#FCD8E3"/>
<path d="M265.009 104.582L261.455 104.715L259.678 104.649L258.19 104.427L257.79 104.293L257.39 104.005V95.8748L255.924 99.5843L255.235 106.515L255.036 106.648L254.48 106.803L253.992 106.692L253.88 106.515L253.414 102.539L253.192 99.2067V98.3626L254.103 96.1636L256.479 91.2768L259.167 89.6109L259.722 88.5225L260.211 88.6558H261.211H262.343L262.988 88.5225L263.254 89.6109L266.119 90.4328L269.407 92.5429L270.784 93.3648L271.562 93.698L272.183 93.3426L274.76 91.2546L277.537 88.8113L278.781 87.5674L280.269 88.8113L279.314 90.4328L277.603 92.3652L274.271 95.9859L272.872 97.363L272.317 97.8295L272.095 97.9183L271.384 97.7406L270.095 97.2964L265.564 95.475L265.52 95.4972L265.342 96.2302L265.298 96.9632L265.009 104.582Z" fill="#A0B3FA"/>
<path d="M263.255 89.6109L262.966 89.7441L261.944 89.8774L260.078 89.8552L259.034 89.7441L259.523 88.7002L259.723 88.5225L260.056 88.6335L261.344 88.6557L262.988 88.5225L263.255 89.6109Z" fill="#B2C3FF"/>
<path d="M264.743 131.549L265.165 129.372H267.608L267.897 129.683L268.808 130.305L270.385 130.949L270.585 131.282L270.607 131.815L269.03 131.926H266.609L265.098 131.704L264.743 131.549Z" fill="#2B3A7C"/>
<path d="M253.726 131.437L254.259 129.394L256.991 129.527L257.479 129.927L259.856 131.015L259.989 131.215V131.393L259.701 131.792L259.301 132.103L255.547 132.081L254.348 131.704L253.726 131.437Z" fill="#2B3A7C"/>
<path d="M258.212 84.1695L258.479 84.7471L258.99 85.5245L260.122 87.0349L262.033 86.9017L262.21 83.903L262.61 83.3255L263.388 82.6813L264.076 81.9705L264.209 81.7262V81.2375L263.921 80.1491L263.565 79.5494L263.388 79.4161L263.054 79.3273L262.81 79.3939L262.432 79.6827L262.077 79.2606L261.211 78.7275L260.9 78.6387L260.322 78.7497L259.922 79.0163L258.479 80.2158L258.079 80.7488L257.879 81.6373L257.901 82.2593L258.212 84.1695Z" fill="#3049A0"/>
</g>
<path d="M25.6777 61.3223H28.3633C28.2917 62.2728 28.028 63.1159 27.5723 63.8516C27.1165 64.5807 26.4818 65.1536 25.668 65.5703C24.8542 65.987 23.8678 66.1953 22.709 66.1953C21.8171 66.1953 21.013 66.0391 20.2969 65.7266C19.5872 65.4076 18.9785 64.9551 18.4707 64.3691C17.9694 63.7767 17.5853 63.0671 17.3184 62.2402C17.0514 61.4069 16.918 60.4727 16.918 59.4375V58.3535C16.918 57.3184 17.0547 56.3841 17.3281 55.5508C17.6016 54.7174 17.9922 54.0078 18.5 53.4219C19.0143 52.8294 19.6296 52.3737 20.3457 52.0547C21.0684 51.7357 21.8757 51.5762 22.7676 51.5762C23.9264 51.5762 24.9062 51.791 25.707 52.2207C26.5078 52.6439 27.1296 53.2266 27.5723 53.9688C28.015 54.7109 28.2819 55.5638 28.373 56.5273H25.6875C25.6354 55.9284 25.5052 55.4206 25.2969 55.0039C25.0951 54.5872 24.7891 54.2715 24.3789 54.0566C23.9753 53.8353 23.4382 53.7246 22.7676 53.7246C22.2467 53.7246 21.7878 53.8223 21.3906 54.0176C21 54.2129 20.6745 54.5059 20.4141 54.8965C20.1536 55.2806 19.9583 55.7624 19.8281 56.3418C19.6979 56.9147 19.6328 57.5788 19.6328 58.334V59.4375C19.6328 60.1602 19.6914 60.8079 19.8086 61.3809C19.9258 61.9538 20.1081 62.4388 20.3555 62.8359C20.6029 63.2331 20.9219 63.5358 21.3125 63.7441C21.7031 63.9525 22.1686 64.0566 22.709 64.0566C23.3665 64.0566 23.9004 63.9525 24.3105 63.7441C24.7272 63.5358 25.043 63.2298 25.2578 62.8262C25.4792 62.4225 25.6191 61.9212 25.6777 61.3223ZM32.9824 51V66H30.3945V51H32.9824ZM41.2637 63.7539V58.8809C41.2637 58.5228 41.2018 58.2135 41.0781 57.9531C40.9544 57.6927 40.7656 57.4909 40.5117 57.3477C40.2578 57.2044 39.9355 57.1328 39.5449 57.1328C39.1999 57.1328 38.8971 57.1914 38.6367 57.3086C38.3828 57.4258 38.1875 57.5918 38.0508 57.8066C37.9141 58.015 37.8457 58.2559 37.8457 58.5293H35.2578C35.2578 58.0931 35.362 57.6797 35.5703 57.2891C35.7786 56.8919 36.0749 56.5404 36.459 56.2344C36.8496 55.9219 37.3151 55.6777 37.8555 55.502C38.4023 55.3262 39.0143 55.2383 39.6914 55.2383C40.4922 55.2383 41.2051 55.375 41.8301 55.6484C42.4616 55.9154 42.9564 56.319 43.3145 56.8594C43.679 57.3997 43.8613 58.0801 43.8613 58.9004V63.5098C43.8613 64.0371 43.8939 64.4896 43.959 64.8672C44.0306 65.2383 44.1348 65.5605 44.2715 65.834V66H41.6445C41.5208 65.7331 41.4264 65.3945 41.3613 64.9844C41.2962 64.5677 41.2637 64.1576 41.2637 63.7539ZM41.625 59.5645L41.6445 61.0977H40.0137C39.61 61.0977 39.2552 61.14 38.9492 61.2246C38.6432 61.3027 38.3926 61.4199 38.1973 61.5762C38.002 61.7259 37.8555 61.9082 37.7578 62.123C37.6602 62.3314 37.6113 62.569 37.6113 62.8359C37.6113 63.0964 37.6699 63.3307 37.7871 63.5391C37.9108 63.7474 38.0866 63.9134 38.3145 64.0371C38.5488 64.1543 38.8223 64.2129 39.1348 64.2129C39.5905 64.2129 39.9876 64.1217 40.3262 63.9395C40.6647 63.7507 40.9284 63.5228 41.1172 63.2559C41.306 62.9889 41.4069 62.735 41.4199 62.4941L42.1621 63.6074C42.071 63.8743 41.9342 64.1576 41.752 64.457C41.5697 64.7565 41.3353 65.0365 41.0488 65.2969C40.7624 65.5573 40.4173 65.7721 40.0137 65.9414C39.61 66.1107 39.1413 66.1953 38.6074 66.1953C37.9238 66.1953 37.3118 66.0586 36.7715 65.7852C36.2311 65.5117 35.8047 65.1374 35.4922 64.6621C35.1797 64.1868 35.0234 63.6465 35.0234 63.041C35.0234 62.4811 35.1276 61.9863 35.3359 61.5566C35.5443 61.127 35.8535 60.7656 36.2637 60.4727C36.6738 60.1732 37.1816 59.9486 37.7871 59.7988C38.3991 59.6426 39.099 59.5645 39.8867 59.5645H41.625ZM48.9199 55.4336V66H46.332V55.4336H48.9199ZM46.1562 52.6699C46.1562 52.2858 46.2865 51.9668 46.5469 51.7129C46.8138 51.459 47.1719 51.332 47.6211 51.332C48.0703 51.332 48.4251 51.459 48.6855 51.7129C48.9525 51.9668 49.0859 52.2858 49.0859 52.6699C49.0859 53.0475 48.9525 53.3633 48.6855 53.6172C48.4251 53.8711 48.0703 53.998 47.6211 53.998C47.1719 53.998 46.8138 53.8711 46.5469 53.6172C46.2865 53.3633 46.1562 53.0475 46.1562 52.6699ZM53.9492 57.6016V66H51.3711V55.4336H53.8027L53.9492 57.6016ZM53.5684 60.3359H52.7773C52.7773 59.6003 52.8652 58.9232 53.041 58.3047C53.2233 57.6862 53.4902 57.1491 53.8418 56.6934C54.1934 56.2311 54.6263 55.873 55.1406 55.6191C55.6615 55.3652 56.2637 55.2383 56.9473 55.2383C57.4225 55.2383 57.8587 55.3099 58.2559 55.4531C58.653 55.5898 58.9948 55.8079 59.2812 56.1074C59.5742 56.4004 59.7988 56.7845 59.9551 57.2598C60.1113 57.7285 60.1895 58.2917 60.1895 58.9492V66H57.6113V59.2129C57.6113 58.7181 57.5397 58.3307 57.3965 58.0508C57.2598 57.7708 57.0612 57.5755 56.8008 57.4648C56.5404 57.3477 56.2279 57.2891 55.8633 57.2891C55.4596 57.2891 55.1113 57.3704 54.8184 57.5332C54.5319 57.6895 54.2943 57.9076 54.1055 58.1875C53.9232 58.4674 53.7865 58.7897 53.6953 59.1543C53.6107 59.5189 53.5684 59.9128 53.5684 60.3359ZM59.9941 59.8574L58.9297 60.0527C58.9362 59.3887 59.0273 58.7669 59.2031 58.1875C59.3789 57.6016 59.6361 57.0905 59.9746 56.6543C60.3197 56.2116 60.7461 55.8665 61.2539 55.6191C61.7682 55.3652 62.3607 55.2383 63.0312 55.2383C63.5521 55.2383 64.0208 55.3132 64.4375 55.4629C64.8607 55.6061 65.222 55.8372 65.5215 56.1562C65.821 56.4688 66.0488 56.8757 66.2051 57.377C66.3678 57.8783 66.4492 58.4902 66.4492 59.2129V66H63.8516V59.2031C63.8516 58.6888 63.7799 58.2949 63.6367 58.0215C63.5 57.748 63.3014 57.5592 63.041 57.4551C62.7806 57.3444 62.4746 57.2891 62.123 57.2891C61.765 57.2891 61.4525 57.3574 61.1855 57.4941C60.9251 57.6243 60.7038 57.8066 60.5215 58.041C60.3457 58.2754 60.2122 58.5488 60.1211 58.8613C60.0365 59.1673 59.9941 59.4993 59.9941 59.8574ZM79.3887 59.6621H75.7559L75.7363 57.7676H78.8516C79.3854 57.7676 79.8314 57.6927 80.1895 57.543C80.5475 57.3932 80.8177 57.1751 81 56.8887C81.1888 56.6022 81.2832 56.2539 81.2832 55.8438C81.2832 55.388 81.1953 55.0169 81.0195 54.7305C80.8503 54.444 80.5833 54.2357 80.2188 54.1055C79.8542 53.9688 79.3919 53.9004 78.832 53.9004H76.625V66H73.9395V51.7812H78.832C79.6393 51.7812 80.3587 51.8594 80.9902 52.0156C81.6283 52.1654 82.1686 52.3997 82.6113 52.7188C83.054 53.0378 83.3893 53.4382 83.6172 53.9199C83.8516 54.4017 83.9688 54.9746 83.9688 55.6387C83.9688 56.2246 83.832 56.765 83.5586 57.2598C83.2917 57.748 82.8783 58.1452 82.3184 58.4512C81.765 58.7572 81.0618 58.9329 80.209 58.9785L79.3887 59.6621ZM79.2715 66H74.9648L76.0879 63.8906H79.2715C79.8053 63.8906 80.2448 63.8027 80.5898 63.627C80.9414 63.4512 81.2018 63.2103 81.3711 62.9043C81.5469 62.5918 81.6348 62.2337 81.6348 61.8301C81.6348 61.3874 81.5566 61.0033 81.4004 60.6777C81.2507 60.3522 81.0098 60.1016 80.6777 59.9258C80.3522 59.75 79.9225 59.6621 79.3887 59.6621H76.5957L76.6152 57.7676H80.1699L80.7852 58.5C81.6055 58.5065 82.2728 58.6693 82.7871 58.9883C83.3079 59.3073 83.6921 59.7174 83.9395 60.2188C84.1868 60.7201 84.3105 61.2604 84.3105 61.8398C84.3105 62.7513 84.112 63.5163 83.7148 64.1348C83.3242 64.7533 82.7513 65.2188 81.9961 65.5312C81.2474 65.8438 80.3392 66 79.2715 66ZM92.4648 51.7812V66H89.7891V51.7812H92.4648ZM96.8789 51.7812V53.9004H85.4238V51.7812H96.8789ZM104.926 51.7812V66H102.25V51.7812H104.926ZM109.34 51.7812V53.9004H97.8848V51.7812H109.34ZM118.803 66H116.205V54.457C116.205 53.6628 116.358 52.9954 116.664 52.4551C116.97 51.9082 117.406 51.4948 117.973 51.2148C118.539 50.9349 119.206 50.7949 119.975 50.7949C120.229 50.7949 120.469 50.8112 120.697 50.8438C120.932 50.8763 121.163 50.9219 121.391 50.9805L121.342 52.9434C121.218 52.9108 121.081 52.888 120.932 52.875C120.788 52.862 120.629 52.8555 120.453 52.8555C120.102 52.8555 119.802 52.9173 119.555 53.041C119.307 53.1647 119.118 53.347 118.988 53.5879C118.865 53.8223 118.803 54.112 118.803 54.457V66ZM120.941 55.4336V57.2891H114.613V55.4336H120.941ZM122.074 60.8242V60.6191C122.074 59.8444 122.185 59.1315 122.406 58.4805C122.628 57.8229 122.95 57.2533 123.373 56.7715C123.796 56.2897 124.314 55.9154 124.926 55.6484C125.538 55.375 126.234 55.2383 127.016 55.2383C127.81 55.2383 128.513 55.375 129.125 55.6484C129.743 55.9154 130.264 56.2897 130.688 56.7715C131.111 57.2533 131.433 57.8229 131.654 58.4805C131.876 59.1315 131.986 59.8444 131.986 60.6191V60.8242C131.986 61.5924 131.876 62.3053 131.654 62.9629C131.433 63.6139 131.111 64.1836 130.688 64.6719C130.264 65.1536 129.747 65.528 129.135 65.7949C128.523 66.0618 127.823 66.1953 127.035 66.1953C126.254 66.1953 125.554 66.0618 124.936 65.7949C124.317 65.528 123.796 65.1536 123.373 64.6719C122.95 64.1836 122.628 63.6139 122.406 62.9629C122.185 62.3053 122.074 61.5924 122.074 60.8242ZM124.652 60.6191V60.8242C124.652 61.2865 124.698 61.7194 124.789 62.123C124.88 62.5267 125.02 62.8815 125.209 63.1875C125.398 63.4935 125.642 63.7344 125.941 63.9102C126.247 64.0794 126.612 64.1641 127.035 64.1641C127.452 64.1641 127.81 64.0794 128.109 63.9102C128.409 63.7344 128.653 63.4935 128.842 63.1875C129.037 62.8815 129.18 62.5267 129.271 62.123C129.363 61.7194 129.408 61.2865 129.408 60.8242V60.6191C129.408 60.1634 129.363 59.737 129.271 59.3398C129.18 58.9362 129.037 58.5814 128.842 58.2754C128.653 57.9629 128.406 57.7188 128.1 57.543C127.8 57.3607 127.439 57.2695 127.016 57.2695C126.599 57.2695 126.241 57.3607 125.941 57.543C125.642 57.7188 125.398 57.9629 125.209 58.2754C125.02 58.5814 124.88 58.9362 124.789 59.3398C124.698 59.737 124.652 60.1634 124.652 60.6191ZM136.439 57.5918V66H133.861V55.4336H136.303L136.439 57.5918ZM139.652 55.3652L139.613 57.7676C139.47 57.7415 139.307 57.722 139.125 57.709C138.949 57.696 138.783 57.6895 138.627 57.6895C138.23 57.6895 137.882 57.7448 137.582 57.8555C137.283 57.9596 137.032 58.1126 136.83 58.3145C136.635 58.5163 136.485 58.7637 136.381 59.0566C136.277 59.3431 136.218 59.6686 136.205 60.0332L135.648 59.9648C135.648 59.2943 135.717 58.6725 135.854 58.0996C135.99 57.5267 136.189 57.0254 136.449 56.5957C136.71 56.166 137.035 55.834 137.426 55.5996C137.823 55.3587 138.279 55.2383 138.793 55.2383C138.936 55.2383 139.089 55.2513 139.252 55.2773C139.421 55.2969 139.555 55.3262 139.652 55.3652ZM149.428 66H146.83V54.457C146.83 53.6628 146.983 52.9954 147.289 52.4551C147.595 51.9082 148.031 51.4948 148.598 51.2148C149.164 50.9349 149.831 50.7949 150.6 50.7949C150.854 50.7949 151.094 50.8112 151.322 50.8438C151.557 50.8763 151.788 50.9219 152.016 50.9805L151.967 52.9434C151.843 52.9108 151.706 52.888 151.557 52.875C151.413 52.862 151.254 52.8555 151.078 52.8555C150.727 52.8555 150.427 52.9173 150.18 53.041C149.932 53.1647 149.743 53.347 149.613 53.5879C149.49 53.8223 149.428 54.112 149.428 54.457V66ZM151.566 55.4336V57.2891H145.238V55.4336H151.566ZM155.736 57.5918V66H153.158V55.4336H155.6L155.736 57.5918ZM158.949 55.3652L158.91 57.7676C158.767 57.7415 158.604 57.722 158.422 57.709C158.246 57.696 158.08 57.6895 157.924 57.6895C157.527 57.6895 157.178 57.7448 156.879 57.8555C156.579 57.9596 156.329 58.1126 156.127 58.3145C155.932 58.5163 155.782 58.7637 155.678 59.0566C155.574 59.3431 155.515 59.6686 155.502 60.0332L154.945 59.9648C154.945 59.2943 155.014 58.6725 155.15 58.0996C155.287 57.5267 155.486 57.0254 155.746 56.5957C156.007 56.166 156.332 55.834 156.723 55.5996C157.12 55.3587 157.576 55.2383 158.09 55.2383C158.233 55.2383 158.386 55.2513 158.549 55.2773C158.718 55.2969 158.852 55.3262 158.949 55.3652ZM164.916 66.1953C164.115 66.1953 163.396 66.0651 162.758 65.8047C162.12 65.5443 161.576 65.1829 161.127 64.7207C160.684 64.252 160.342 63.7083 160.102 63.0898C159.867 62.4648 159.75 61.7943 159.75 61.0781V60.6875C159.75 59.8737 159.867 59.1348 160.102 58.4707C160.336 57.8001 160.668 57.224 161.098 56.7422C161.527 56.2604 162.042 55.8893 162.641 55.6289C163.24 55.3685 163.9 55.2383 164.623 55.2383C165.372 55.2383 166.033 55.3652 166.605 55.6191C167.178 55.8665 167.657 56.2181 168.041 56.6738C168.425 57.1296 168.715 57.6764 168.91 58.3145C169.105 58.946 169.203 59.6458 169.203 60.4141V61.498H160.922V59.7207H166.664V59.5254C166.651 59.1152 166.573 58.7409 166.43 58.4023C166.286 58.0573 166.065 57.7839 165.766 57.582C165.466 57.3737 165.079 57.2695 164.604 57.2695C164.219 57.2695 163.884 57.3542 163.598 57.5234C163.318 57.6862 163.083 57.9206 162.895 58.2266C162.712 58.526 162.576 58.8841 162.484 59.3008C162.393 59.7174 162.348 60.1797 162.348 60.6875V61.0781C162.348 61.5208 162.406 61.931 162.523 62.3086C162.647 62.6862 162.826 63.015 163.061 63.2949C163.301 63.5684 163.588 63.7832 163.92 63.9395C164.258 64.0892 164.643 64.1641 165.072 64.1641C165.613 64.1641 166.101 64.0599 166.537 63.8516C166.98 63.6367 167.364 63.321 167.689 62.9043L168.988 64.252C168.767 64.5775 168.467 64.89 168.09 65.1895C167.719 65.4889 167.27 65.7331 166.742 65.9219C166.215 66.1042 165.606 66.1953 164.916 66.1953ZM175.678 66.1953C174.877 66.1953 174.158 66.0651 173.52 65.8047C172.882 65.5443 172.338 65.1829 171.889 64.7207C171.446 64.252 171.104 63.7083 170.863 63.0898C170.629 62.4648 170.512 61.7943 170.512 61.0781V60.6875C170.512 59.8737 170.629 59.1348 170.863 58.4707C171.098 57.8001 171.43 57.224 171.859 56.7422C172.289 56.2604 172.803 55.8893 173.402 55.6289C174.001 55.3685 174.662 55.2383 175.385 55.2383C176.133 55.2383 176.794 55.3652 177.367 55.6191C177.94 55.8665 178.419 56.2181 178.803 56.6738C179.187 57.1296 179.477 57.6764 179.672 58.3145C179.867 58.946 179.965 59.6458 179.965 60.4141V61.498H171.684V59.7207H177.426V59.5254C177.413 59.1152 177.335 58.7409 177.191 58.4023C177.048 58.0573 176.827 57.7839 176.527 57.582C176.228 57.3737 175.84 57.2695 175.365 57.2695C174.981 57.2695 174.646 57.3542 174.359 57.5234C174.079 57.6862 173.845 57.9206 173.656 58.2266C173.474 58.526 173.337 58.8841 173.246 59.3008C173.155 59.7174 173.109 60.1797 173.109 60.6875V61.0781C173.109 61.5208 173.168 61.931 173.285 62.3086C173.409 62.6862 173.588 63.015 173.822 63.2949C174.063 63.5684 174.35 63.7832 174.682 63.9395C175.02 64.0892 175.404 64.1641 175.834 64.1641C176.374 64.1641 176.863 64.0599 177.299 63.8516C177.742 63.6367 178.126 63.321 178.451 62.9043L179.75 64.252C179.529 64.5775 179.229 64.89 178.852 65.1895C178.48 65.4889 178.031 65.7331 177.504 65.9219C176.977 66.1042 176.368 66.1953 175.678 66.1953Z" fill="black"/>
<rect x="16.5" y="81.5" width="121" height="31" rx="15.5" stroke="#0066FF"/>
<path d="M33.778 91.808C35.066 91.808 36.074 92.088 36.816 92.662C37.53 93.222 37.978 94.048 38.16 95.168H36.508C36.368 94.524 36.06 94.048 35.612 93.726C35.15 93.404 34.534 93.25 33.778 93.25C32.84 93.25 32.098 93.558 31.552 94.202C30.95 94.874 30.656 95.812 30.656 97.044C30.656 98.22 30.922 99.13 31.454 99.76C32.028 100.432 32.924 100.768 34.142 100.768C34.618 100.768 35.066 100.712 35.486 100.6C35.878 100.488 36.228 100.334 36.564 100.138V98.08H33.918V96.68H38.202V100.908C37.67 101.328 37.068 101.636 36.382 101.86C35.654 102.084 34.856 102.196 33.96 102.196C32.364 102.196 31.132 101.692 30.25 100.684C29.424 99.746 29.018 98.528 29.018 97.044C29.018 95.546 29.424 94.314 30.25 93.348C31.118 92.312 32.294 91.808 33.778 91.808ZM43.24 94.566C44.332 94.566 45.214 94.916 45.886 95.644C46.544 96.358 46.88 97.268 46.88 98.388C46.88 99.494 46.544 100.404 45.9 101.104C45.228 101.832 44.332 102.196 43.24 102.196C42.134 102.196 41.252 101.832 40.58 101.104C39.922 100.404 39.6 99.494 39.6 98.388C39.6 97.268 39.922 96.358 40.594 95.644C41.252 94.916 42.134 94.566 43.24 94.566ZM43.24 95.868C42.568 95.868 42.064 96.12 41.7 96.652C41.392 97.1 41.238 97.688 41.238 98.388C41.238 99.088 41.392 99.662 41.7 100.11C42.064 100.628 42.568 100.894 43.24 100.894C43.898 100.894 44.416 100.628 44.78 100.11C45.088 99.648 45.256 99.074 45.256 98.388C45.256 97.688 45.088 97.1 44.78 96.652C44.416 96.12 43.898 95.868 43.24 95.868ZM56.2267 94.566C57.2907 94.566 58.0887 94.832 58.5927 95.364C59.0407 95.826 59.2647 96.498 59.2647 97.38V102H57.7807V101.048C57.5007 101.412 57.1507 101.678 56.7447 101.874C56.2827 102.084 55.7367 102.196 55.1067 102.196C54.3507 102.196 53.7627 102 53.3287 101.622C52.8807 101.23 52.6567 100.74 52.6567 100.138C52.6567 99.326 52.9647 98.696 53.6087 98.262C54.1967 97.842 55.0227 97.618 56.0867 97.59L57.6687 97.548V97.268C57.6687 96.316 57.1507 95.854 56.1147 95.854C55.6667 95.854 55.3167 95.924 55.0507 96.092C54.7427 96.274 54.5327 96.554 54.4487 96.932L52.8667 96.806C53.0207 96.008 53.4127 95.42 54.0427 95.056C54.5747 94.72 55.3027 94.566 56.2267 94.566ZM57.6687 98.696L56.1987 98.738C54.9247 98.766 54.2947 99.214 54.2947 100.082C54.2947 100.334 54.3927 100.544 54.6167 100.712C54.8407 100.88 55.1207 100.978 55.4707 100.978C56.0867 100.978 56.6047 100.796 57.0247 100.446C57.4447 100.082 57.6687 99.62 57.6687 99.06V98.696ZM64.6864 94.566C66.4924 94.566 67.4024 95.546 67.4024 97.534V102H65.8064V97.674C65.8064 96.484 65.2604 95.896 64.1684 95.896C63.7764 95.896 63.4264 96.036 63.1324 96.316C62.7964 96.624 62.6004 97.072 62.5444 97.646V102H60.9484V94.762H62.5444V95.602C62.8244 95.266 63.1464 95 63.4964 94.832C63.8604 94.65 64.2524 94.566 64.6864 94.566ZM74.2352 91.808H75.8312V102H74.3472V101.23C73.8432 101.874 73.1152 102.196 72.1632 102.196C71.0852 102.196 70.2452 101.818 69.6432 101.062C69.0832 100.362 68.8032 99.452 68.8032 98.346C68.8032 97.282 69.0692 96.4 69.6292 95.7C70.2172 94.944 71.0432 94.566 72.0792 94.566C72.9192 94.566 73.6332 94.958 74.2352 95.756V91.808ZM72.4572 95.854C71.7292 95.854 71.2112 96.092 70.8752 96.568C70.5812 96.974 70.4412 97.562 70.4412 98.346C70.4412 99.13 70.5672 99.732 70.8472 100.152C71.1692 100.656 71.6872 100.908 72.4012 100.908C73.0172 100.908 73.5072 100.656 73.8432 100.166C74.1372 99.718 74.2912 99.13 74.2912 98.43V98.318C74.2912 97.548 74.0952 96.932 73.7312 96.484C73.3952 96.064 72.9612 95.854 72.4572 95.854ZM85.4151 94.566C86.3531 94.566 87.0951 94.776 87.6551 95.196C88.2291 95.644 88.5931 96.316 88.7331 97.226H87.1511C87.0531 96.764 86.8571 96.428 86.5771 96.204C86.2831 95.98 85.8911 95.868 85.4151 95.868C84.8271 95.868 84.3651 96.078 84.0291 96.526C83.6931 96.96 83.5251 97.576 83.5251 98.36C83.5251 99.158 83.6791 99.788 84.0151 100.236C84.3231 100.67 84.7851 100.894 85.4011 100.894C86.4651 100.894 87.0531 100.362 87.1791 99.312H88.7611C88.5931 100.292 88.2151 101.02 87.6411 101.496C87.0811 101.958 86.3251 102.196 85.3871 102.196C84.2671 102.196 83.3991 101.832 82.7831 101.104C82.1811 100.404 81.8871 99.494 81.8871 98.374C81.8871 97.282 82.1811 96.386 82.7691 95.7C83.3991 94.944 84.2811 94.566 85.4151 94.566ZM93.3748 94.566C94.4668 94.566 95.3488 94.916 96.0208 95.644C96.6788 96.358 97.0148 97.268 97.0148 98.388C97.0148 99.494 96.6788 100.404 96.0348 101.104C95.3628 101.832 94.4668 102.196 93.3748 102.196C92.2688 102.196 91.3868 101.832 90.7148 101.104C90.0568 100.404 89.7348 99.494 89.7348 98.388C89.7348 97.268 90.0568 96.358 90.7288 95.644C91.3868 94.916 92.2688 94.566 93.3748 94.566ZM93.3748 95.868C92.7028 95.868 92.1988 96.12 91.8348 96.652C91.5268 97.1 91.3728 97.688 91.3728 98.388C91.3728 99.088 91.5268 99.662 91.8348 100.11C92.1988 100.628 92.7028 100.894 93.3748 100.894C94.0328 100.894 94.5508 100.628 94.9148 100.11C95.2228 99.648 95.3908 99.074 95.3908 98.388C95.3908 97.688 95.2228 97.1 94.9148 96.652C94.5508 96.12 94.0328 95.868 93.3748 95.868ZM98.5493 91.808H100.145V102H98.5493V91.808ZM102.104 91.808H103.7V102H102.104V91.808ZM108.599 94.566C109.789 94.566 110.699 94.958 111.329 95.77C111.903 96.498 112.197 97.52 112.197 98.822H106.779C106.835 99.494 107.017 100.012 107.325 100.362C107.633 100.712 108.081 100.894 108.655 100.894C109.145 100.894 109.537 100.782 109.845 100.558C110.083 100.376 110.293 100.082 110.489 99.676H112.085C111.917 100.348 111.581 100.922 111.077 101.37C110.433 101.916 109.635 102.196 108.669 102.196C107.591 102.196 106.737 101.86 106.107 101.202C105.435 100.516 105.099 99.578 105.099 98.374C105.099 97.296 105.407 96.4 106.051 95.672C106.667 94.93 107.521 94.566 108.599 94.566ZM108.641 95.868C108.109 95.868 107.703 96.008 107.395 96.316C107.101 96.61 106.905 97.044 106.807 97.618H110.531C110.391 96.442 109.761 95.868 108.641 95.868ZM116.71 94.566C117.648 94.566 118.39 94.776 118.95 95.196C119.524 95.644 119.888 96.316 120.028 97.226H118.446C118.348 96.764 118.152 96.428 117.872 96.204C117.578 95.98 117.186 95.868 116.71 95.868C116.122 95.868 115.66 96.078 115.324 96.526C114.988 96.96 114.82 97.576 114.82 98.36C114.82 99.158 114.974 99.788 115.31 100.236C115.618 100.67 116.08 100.894 116.696 100.894C117.76 100.894 118.348 100.362 118.474 99.312H120.056C119.888 100.292 119.51 101.02 118.936 101.496C118.376 101.958 117.62 102.196 116.682 102.196C115.562 102.196 114.694 101.832 114.078 101.104C113.476 100.404 113.182 99.494 113.182 98.374C113.182 97.282 113.476 96.386 114.064 95.7C114.694 94.944 115.576 94.566 116.71 94.566ZM123.578 92.424V94.762H125.188V96.078H123.578V100.166C123.578 100.334 123.606 100.46 123.69 100.558C123.774 100.642 123.886 100.684 124.054 100.684H125.006V102H123.788C123.158 102 122.696 101.832 122.402 101.496C122.122 101.188 121.982 100.754 121.982 100.166V96.078H120.68V94.762H121.982V93.082L123.578 92.424Z" fill="#0066FF"/>
</g>
<rect x="0.5" width="342" height="158" rx="11.5" stroke="white"/>
<defs>
<linearGradient id="paint0_linear_19334_49869" x1="171.5" y1="-0.5" x2="171.5" y2="158.5" gradientUnits="userSpaceOnUse">
<stop stop-color="#DCEBFF"/>
<stop offset="1" stop-color="white"/>
</linearGradient>
<clipPath id="clip0_19334_49869">
<rect y="-0.5" width="343" height="159" rx="12" fill="white"/>
</clipPath>
<clipPath id="clip1_19334_49869">
<rect x="191" y="19" width="154.996" height="120.5" rx="5.67059" fill="white"/>
</clipPath>
<clipPath id="clip2_19334_49869">
<rect width="18.1887" height="18.1887" fill="white" transform="translate(240.844 55.377)"/>
</clipPath>
</defs>
</svg>
