<svg width="40" height="40" viewBox="0 0 40 40" fill="none" xmlns="http://www.w3.org/2000/svg">
<rect width="40" height="40" rx="20" transform="matrix(-1 0 0 1 40 0)" fill="#1677FF"/>
<path d="M16.2926 15.0667C16.8069 15.5781 17.0993 16.2712 17.1069 16.9964C17.1144 17.7216 16.8365 18.4207 16.333 18.9427L16.3057 18.971C14.9448 20.3385 14.7539 22.4456 15.7368 24.0214C15.2114 23.827 14.6417 23.7848 14.0934 23.8998C13.3216 21.9634 13.6897 19.6769 15.1908 18.0836L15.3157 17.9549C15.5595 17.7006 15.6937 17.3608 15.6893 17.0086C15.6849 16.6564 15.5423 16.32 15.2923 16.072C15.0402 15.8207 14.6987 15.6798 14.3427 15.6802C13.9868 15.6806 13.6456 15.8223 13.3941 16.0741C10.8092 18.6705 10.3319 22.5825 11.9601 25.6725C11.7682 26.1407 11.6994 26.6502 11.7602 27.1526C11.821 27.6549 12.0095 28.1333 12.3076 28.5421L12.4003 28.6365C8.66938 24.8865 8.66283 18.8172 12.3883 15.0738C12.9051 14.5551 13.6068 14.2631 14.339 14.2617C15.0712 14.2604 15.7739 14.5499 16.2926 15.0667ZM27.2437 15.436C30.8181 19.0196 30.9888 24.7174 27.7434 28.4761C28.0409 28.0432 28.218 27.539 28.2565 27.0151C28.295 26.4912 28.1936 25.9665 27.9626 25.4947C28.6165 23.9862 28.8018 22.316 28.4945 20.7008C28.1871 19.0857 27.4013 17.6003 26.239 16.4374C25.9877 16.1844 25.6464 16.0412 25.2897 16.0391C24.9331 16.0371 24.5901 16.1764 24.3359 16.4265C23.8123 16.9463 23.8123 17.794 24.3414 18.3247L24.4014 18.3858C25.0895 19.0983 25.573 19.983 25.8014 20.9468C26.0297 21.9107 25.9943 22.9183 25.699 23.8638C25.1449 23.7879 24.5806 23.8697 24.0708 24.1C24.4657 23.3397 24.6119 22.4747 24.4889 21.6269C24.3659 20.7791 23.9798 19.9913 23.3852 19.3747L23.3334 19.3223C22.255 18.2412 22.2556 16.4936 23.3366 15.4201C24.4172 14.3478 26.1659 14.356 27.2437 15.4365V15.436Z" fill="white"/>
<path d="M12.6035 28.8894C16.6879 32.9841 23.3151 32.9841 27.3995 28.8894C27.6746 28.6139 27.8925 28.2868 28.0409 27.9268C28.1893 27.5669 28.2652 27.1812 28.2642 26.7919C28.2633 26.4026 28.1855 26.0173 28.0353 25.6581C27.8851 25.2989 27.6655 24.9728 27.3891 24.6987C26.8455 24.1594 26.1146 23.8509 25.349 23.8374C24.5833 23.8239 23.8421 24.1064 23.2797 24.6261L23.1362 24.7658C21.4028 26.4479 18.658 26.4583 16.9071 24.8045L16.779 24.679C16.2206 24.136 15.4713 23.8338 14.6924 23.8375C13.9135 23.8411 13.1671 24.1504 12.6139 24.6987C12.3374 24.9728 12.1179 25.2989 11.9677 25.6581C11.8175 26.0173 11.7397 26.4026 11.7388 26.7919C11.7378 27.1812 11.8137 27.5669 11.9621 27.9268C12.1105 28.2868 12.3284 28.6139 12.6035 28.8894ZM13.6071 27.8874C13.4639 27.7439 13.3505 27.5736 13.2732 27.3862C13.196 27.1988 13.1565 26.998 13.157 26.7954C13.1575 26.5927 13.198 26.3921 13.2762 26.2051C13.3544 26.0181 13.4687 25.8483 13.6126 25.7056C13.9012 25.4194 14.2905 25.2577 14.697 25.2553C15.1035 25.2528 15.4947 25.4098 15.7868 25.6925L15.8097 25.7143C18.0979 28.009 21.8015 28.0379 24.1279 25.7798L24.1933 25.7143C24.4836 25.422 24.878 25.2568 25.2899 25.255C25.7019 25.2533 26.0977 25.4151 26.3904 25.705C26.5345 25.8478 26.6489 26.0176 26.7272 26.2047C26.8055 26.3918 26.8461 26.5925 26.8466 26.7954C26.8471 26.9982 26.8075 27.1991 26.7302 27.3866C26.6528 27.5741 26.5392 27.7445 26.3959 27.8879C22.8651 31.4269 17.1379 31.4269 13.6077 27.8879L13.6071 27.8874Z" fill="white"/>
<path d="M19.0324 24.3637L17.8182 23.1419C17.5639 22.8859 17.4212 22.5397 17.4212 22.1789C17.4212 21.818 17.5639 21.4719 17.8182 21.2159L19.0324 19.9935C19.2769 19.7474 19.6057 19.6035 19.9523 19.591C20.299 19.5784 20.6374 19.6981 20.899 19.9259L20.9715 19.9935L22.1852 21.2153C22.7142 21.7488 22.7142 22.6084 22.1852 23.1413L20.9715 24.3637C20.7271 24.6099 20.3981 24.7539 20.0513 24.7665C19.7046 24.7791 19.3661 24.6592 19.1044 24.4313L19.0324 24.3637ZM19.9597 23.4424C19.9709 23.4536 19.986 23.4598 20.0017 23.4598C20.0175 23.4598 20.0326 23.4536 20.0437 23.4424L21.2573 22.2206C21.2628 22.2151 21.2672 22.2086 21.2702 22.2015C21.2731 22.1943 21.2747 22.1866 21.2747 22.1789C21.2747 22.1711 21.2731 22.1635 21.2702 22.1563C21.2672 22.1491 21.2628 22.1426 21.2573 22.1372L20.0464 20.9181C20.0203 20.8913 19.9826 20.8913 19.9597 20.9148L18.7461 22.1366C18.7406 22.1421 18.7362 22.1486 18.7332 22.1557C18.7303 22.1629 18.7287 22.1706 18.7287 22.1783C18.7287 22.1861 18.7303 22.1938 18.7332 22.2009C18.7362 22.2081 18.7406 22.2146 18.7461 22.2201L19.9597 23.4424ZM20.1441 8.07643C19.8864 8.02416 19.6184 8.0764 19.3992 8.22165C19.18 8.3669 19.0275 8.59327 18.9752 8.85098L18.8704 9.36643C18.7715 9.8541 18.5355 10.3034 18.1901 10.6616C17.8447 11.0198 17.4042 11.2719 16.9204 11.3884L16.3041 11.5368C16.082 11.5905 15.8852 11.7192 15.7471 11.9012C15.609 12.0833 15.5379 12.3074 15.546 12.5357C15.5541 12.7641 15.6408 12.9827 15.7915 13.1545C15.9421 13.3263 16.1475 13.4408 16.3728 13.4786L16.8621 13.5604C17.3539 13.6425 17.8087 13.8737 18.165 14.2226C18.5213 14.5715 18.7618 15.0215 18.8541 15.5115L18.9724 16.1393C19.0148 16.3644 19.1337 16.5678 19.309 16.7151C19.4843 16.8624 19.7052 16.9445 19.9342 16.9475C20.1631 16.9504 20.3861 16.8741 20.5651 16.7313C20.7442 16.5886 20.8683 16.3883 20.9164 16.1644L21.0681 15.4608C21.1708 14.9823 21.4145 14.5455 21.7676 14.2067C22.1208 13.8679 22.5674 13.6427 23.0497 13.5599L23.527 13.4781C23.7513 13.4394 23.9554 13.3247 24.1052 13.1533C24.2549 12.9819 24.3412 12.7643 24.3494 12.5368C24.3577 12.3094 24.2874 12.086 24.1505 11.9042C24.0135 11.7224 23.8182 11.5933 23.5973 11.5384L23.0601 11.4053C22.5655 11.283 22.1144 11.0261 21.7568 10.6632C21.3993 10.3002 21.1492 9.84535 21.0342 9.34898L20.9132 8.82534C20.8704 8.63986 20.7751 8.47061 20.6387 8.33782C20.5023 8.20502 20.3306 8.11428 20.1441 8.07643ZM19.9608 10.2713L20.0088 10.3842C20.4089 11.2802 21.1192 12.0014 22.009 12.415L22.123 12.4641L22.1012 12.4733C21.1761 12.8335 20.4311 13.5449 20.0284 14.4522L19.957 14.6257L19.9281 14.5521C19.5568 13.6396 18.8409 12.9102 17.9355 12.5219L17.8073 12.4701L17.8182 12.4662C18.7678 12.07 19.5237 11.3167 19.9232 10.3684L19.9613 10.2713H19.9608Z" fill="white"/>
</svg>
