<svg width="64" height="64" viewBox="0 0 64 64" fill="none" xmlns="http://www.w3.org/2000/svg">
<path d="M31.9978 59.9956C50.6666 59.9956 59.9956 47.4606 59.9956 31.9978C59.9956 16.535 50.6666 4 31.9978 4C13.3289 4 4 16.535 4 31.9978C4 47.4606 13.3289 59.9956 31.9978 59.9956Z" fill="url(#paint0_radial_18_2223)"/>
<path d="M31.9978 59.9956C50.6666 59.9956 59.9956 47.4606 59.9956 31.9978C59.9956 16.535 50.6666 4 31.9978 4C13.3289 4 4 16.535 4 31.9978C4 47.4606 13.3289 59.9956 31.9978 59.9956Z" fill="url(#paint1_radial_18_2223)"/>
<path d="M31.9978 59.9956C50.6666 59.9956 59.9956 47.4606 59.9956 31.9978C59.9956 16.535 50.6666 4 31.9978 4C13.3289 4 4 16.535 4 31.9978C4 47.4606 13.3289 59.9956 31.9978 59.9956Z" fill="url(#paint2_radial_18_2223)"/>
<path d="M31.9978 59.9956C50.6666 59.9956 59.9956 47.4606 59.9956 31.9978C59.9956 16.535 50.6666 4 31.9978 4C13.3289 4 4 16.535 4 31.9978C4 47.4606 13.3289 59.9956 31.9978 59.9956Z" fill="url(#paint3_radial_18_2223)" fill-opacity="0.6"/>
<path d="M31.9978 59.9956C50.6666 59.9956 59.9956 47.4606 59.9956 31.9978C59.9956 16.535 50.6666 4 31.9978 4C13.3289 4 4 16.535 4 31.9978C4 47.4606 13.3289 59.9956 31.9978 59.9956Z" fill="url(#paint4_radial_18_2223)"/>
<path d="M31.9978 59.9956C50.6666 59.9956 59.9956 47.4606 59.9956 31.9978C59.9956 16.535 50.6666 4 31.9978 4C13.3289 4 4 16.535 4 31.9978C4 47.4606 13.3289 59.9956 31.9978 59.9956Z" fill="url(#paint5_radial_18_2223)"/>
<path d="M31.9978 59.9956C50.6666 59.9956 59.9956 47.4606 59.9956 31.9978C59.9956 16.535 50.6666 4 31.9978 4C13.3289 4 4 16.535 4 31.9978C4 47.4606 13.3289 59.9956 31.9978 59.9956Z" fill="url(#paint6_radial_18_2223)"/>
<path d="M31.9978 59.9956C50.6666 59.9956 59.9956 47.4606 59.9956 31.9978C59.9956 16.535 50.6666 4 31.9978 4C13.3289 4 4 16.535 4 31.9978C4 47.4606 13.3289 59.9956 31.9978 59.9956Z" fill="url(#paint7_radial_18_2223)"/>
<path d="M31.9978 59.9956C50.6666 59.9956 59.9956 47.4606 59.9956 31.9978C59.9956 16.535 50.6666 4 31.9978 4C13.3289 4 4 16.535 4 31.9978C4 47.4606 13.3289 59.9956 31.9978 59.9956Z" fill="url(#paint8_radial_18_2223)"/>
<path d="M51.9956 37.5205C56.4139 37.5205 59.9956 33.9388 59.9956 29.5205C59.9956 25.1022 56.4139 21.5205 51.9956 21.5205C47.5773 21.5205 43.9956 25.1022 43.9956 29.5205C43.9956 33.9388 47.5773 37.5205 51.9956 37.5205Z" fill="url(#paint9_radial_18_2223)"/>
<path d="M12 37.5205C16.4183 37.5205 20 33.9388 20 29.5205C20 25.1022 16.4183 21.5205 12 21.5205C7.58172 21.5205 4 25.1022 4 29.5205C4 33.9388 7.58172 37.5205 12 37.5205Z" fill="url(#paint10_radial_18_2223)"/>
<path d="M20 30C20.8572 31.6 24.2858 36 32 36C39.7142 36 43.1428 31.6 44 30" stroke="url(#paint11_radial_18_2223)" stroke-width="3" stroke-linecap="round"/>
<g filter="url(#filter0_f_18_2223)">
<path d="M37.875 21.312C37.875 21.312 39.1092 18.2685 42.25 18.8121C46.3204 19.5166 46.625 23.4996 46.625 23.4996" stroke="url(#paint12_radial_18_2223)" stroke-width="3" stroke-linecap="round"/>
</g>
<g filter="url(#filter1_f_18_2223)">
<path d="M16.625 21.312C16.625 21.312 17.8592 18.2685 21 18.8121C25.0704 19.5166 25.375 23.4996 25.375 23.4996" stroke="url(#paint13_radial_18_2223)" stroke-width="3" stroke-linecap="round"/>
</g>
<path d="M16 22C16 22 16.5 18 21 18C25.5 18 26 22 26 22" stroke="url(#paint14_radial_18_2223)" stroke-width="3" stroke-linecap="round"/>
<path d="M38 22C38 22 39 18 43 18C47 18 48 22 48 22" stroke="url(#paint15_radial_18_2223)" stroke-width="3" stroke-linecap="round"/>
<g filter="url(#filter2_i_18_2223)">
<path d="M8.18557 38.7244C8.98403 37.7728 10.4027 37.6486 11.3543 38.4472L17.2983 43.4346L16.7972 41.6406C16.4495 40.3956 17.1769 39.1046 18.4218 38.7568C19.6734 38.4072 20.9701 39.1444 21.3101 40.3986L22.6871 45.4782L24.3599 49.5024C24.3907 49.5764 24.4179 49.6514 24.4415 49.7272C25.0373 50.877 25.3747 52.1882 25.3747 53.5798C25.3747 58.1318 21.7645 61.822 17.3111 61.822C15.3519 61.822 13.556 61.108 12.1588 59.9204L3.19359 53.3256C2.14217 52.552 1.93116 51.0658 2.72575 50.0304C3.07175 49.5794 3.55027 49.29 4.06473 49.1752L3.21279 48.4602C2.21697 47.6246 2.08707 46.14 2.92267 45.1442C3.27769 44.721 3.74989 44.4542 4.25199 44.3514L3.99031 44.1318C2.99449 43.2964 2.86461 41.8116 3.70019 40.8158C4.53579 39.82 6.02045 39.6902 7.01627 40.5258L7.98701 41.3402C7.49881 40.5388 7.54891 39.483 8.18557 38.7244Z" fill="url(#paint16_radial_18_2223)"/>
<path d="M8.18557 38.7244C8.98403 37.7728 10.4027 37.6486 11.3543 38.4472L17.2983 43.4346L16.7972 41.6406C16.4495 40.3956 17.1769 39.1046 18.4218 38.7568C19.6734 38.4072 20.9701 39.1444 21.3101 40.3986L22.6871 45.4782L24.3599 49.5024C24.3907 49.5764 24.4179 49.6514 24.4415 49.7272C25.0373 50.877 25.3747 52.1882 25.3747 53.5798C25.3747 58.1318 21.7645 61.822 17.3111 61.822C15.3519 61.822 13.556 61.108 12.1588 59.9204L3.19359 53.3256C2.14217 52.552 1.93116 51.0658 2.72575 50.0304C3.07175 49.5794 3.55027 49.29 4.06473 49.1752L3.21279 48.4602C2.21697 47.6246 2.08707 46.14 2.92267 45.1442C3.27769 44.721 3.74989 44.4542 4.25199 44.3514L3.99031 44.1318C2.99449 43.2964 2.86461 41.8116 3.70019 40.8158C4.53579 39.82 6.02045 39.6902 7.01627 40.5258L7.98701 41.3402C7.49881 40.5388 7.54891 39.483 8.18557 38.7244Z" fill="url(#paint17_linear_18_2223)"/>
<path d="M8.18557 38.7244C8.98403 37.7728 10.4027 37.6486 11.3543 38.4472L17.2983 43.4346L16.7972 41.6406C16.4495 40.3956 17.1769 39.1046 18.4218 38.7568C19.6734 38.4072 20.9701 39.1444 21.3101 40.3986L22.6871 45.4782L24.3599 49.5024C24.3907 49.5764 24.4179 49.6514 24.4415 49.7272C25.0373 50.877 25.3747 52.1882 25.3747 53.5798C25.3747 58.1318 21.7645 61.822 17.3111 61.822C15.3519 61.822 13.556 61.108 12.1588 59.9204L3.19359 53.3256C2.14217 52.552 1.93116 51.0658 2.72575 50.0304C3.07175 49.5794 3.55027 49.29 4.06473 49.1752L3.21279 48.4602C2.21697 47.6246 2.08707 46.14 2.92267 45.1442C3.27769 44.721 3.74989 44.4542 4.25199 44.3514L3.99031 44.1318C2.99449 43.2964 2.86461 41.8116 3.70019 40.8158C4.53579 39.82 6.02045 39.6902 7.01627 40.5258L7.98701 41.3402C7.49881 40.5388 7.54891 39.483 8.18557 38.7244Z" fill="url(#paint18_linear_18_2223)"/>
<path d="M8.18557 38.7244C8.98403 37.7728 10.4027 37.6486 11.3543 38.4472L17.2983 43.4346L16.7972 41.6406C16.4495 40.3956 17.1769 39.1046 18.4218 38.7568C19.6734 38.4072 20.9701 39.1444 21.3101 40.3986L22.6871 45.4782L24.3599 49.5024C24.3907 49.5764 24.4179 49.6514 24.4415 49.7272C25.0373 50.877 25.3747 52.1882 25.3747 53.5798C25.3747 58.1318 21.7645 61.822 17.3111 61.822C15.3519 61.822 13.556 61.108 12.1588 59.9204L3.19359 53.3256C2.14217 52.552 1.93116 51.0658 2.72575 50.0304C3.07175 49.5794 3.55027 49.29 4.06473 49.1752L3.21279 48.4602C2.21697 47.6246 2.08707 46.14 2.92267 45.1442C3.27769 44.721 3.74989 44.4542 4.25199 44.3514L3.99031 44.1318C2.99449 43.2964 2.86461 41.8116 3.70019 40.8158C4.53579 39.82 6.02045 39.6902 7.01627 40.5258L7.98701 41.3402C7.49881 40.5388 7.54891 39.483 8.18557 38.7244Z" fill="url(#paint19_radial_18_2223)"/>
</g>
<path d="M6.0447 49.5273C5.00896 48.7781 3.56516 48.9891 2.787 50.0033C1.98117 51.0535 2.19574 52.5607 3.26264 53.3443L4.33378 54.1311C5.7108 55.1425 7.60412 55.0675 8.89694 53.9505L10.3839 52.6659L6.0447 49.5273Z" fill="url(#paint20_linear_18_2223)"/>
<path d="M12.3125 50.3434C11.875 50.5934 10.355 51.1704 9.99999 51.5934C9.16439 52.5892 8.69871 52.8714 7.70289 52.0358L3.44095 48.4596C2.44513 47.624 2.31523 46.1394 3.15083 45.1436C4.00575 44.1248 5.12917 44.1108 6.13377 44.9824L12.3125 50.3434Z" fill="url(#paint21_linear_18_2223)"/>
<path d="M14.7499 47.5625C13.9999 47.9687 13.4999 48.4375 12.7186 49.0937C11.883 50.0895 11.3706 50.5295 10.3748 49.6939L4.0308 44.1315C3.03498 43.2959 2.90508 41.8113 3.74068 40.8155C4.57626 39.8197 6.06092 39.6897 7.05674 40.5253L8.0275 41.3399C8.15158 41.5437 8.31044 41.7309 8.50328 41.8927L14.7499 47.5625Z" fill="url(#paint22_linear_18_2223)"/>
<path d="M11.2838 38.3535C10.3936 37.6067 9.06654 37.7229 8.31962 38.6131C7.50362 39.5855 7.72808 41.0537 8.7974 41.7379L18.4375 47.9065L17.3372 43.4315L11.2838 38.3535Z" fill="url(#paint23_radial_18_2223)"/>
<g filter="url(#filter3_f_18_2223)">
<path d="M10.3843 39.7422L16.5093 45.0546" stroke="url(#paint24_linear_18_2223)" stroke-width="1.5" stroke-linecap="round"/>
</g>
<g filter="url(#filter4_f_18_2223)">
<path d="M5.90771 41.7422L12.0327 47.0546" stroke="url(#paint25_linear_18_2223)" stroke-width="1.5" stroke-linecap="round"/>
</g>
<g filter="url(#filter5_f_18_2223)">
<path d="M4.87646 45.8037L11.0015 51.1163" stroke="url(#paint26_linear_18_2223)" stroke-width="1.5" stroke-linecap="round"/>
</g>
<g filter="url(#filter6_f_18_2223)">
<path d="M4.87646 50.5L9.43766 53.8436" stroke="url(#paint27_linear_18_2223)" stroke-width="1.5" stroke-linecap="round"/>
</g>
<g filter="url(#filter7_i_18_2223)">
<path d="M55.8455 38.7458C55.0471 37.7942 53.6283 37.6702 52.6767 38.4686L46.7328 43.4562L47.2338 41.662C47.5814 40.417 46.8542 39.126 45.6092 38.7782C44.3576 38.4288 43.0608 39.1658 42.7208 40.42L41.3438 45.4998L39.6711 49.524C39.6405 49.598 39.6132 49.673 39.5896 49.7488C38.9938 50.8984 38.6562 52.2096 38.6562 53.6014C38.6562 58.1534 42.2665 61.8434 46.7201 61.8434C48.6791 61.8434 50.475 61.1294 51.8722 59.9418L60.8374 53.347C61.8888 52.5736 62.0998 51.0874 61.3052 50.0518C60.9592 49.6008 60.4809 49.3116 59.9663 49.1966L60.8182 48.4816C61.814 47.646 61.944 46.1614 61.1084 45.1656C60.7532 44.7426 60.281 44.4758 59.779 44.373L60.0406 44.1534C61.0364 43.3178 61.1664 41.833 60.3308 40.8372C59.4952 39.8414 58.0107 39.7116 57.0149 40.5472L56.044 41.3618C56.5322 40.5602 56.4821 39.5046 55.8455 38.7458Z" fill="url(#paint28_radial_18_2223)"/>
<path d="M55.8455 38.7458C55.0471 37.7942 53.6283 37.6702 52.6767 38.4686L46.7328 43.4562L47.2338 41.662C47.5814 40.417 46.8542 39.126 45.6092 38.7782C44.3576 38.4288 43.0608 39.1658 42.7208 40.42L41.3438 45.4998L39.6711 49.524C39.6405 49.598 39.6132 49.673 39.5896 49.7488C38.9938 50.8984 38.6562 52.2096 38.6562 53.6014C38.6562 58.1534 42.2665 61.8434 46.7201 61.8434C48.6791 61.8434 50.475 61.1294 51.8722 59.9418L60.8374 53.347C61.8888 52.5736 62.0998 51.0874 61.3052 50.0518C60.9592 49.6008 60.4809 49.3116 59.9663 49.1966L60.8182 48.4816C61.814 47.646 61.944 46.1614 61.1084 45.1656C60.7532 44.7426 60.281 44.4758 59.779 44.373L60.0406 44.1534C61.0364 43.3178 61.1664 41.833 60.3308 40.8372C59.4952 39.8414 58.0107 39.7116 57.0149 40.5472L56.044 41.3618C56.5322 40.5602 56.4821 39.5046 55.8455 38.7458Z" fill="url(#paint29_linear_18_2223)"/>
<path d="M55.8455 38.7458C55.0471 37.7942 53.6283 37.6702 52.6767 38.4686L46.7328 43.4562L47.2338 41.662C47.5814 40.417 46.8542 39.126 45.6092 38.7782C44.3576 38.4288 43.0608 39.1658 42.7208 40.42L41.3438 45.4998L39.6711 49.524C39.6405 49.598 39.6132 49.673 39.5896 49.7488C38.9938 50.8984 38.6562 52.2096 38.6562 53.6014C38.6562 58.1534 42.2665 61.8434 46.7201 61.8434C48.6791 61.8434 50.475 61.1294 51.8722 59.9418L60.8374 53.347C61.8888 52.5736 62.0998 51.0874 61.3052 50.0518C60.9592 49.6008 60.4809 49.3116 59.9663 49.1966L60.8182 48.4816C61.814 47.646 61.944 46.1614 61.1084 45.1656C60.7532 44.7426 60.281 44.4758 59.779 44.373L60.0406 44.1534C61.0364 43.3178 61.1664 41.833 60.3308 40.8372C59.4952 39.8414 58.0107 39.7116 57.0149 40.5472L56.044 41.3618C56.5322 40.5602 56.4821 39.5046 55.8455 38.7458Z" fill="url(#paint30_linear_18_2223)"/>
<path d="M55.8455 38.7458C55.0471 37.7942 53.6283 37.6702 52.6767 38.4686L46.7328 43.4562L47.2338 41.662C47.5814 40.417 46.8542 39.126 45.6092 38.7782C44.3576 38.4288 43.0608 39.1658 42.7208 40.42L41.3438 45.4998L39.6711 49.524C39.6405 49.598 39.6132 49.673 39.5896 49.7488C38.9938 50.8984 38.6562 52.2096 38.6562 53.6014C38.6562 58.1534 42.2665 61.8434 46.7201 61.8434C48.6791 61.8434 50.475 61.1294 51.8722 59.9418L60.8374 53.347C61.8888 52.5736 62.0998 51.0874 61.3052 50.0518C60.9592 49.6008 60.4809 49.3116 59.9663 49.1966L60.8182 48.4816C61.814 47.646 61.944 46.1614 61.1084 45.1656C60.7532 44.7426 60.281 44.4758 59.779 44.373L60.0406 44.1534C61.0364 43.3178 61.1664 41.833 60.3308 40.8372C59.4952 39.8414 58.0107 39.7116 57.0149 40.5472L56.044 41.3618C56.5322 40.5602 56.4821 39.5046 55.8455 38.7458Z" fill="url(#paint31_radial_18_2223)"/>
</g>
<path d="M57.9909 49.5243C59.0243 48.7769 60.4647 48.9873 61.2411 49.9991C62.0477 51.0501 61.8295 52.5593 60.7583 53.3389L59.4989 54.2553C57.6069 55.6321 54.9357 55.0307 53.8163 52.9759L53.6475 52.6659L57.9909 49.5243Z" fill="url(#paint32_linear_18_2223)"/>
<path d="M52.1816 50.0362C51.5356 50.5934 52.0712 51.6128 52.4262 52.0358C53.2618 53.0316 55.3324 52.8714 56.3282 52.0358L60.5902 48.4596C61.586 47.624 61.8868 46.1282 61.0512 45.1324C60.1542 44.0634 58.8752 44.142 57.8278 45.0642L52.1816 50.0362Z" fill="url(#paint33_linear_18_2223)"/>
<path d="M50.3402 46.4229C49.3368 47.2815 49.67 48.6051 50.3402 49.4037C51.1758 50.3997 52.6604 50.5295 53.6562 49.6939L60.0002 44.1315C60.996 43.2959 61.126 41.8113 60.2904 40.8155C59.4548 39.8197 57.9702 39.6897 56.9744 40.5253L56.0036 41.3399C55.8794 41.5437 55.7206 41.7309 55.5278 41.8927L50.3402 46.4229Z" fill="url(#paint34_linear_18_2223)"/>
<path d="M52.6195 38.461C53.5805 37.6548 55.0129 37.7802 55.8193 38.741C56.6145 39.6888 56.5051 41.0986 55.5733 41.9122L51.2017 45.7292C49.3505 47.3456 46.4737 45.8792 46.6941 43.4314L52.6195 38.461Z" fill="url(#paint35_linear_18_2223)"/>
<g filter="url(#filter8_f_18_2223)">
<path d="M44.8778 41.5347C45.5591 41.9939 46.4444 41.8721 46.8552 41.2626C47.266 40.6531 47.0467 39.7867 46.3654 39.3275C45.6841 38.8683 44.7988 38.9902 44.388 39.5997C43.9772 40.2092 44.1965 41.0756 44.8778 41.5347Z" fill="url(#paint36_radial_18_2223)"/>
</g>
<g filter="url(#filter9_f_18_2223)">
<path d="M53.1567 40.5923C53.5302 41.3906 54.4551 41.7466 55.2224 41.3876C55.9897 41.0286 56.3089 40.0904 55.9354 39.2921C55.5618 38.4938 54.637 38.1377 53.8697 38.4968C53.1024 38.8558 52.7832 39.794 53.1567 40.5923Z" fill="url(#paint37_radial_18_2223)"/>
</g>
<g filter="url(#filter10_f_18_2223)">
<path d="M58.2756 42.7367C58.6491 43.5349 59.4636 43.9426 60.0948 43.6473C60.726 43.3519 60.9349 42.4654 60.5614 41.6671C60.1878 40.8688 59.3733 40.4611 58.7421 40.7565C58.1109 41.0518 57.9021 41.9384 58.2756 42.7367Z" fill="url(#paint38_radial_18_2223)"/>
</g>
<g filter="url(#filter11_f_18_2223)">
<path d="M59.0127 47.0804C59.3862 47.8787 60.2007 48.2864 60.8319 47.991C61.4631 47.6957 61.6719 46.8091 61.2984 46.0108C60.9249 45.2126 60.1104 44.8049 59.4792 45.1002C58.848 45.3956 58.6391 46.2821 59.0127 47.0804Z" fill="url(#paint39_radial_18_2223)"/>
</g>
<g filter="url(#filter12_f_18_2223)">
<path d="M59.2314 51.9261C59.6049 52.7244 60.4194 53.1321 61.0506 52.8367C61.6818 52.5414 61.8907 51.6548 61.5172 50.8565C61.1436 50.0583 60.3291 49.6506 59.6979 49.9459C59.0668 50.2413 58.8579 51.1278 59.2314 51.9261Z" fill="url(#paint40_radial_18_2223)"/>
</g>
<g filter="url(#filter13_f_18_2223)">
<path d="M46.1921 46.25C49.7547 47.75 52.6921 51.4376 52.6921 55.125" stroke="#FFEA6E" stroke-opacity="0.6" stroke-width="1.5" stroke-linecap="round"/>
</g>
<defs>
<filter id="filter0_f_18_2223" x="35.6245" y="16.4961" width="13.2505" height="9.25391" filterUnits="userSpaceOnUse" color-interpolation-filters="sRGB">
<feFlood flood-opacity="0" result="BackgroundImageFix"/>
<feBlend mode="normal" in="SourceGraphic" in2="BackgroundImageFix" result="shape"/>
<feGaussianBlur stdDeviation="0.375" result="effect1_foregroundBlur_18_2223"/>
</filter>
<filter id="filter1_f_18_2223" x="14.3745" y="16.4961" width="13.2505" height="9.25391" filterUnits="userSpaceOnUse" color-interpolation-filters="sRGB">
<feFlood flood-opacity="0" result="BackgroundImageFix"/>
<feBlend mode="normal" in="SourceGraphic" in2="BackgroundImageFix" result="shape"/>
<feGaussianBlur stdDeviation="0.375" result="effect1_foregroundBlur_18_2223"/>
</filter>
<filter id="filter2_i_18_2223" x="2.24414" y="34.9209" width="26.1306" height="26.9014" filterUnits="userSpaceOnUse" color-interpolation-filters="sRGB">
<feFlood flood-opacity="0" result="BackgroundImageFix"/>
<feBlend mode="normal" in="SourceGraphic" in2="BackgroundImageFix" result="shape"/>
<feColorMatrix in="SourceAlpha" type="matrix" values="0 0 0 0 0 0 0 0 0 0 0 0 0 0 0 0 0 0 127 0" result="hardAlpha"/>
<feOffset dx="3" dy="-3"/>
<feGaussianBlur stdDeviation="3"/>
<feComposite in2="hardAlpha" operator="arithmetic" k2="-1" k3="1"/>
<feColorMatrix type="matrix" values="0 0 0 0 0 0 0 0 0 0 0 0 0 0 0 0 0 0 0.08 0"/>
<feBlend mode="normal" in2="shape" result="effect1_innerShadow_18_2223"/>
</filter>
<filter id="filter3_f_18_2223" x="8.13428" y="37.4922" width="10.625" height="9.8125" filterUnits="userSpaceOnUse" color-interpolation-filters="sRGB">
<feFlood flood-opacity="0" result="BackgroundImageFix"/>
<feBlend mode="normal" in="SourceGraphic" in2="BackgroundImageFix" result="shape"/>
<feGaussianBlur stdDeviation="0.75" result="effect1_foregroundBlur_18_2223"/>
</filter>
<filter id="filter4_f_18_2223" x="3.65771" y="39.4922" width="10.625" height="9.8125" filterUnits="userSpaceOnUse" color-interpolation-filters="sRGB">
<feFlood flood-opacity="0" result="BackgroundImageFix"/>
<feBlend mode="normal" in="SourceGraphic" in2="BackgroundImageFix" result="shape"/>
<feGaussianBlur stdDeviation="0.75" result="effect1_foregroundBlur_18_2223"/>
</filter>
<filter id="filter5_f_18_2223" x="2.62646" y="43.5537" width="10.625" height="9.8125" filterUnits="userSpaceOnUse" color-interpolation-filters="sRGB">
<feFlood flood-opacity="0" result="BackgroundImageFix"/>
<feBlend mode="normal" in="SourceGraphic" in2="BackgroundImageFix" result="shape"/>
<feGaussianBlur stdDeviation="0.75" result="effect1_foregroundBlur_18_2223"/>
</filter>
<filter id="filter6_f_18_2223" x="2.62646" y="48.25" width="9.06128" height="7.84375" filterUnits="userSpaceOnUse" color-interpolation-filters="sRGB">
<feFlood flood-opacity="0" result="BackgroundImageFix"/>
<feBlend mode="normal" in="SourceGraphic" in2="BackgroundImageFix" result="shape"/>
<feGaussianBlur stdDeviation="0.75" result="effect1_foregroundBlur_18_2223"/>
</filter>
<filter id="filter7_i_18_2223" x="38.6562" y="34.9424" width="26.1306" height="26.9014" filterUnits="userSpaceOnUse" color-interpolation-filters="sRGB">
<feFlood flood-opacity="0" result="BackgroundImageFix"/>
<feBlend mode="normal" in="SourceGraphic" in2="BackgroundImageFix" result="shape"/>
<feColorMatrix in="SourceAlpha" type="matrix" values="0 0 0 0 0 0 0 0 0 0 0 0 0 0 0 0 0 0 127 0" result="hardAlpha"/>
<feOffset dx="3" dy="-3"/>
<feGaussianBlur stdDeviation="3"/>
<feComposite in2="hardAlpha" operator="arithmetic" k2="-1" k3="1"/>
<feColorMatrix type="matrix" values="0 0 0 0 0 0 0 0 0 0 0 0 0 0 0 0 0 0 0.08 0"/>
<feBlend mode="normal" in2="shape" result="effect1_innerShadow_18_2223"/>
</filter>
<filter id="filter8_f_18_2223" x="43.4309" y="38.2988" width="4.38135" height="4.26367" filterUnits="userSpaceOnUse" color-interpolation-filters="sRGB">
<feFlood flood-opacity="0" result="BackgroundImageFix"/>
<feBlend mode="normal" in="SourceGraphic" in2="BackgroundImageFix" result="shape"/>
<feGaussianBlur stdDeviation="0.375" result="effect1_foregroundBlur_18_2223"/>
</filter>
<filter id="filter9_f_18_2223" x="52.2505" y="37.6064" width="4.59106" height="4.6709" filterUnits="userSpaceOnUse" color-interpolation-filters="sRGB">
<feFlood flood-opacity="0" result="BackgroundImageFix"/>
<feBlend mode="normal" in="SourceGraphic" in2="BackgroundImageFix" result="shape"/>
<feGaussianBlur stdDeviation="0.375" result="effect1_foregroundBlur_18_2223"/>
</filter>
<filter id="filter10_f_18_2223" x="57.3403" y="39.9102" width="4.15625" height="4.58301" filterUnits="userSpaceOnUse" color-interpolation-filters="sRGB">
<feFlood flood-opacity="0" result="BackgroundImageFix"/>
<feBlend mode="normal" in="SourceGraphic" in2="BackgroundImageFix" result="shape"/>
<feGaussianBlur stdDeviation="0.375" result="effect1_foregroundBlur_18_2223"/>
</filter>
<filter id="filter11_f_18_2223" x="58.0774" y="44.2539" width="4.15625" height="4.58301" filterUnits="userSpaceOnUse" color-interpolation-filters="sRGB">
<feFlood flood-opacity="0" result="BackgroundImageFix"/>
<feBlend mode="normal" in="SourceGraphic" in2="BackgroundImageFix" result="shape"/>
<feGaussianBlur stdDeviation="0.375" result="effect1_foregroundBlur_18_2223"/>
</filter>
<filter id="filter12_f_18_2223" x="58.2961" y="49.0996" width="4.15625" height="4.58301" filterUnits="userSpaceOnUse" color-interpolation-filters="sRGB">
<feFlood flood-opacity="0" result="BackgroundImageFix"/>
<feBlend mode="normal" in="SourceGraphic" in2="BackgroundImageFix" result="shape"/>
<feGaussianBlur stdDeviation="0.375" result="effect1_foregroundBlur_18_2223"/>
</filter>
<filter id="filter13_f_18_2223" x="43.1919" y="43.25" width="12.5002" height="14.875" filterUnits="userSpaceOnUse" color-interpolation-filters="sRGB">
<feFlood flood-opacity="0" result="BackgroundImageFix"/>
<feBlend mode="normal" in="SourceGraphic" in2="BackgroundImageFix" result="shape"/>
<feGaussianBlur stdDeviation="1.125" result="effect1_foregroundBlur_18_2223"/>
</filter>
<radialGradient id="paint0_radial_18_2223" cx="0" cy="0" r="1" gradientUnits="userSpaceOnUse" gradientTransform="translate(51 18) rotate(132.839) scale(75.0066)">
<stop stop-color="#FFF478"/>
<stop offset="0.474827" stop-color="#FFB02E"/>
<stop offset="1" stop-color="#F70A8D"/>
</radialGradient>
<radialGradient id="paint1_radial_18_2223" cx="0" cy="0" r="1" gradientUnits="userSpaceOnUse" gradientTransform="translate(51 18) rotate(131.878) scale(77.8974)">
<stop stop-color="#FFF478"/>
<stop offset="0.474827" stop-color="#FFB02E"/>
<stop offset="1" stop-color="#F70A8D"/>
</radialGradient>
<radialGradient id="paint2_radial_18_2223" cx="0" cy="0" r="1" gradientUnits="userSpaceOnUse" gradientTransform="translate(32 25) rotate(101.31) scale(35.6932 45.7162)">
<stop offset="0.787821" stop-color="#F59639" stop-opacity="0"/>
<stop offset="0.972509" stop-color="#FF7DCE"/>
</radialGradient>
<radialGradient id="paint3_radial_18_2223" cx="0" cy="0" r="1" gradientUnits="userSpaceOnUse" gradientTransform="translate(36 28) rotate(135) scale(82.0244)">
<stop offset="0.314853" stop-opacity="0"/>
<stop offset="1"/>
</radialGradient>
<radialGradient id="paint4_radial_18_2223" cx="0" cy="0" r="1" gradientUnits="userSpaceOnUse" gradientTransform="translate(32 34) rotate(77.692) scale(56.2938)">
<stop offset="0.507903" stop-color="#7D6133" stop-opacity="0"/>
<stop offset="1" stop-color="#715B32"/>
</radialGradient>
<radialGradient id="paint5_radial_18_2223" cx="0" cy="0" r="1" gradientUnits="userSpaceOnUse" gradientTransform="translate(33 33) rotate(55.7131) scale(26.627 19.3006)">
<stop stop-color="#FFB849"/>
<stop offset="1" stop-color="#FFB847" stop-opacity="0"/>
</radialGradient>
<radialGradient id="paint6_radial_18_2223" cx="0" cy="0" r="1" gradientUnits="userSpaceOnUse" gradientTransform="translate(41 36) rotate(9.86581) scale(23.3452)">
<stop stop-color="#FFA64B"/>
<stop offset="0.900412" stop-color="#FFAE46" stop-opacity="0"/>
</radialGradient>
<radialGradient id="paint7_radial_18_2223" cx="0" cy="0" r="1" gradientUnits="userSpaceOnUse" gradientTransform="translate(35 30) rotate(43.9708) scale(118.106)">
<stop offset="0.185425" stop-opacity="0"/>
<stop offset="1" stop-opacity="0.4"/>
</radialGradient>
<radialGradient id="paint8_radial_18_2223" cx="0" cy="0" r="1" gradientUnits="userSpaceOnUse" gradientTransform="translate(38.5 -9.125) rotate(96.1759) scale(67.3912)">
<stop offset="0.640625" stop-color="#F59639" stop-opacity="0"/>
<stop offset="1" stop-color="#F68354"/>
</radialGradient>
<radialGradient id="paint9_radial_18_2223" cx="0" cy="0" r="1" gradientUnits="userSpaceOnUse" gradientTransform="translate(51.9956 29.8979) rotate(89.9953) scale(7.84414)">
<stop stop-color="#FF63C4" stop-opacity="0.5"/>
<stop offset="1" stop-color="#F59639" stop-opacity="0"/>
</radialGradient>
<radialGradient id="paint10_radial_18_2223" cx="0" cy="0" r="1" gradientUnits="userSpaceOnUse" gradientTransform="translate(12 29.8979) rotate(89.9953) scale(7.84414)">
<stop stop-color="#E840A8" stop-opacity="0.5"/>
<stop offset="1" stop-color="#F59639" stop-opacity="0"/>
</radialGradient>
<radialGradient id="paint11_radial_18_2223" cx="0" cy="0" r="1" gradientUnits="userSpaceOnUse" gradientTransform="translate(32 25.2) rotate(90) scale(14.4 15.7438)">
<stop offset="0.517632" stop-color="#4E2553"/>
<stop offset="0.702876" stop-color="#5B4852"/>
<stop offset="1" stop-color="#4E2553"/>
</radialGradient>
<radialGradient id="paint12_radial_18_2223" cx="0" cy="0" r="1" gradientUnits="userSpaceOnUse" gradientTransform="translate(45 20.1246) rotate(124.912) scale(7.31678 13.1351)">
<stop stop-color="#CA7A1B"/>
<stop offset="0.633527" stop-color="#CA7A1B" stop-opacity="0"/>
</radialGradient>
<radialGradient id="paint13_radial_18_2223" cx="0" cy="0" r="1" gradientUnits="userSpaceOnUse" gradientTransform="translate(23.75 20.1246) rotate(124.912) scale(7.31678 13.1351)">
<stop stop-color="#CA7A1B"/>
<stop offset="0.633527" stop-color="#CA7A1B" stop-opacity="0"/>
</radialGradient>
<radialGradient id="paint14_radial_18_2223" cx="0" cy="0" r="1" gradientUnits="userSpaceOnUse" gradientTransform="translate(21 22.375) rotate(-91.3479) scale(15.9419 19.6553)">
<stop offset="0.166667" stop-color="#482641"/>
<stop offset="0.276042" stop-color="#503A4A"/>
<stop offset="0.401042" stop-color="#483637"/>
</radialGradient>
<radialGradient id="paint15_radial_18_2223" cx="0" cy="0" r="1" gradientUnits="userSpaceOnUse" gradientTransform="translate(43 22.375) rotate(-91.3479) scale(15.9419 19.6553)">
<stop offset="0.166667" stop-color="#482641"/>
<stop offset="0.276042" stop-color="#503A4A"/>
<stop offset="0.401042" stop-color="#483637"/>
</radialGradient>
<radialGradient id="paint16_radial_18_2223" cx="0" cy="0" r="1" gradientUnits="userSpaceOnUse" gradientTransform="translate(-1.44802 36.7058) rotate(42.3946) scale(55.66 55.4932)">
<stop offset="0.25" stop-color="#F9AF20"/>
<stop offset="0.640625" stop-color="#FFC83C"/>
</radialGradient>
<linearGradient id="paint17_linear_18_2223" x1="31.3747" y1="46.6252" x2="16.9278" y2="52.7504" gradientUnits="userSpaceOnUse">
<stop offset="0.328125" stop-color="#FFF478"/>
<stop offset="0.723958" stop-color="#FFF478" stop-opacity="0"/>
</linearGradient>
<linearGradient id="paint18_linear_18_2223" x1="33.6361" y1="21.5202" x2="5.97027" y2="62.8008" gradientUnits="userSpaceOnUse">
<stop offset="0.84375" stop-color="#FF63C4" stop-opacity="0"/>
<stop offset="0.941307" stop-color="#FF63C4"/>
</linearGradient>
<radialGradient id="paint19_radial_18_2223" cx="0" cy="0" r="1" gradientUnits="userSpaceOnUse" gradientTransform="translate(10.2765 34.6252) rotate(67.2716) scale(33 25.6124)">
<stop offset="0.776042" stop-color="#FD61C2" stop-opacity="0"/>
<stop offset="0.941307" stop-color="#FF63C4"/>
</radialGradient>
<linearGradient id="paint20_linear_18_2223" x1="6.34356" y1="48.3127" x2="5.23918" y2="49.9973" gradientUnits="userSpaceOnUse">
<stop offset="0.385833" stop-color="#83480A"/>
<stop offset="0.545035" stop-color="#CD7313"/>
<stop offset="1" stop-color="#FA9428" stop-opacity="0"/>
</linearGradient>
<linearGradient id="paint21_linear_18_2223" x1="9.62499" y1="45.9684" x2="8.05455" y2="47.911" gradientUnits="userSpaceOnUse">
<stop offset="0.385833" stop-color="#83480A"/>
<stop offset="0.545035" stop-color="#CD7313"/>
<stop offset="1" stop-color="#FA9428" stop-opacity="0"/>
</linearGradient>
<linearGradient id="paint22_linear_18_2223" x1="12.1249" y1="42.5625" x2="10.2635" y2="44.6257" gradientUnits="userSpaceOnUse">
<stop offset="0.385833" stop-color="#83480A"/>
<stop offset="0.545035" stop-color="#CD7313"/>
<stop offset="1" stop-color="#FA9428" stop-opacity="0"/>
</linearGradient>
<radialGradient id="paint23_radial_18_2223" cx="0" cy="0" r="1" gradientUnits="userSpaceOnUse" gradientTransform="translate(19.0625 39.9379) rotate(152.835) scale(5.3389 13.2627)">
<stop offset="0.385833" stop-color="#83480A"/>
<stop offset="0.545035" stop-color="#CD7313"/>
<stop offset="1" stop-color="#FA9428" stop-opacity="0"/>
</radialGradient>
<linearGradient id="paint24_linear_18_2223" x1="7.82178" y1="39.7422" x2="14.3745" y2="50.0592" gradientUnits="userSpaceOnUse">
<stop offset="0.328125" stop-color="#FFF478" stop-opacity="0.5"/>
<stop offset="0.723958" stop-color="#FFF478" stop-opacity="0"/>
</linearGradient>
<linearGradient id="paint25_linear_18_2223" x1="3.34522" y1="41.7422" x2="9.89798" y2="52.0592" gradientUnits="userSpaceOnUse">
<stop offset="0.328125" stop-color="#FFF478" stop-opacity="0.5"/>
<stop offset="0.723958" stop-color="#FFF478" stop-opacity="0"/>
</linearGradient>
<linearGradient id="paint26_linear_18_2223" x1="2.31396" y1="45.8037" x2="8.86672" y2="56.1207" gradientUnits="userSpaceOnUse">
<stop offset="0.328125" stop-color="#FFF478" stop-opacity="0.5"/>
<stop offset="0.723958" stop-color="#FFF478" stop-opacity="0"/>
</linearGradient>
<linearGradient id="paint27_linear_18_2223" x1="2.31396" y1="50.5" x2="8.86673" y2="60.817" gradientUnits="userSpaceOnUse">
<stop offset="0.328125" stop-color="#FFF478" stop-opacity="0.5"/>
<stop offset="0.723958" stop-color="#FFF478" stop-opacity="0"/>
</linearGradient>
<radialGradient id="paint28_radial_18_2223" cx="0" cy="0" r="1" gradientUnits="userSpaceOnUse" gradientTransform="translate(65.479 36.7272) rotate(137.605) scale(55.66 55.4932)">
<stop offset="0.230303" stop-color="#F9AF20"/>
<stop offset="0.538057" stop-color="#FFD362"/>
<stop offset="0.82425" stop-color="#F9AF20"/>
</radialGradient>
<linearGradient id="paint29_linear_18_2223" x1="34.6251" y1="48.6248" x2="46.25" y2="49.893" gradientUnits="userSpaceOnUse">
<stop offset="0.213542" stop-color="#CC6C07"/>
<stop offset="0.328125" stop-color="#EE891E"/>
<stop offset="0.864583" stop-color="#FA9428" stop-opacity="0"/>
</linearGradient>
<linearGradient id="paint30_linear_18_2223" x1="30.3949" y1="21.5416" x2="58.0609" y2="62.8222" gradientUnits="userSpaceOnUse">
<stop offset="0.84375" stop-color="#FF63C4" stop-opacity="0"/>
<stop offset="0.941307" stop-color="#FF63C4"/>
</linearGradient>
<radialGradient id="paint31_radial_18_2223" cx="0" cy="0" r="1" gradientUnits="userSpaceOnUse" gradientTransform="translate(53.7546 34.6468) rotate(112.728) scale(33 25.6124)">
<stop offset="0.776042" stop-color="#FD61C2" stop-opacity="0"/>
<stop offset="0.941307" stop-color="#FF63C4"/>
</radialGradient>
<linearGradient id="paint32_linear_18_2223" x1="57.8867" y1="48.0101" x2="58.9665" y2="49.6689" gradientUnits="userSpaceOnUse">
<stop offset="0.385833" stop-color="#83480A"/>
<stop offset="0.545035" stop-color="#CD7313"/>
<stop offset="1" stop-color="#FA9428" stop-opacity="0"/>
</linearGradient>
<linearGradient id="paint33_linear_18_2223" x1="54.0356" y1="45.5622" x2="55.94" y2="47.6808" gradientUnits="userSpaceOnUse">
<stop offset="0.385833" stop-color="#83480A"/>
<stop offset="0.545035" stop-color="#CD7313"/>
<stop offset="1" stop-color="#FA9428" stop-opacity="0"/>
</linearGradient>
<linearGradient id="paint34_linear_18_2223" x1="51.9826" y1="41.9899" x2="53.9532" y2="44.3591" gradientUnits="userSpaceOnUse">
<stop offset="0.385833" stop-color="#83480A"/>
<stop offset="0.545035" stop-color="#CD7313"/>
<stop offset="1" stop-color="#FA9428" stop-opacity="0"/>
</linearGradient>
<linearGradient id="paint35_linear_18_2223" x1="52.2411" y1="37.1658" x2="53.9221" y2="39.2128" gradientUnits="userSpaceOnUse">
<stop offset="0.328125" stop-color="#EE891E"/>
<stop offset="0.864583" stop-color="#FA9428" stop-opacity="0"/>
</linearGradient>
<radialGradient id="paint36_radial_18_2223" cx="0" cy="0" r="1" gradientTransform="matrix(-1.47348 0.761799 -0.837511 -1.61992 45.6216 40.4311)" gradientUnits="userSpaceOnUse">
<stop offset="0.328125" stop-color="#FAF194" stop-opacity="0.2"/>
<stop offset="0.723958" stop-color="#FFF478" stop-opacity="0"/>
</radialGradient>
<radialGradient id="paint37_radial_18_2223" cx="0" cy="0" r="1" gradientUnits="userSpaceOnUse" gradientTransform="translate(54.546 39.9422) rotate(-178.093) scale(1.88214 1.9871)">
<stop offset="0.328125" stop-color="#FAF194" stop-opacity="0.4"/>
<stop offset="0.723958" stop-color="#FFF478" stop-opacity="0"/>
</radialGradient>
<radialGradient id="paint38_radial_18_2223" cx="0" cy="0" r="1" gradientUnits="userSpaceOnUse" gradientTransform="translate(59.4185 42.2019) rotate(-173.32) scale(1.62262 1.89604)">
<stop offset="0.390625" stop-color="#FAF194" stop-opacity="0.3"/>
<stop offset="0.8125" stop-color="#FFF478" stop-opacity="0"/>
</radialGradient>
<radialGradient id="paint39_radial_18_2223" cx="0" cy="0" r="1" gradientUnits="userSpaceOnUse" gradientTransform="translate(60.1555 46.5456) rotate(-173.32) scale(1.62262 1.89603)">
<stop offset="0.328125" stop-color="#FAF194" stop-opacity="0.3"/>
<stop offset="0.723958" stop-color="#FFF478" stop-opacity="0"/>
</radialGradient>
<radialGradient id="paint40_radial_18_2223" cx="0" cy="0" r="1" gradientUnits="userSpaceOnUse" gradientTransform="translate(60.3743 51.3913) rotate(-173.32) scale(1.62262 1.89604)">
<stop offset="0.328125" stop-color="#FAF194" stop-opacity="0.3"/>
<stop offset="0.723958" stop-color="#FFF478" stop-opacity="0"/>
</radialGradient>
</defs>
</svg>
