<svg width="32" height="32" viewBox="0 0 32 32" fill="none" xmlns="http://www.w3.org/2000/svg">
<g clip-path="url(#clip0_11277_3764)">
<rect width="32" height="32" rx="16" fill="white"/>
<path d="M32 6.85714C32 3.07005 28.93 0 25.1429 0H6.85714C3.07005 0 0 3.07005 0 6.85714V25.1429C0 28.93 3.07005 32 6.85714 32H25.1429C28.93 32 32 28.93 32 25.1429V6.85714Z" fill="#3B99FC"/>
<path d="M9.58822 11.8559C13.1294 8.31472 18.8706 8.31472 22.4118 11.8559L22.8379 12.2821C23.0151 12.4591 23.0151 12.7462 22.8379 12.9232L21.3801 14.3811C21.2915 14.4696 21.148 14.4696 21.0595 14.3811L20.473 13.7946C18.0026 11.3242 13.9974 11.3242 11.527 13.7946L10.8989 14.4226C10.8104 14.5112 10.6669 14.5112 10.5783 14.4226L9.12045 12.9648C8.94339 12.7878 8.94339 12.5007 9.12045 12.3237L9.58822 11.8559ZM25.4269 14.8709L26.7243 16.1685C26.9014 16.3455 26.9014 16.6326 26.7243 16.8096L20.8737 22.6602C20.6967 22.8374 20.4096 22.8374 20.2326 22.6602L16.0802 18.5079C16.0359 18.4637 15.9641 18.4637 15.9199 18.5079L11.7675 22.6602C11.5905 22.8374 11.3035 22.8374 11.1264 22.6603L5.27565 16.8095C5.09859 16.6325 5.09859 16.3454 5.27565 16.1683L6.57317 14.8709C6.75023 14.6937 7.03729 14.6937 7.21434 14.8709L11.3668 19.0233C11.4111 19.0675 11.4829 19.0675 11.5271 19.0233L15.6793 14.8709C15.8563 14.6937 16.1434 14.6937 16.3206 14.8709L20.473 19.0233C20.5173 19.0675 20.589 19.0675 20.6333 19.0233L24.7856 14.8709C24.9627 14.6938 25.2498 14.6938 25.4269 14.8709Z" fill="white"/>
</g>
<defs>
<clipPath id="clip0_11277_3764">
<rect width="32" height="32" rx="16" fill="white"/>
</clipPath>
</defs>
</svg>
