<svg width="24" height="24" viewBox="0 0 24 24" fill="none" xmlns="http://www.w3.org/2000/svg">
<g id="Transaction-order (&#228;&#186;&#164;&#230;&#152;&#147;&#230;&#184;&#133;&#229;&#141;&#149;)">
<path id="Union" fill-rule="evenodd" clip-rule="evenodd" d="M9.75 2.00098C9.75 1.58676 9.41421 1.25098 9 1.25098C8.58579 1.25098 8.25 1.58676 8.25 2.00098V3.25098H5.5C4.5335 3.25098 3.75 4.03448 3.75 5.00098V21.001C3.75 21.9675 4.5335 22.751 5.5 22.751H18.5C19.4665 22.751 20.25 21.9675 20.25 21.001V5.00098C20.25 4.03448 19.4665 3.25098 18.5 3.25098H15.75V2.00098C15.75 1.58676 15.4142 1.25098 15 1.25098C14.5858 1.25098 14.25 1.58676 14.25 2.00098V3.25098H9.75V2.00098ZM14.25 5.00098V4.75098H9.75V5.00098C9.75 5.41519 9.41421 5.75098 9 5.75098C8.58579 5.75098 8.25 5.41519 8.25 5.00098V4.75098H5.5C5.36193 4.75098 5.25 4.86291 5.25 5.00098V21.001C5.25 21.139 5.36193 21.251 5.5 21.251H18.5C18.6381 21.251 18.75 21.139 18.75 21.001V5.00098C18.75 4.86291 18.6381 4.75098 18.5 4.75098H15.75V5.00098C15.75 5.41519 15.4142 5.75098 15 5.75098C14.5858 5.75098 14.25 5.41519 14.25 5.00098ZM8 8.75098C7.58579 8.75098 7.25 9.08676 7.25 9.50098C7.25 9.91519 7.58579 10.251 8 10.251H16C16.4142 10.251 16.75 9.91519 16.75 9.50098C16.75 9.08676 16.4142 8.75098 16 8.75098H8ZM7.25 13.501C7.25 13.0868 7.58579 12.751 8 12.751H14C14.4142 12.751 14.75 13.0868 14.75 13.501C14.75 13.9152 14.4142 14.251 14 14.251H8C7.58579 14.251 7.25 13.9152 7.25 13.501ZM8 16.751C7.58579 16.751 7.25 17.0868 7.25 17.501C7.25 17.9152 7.58579 18.251 8 18.251H12C12.4142 18.251 12.75 17.9152 12.75 17.501C12.75 17.0868 12.4142 16.751 12 16.751H8Z" fill="#1677FF"/>
</g>
</svg>
