<svg width="24" height="24" viewBox="0 0 24 24" fill="none" xmlns="http://www.w3.org/2000/svg">
<path fill-rule="evenodd" clip-rule="evenodd" d="M8.53033 1.46967C8.23744 1.17678 7.76256 1.17678 7.46967 1.46967C7.17678 1.76256 7.17678 2.23744 7.46967 2.53033L10.1893 5.25H2C1.58579 5.25 1.25 5.58579 1.25 6V10C1.25 10.4142 1.58579 10.75 2 10.75H2.75V22C2.75 22.4142 3.08579 22.75 3.5 22.75H12H20.5C20.9142 22.75 21.25 22.4142 21.25 22V10.75H22C22.4142 10.75 22.75 10.4142 22.75 10V6C22.75 5.58579 22.4142 5.25 22 5.25H13.8107L16.5303 2.53033C16.8232 2.23744 16.8232 1.76256 16.5303 1.46967C16.2374 1.17678 15.7626 1.17678 15.4697 1.46967L12 4.93934L8.53033 1.46967ZM12.75 10.75H19.75V21.25H12.75V10.75ZM4.25 10.75H11.25V21.25H4.25V10.75ZM21.25 9.25H20.5H12H3.5H2.75V6.75H21.25V9.25Z" fill="#0066FF"/>
</svg>
