<svg width="41" height="40" viewBox="0 0 41 40" fill="none" xmlns="http://www.w3.org/2000/svg">
<rect width="40" height="40" rx="20" transform="matrix(-1 0 0 1 40.25 0)" fill="#1677FF"/>
<path fill-rule="evenodd" clip-rule="evenodd" d="M13.6812 13.5688C13.6812 13.0166 14.1289 12.5688 14.6812 12.5688C15.2334 12.5688 15.6812 13.0166 15.6812 13.5688V23.1546L25.3071 13.5287C25.6976 13.1382 26.3307 13.1382 26.7213 13.5287C27.1118 13.9193 27.1118 14.5524 26.7213 14.9429L17.0954 24.5688H26.6812C27.2334 24.5688 27.6812 25.0166 27.6812 25.5688C27.6812 26.1211 27.2334 26.5688 26.6812 26.5688H14.7064C14.442 26.5756 14.1755 26.4781 13.9737 26.2763C13.7719 26.0745 13.6744 25.808 13.6812 25.5436V13.5688Z" fill="white"/>
</svg>
