<svg width="300" height="224" viewBox="0 0 300 224" fill="none" xmlns="http://www.w3.org/2000/svg">
<path d="M149.669 166.435C202.769 166.435 245.815 156.126 245.815 143.41C245.815 130.693 202.769 120.385 149.669 120.385C96.5699 120.385 53.5244 130.693 53.5244 143.41C53.5244 156.126 96.5699 166.435 149.669 166.435Z" fill="url(#paint0_linear_7884_3352)"/>
<path fill-rule="evenodd" clip-rule="evenodd" d="M227.247 119.727H228.04C228.368 119.727 228.635 119.992 228.635 120.319V128.345C228.635 128.422 228.619 128.499 228.589 128.571C228.559 128.643 228.516 128.708 228.46 128.763C228.405 128.818 228.34 128.862 228.267 128.892C228.195 128.921 228.118 128.937 228.04 128.937H227.247C227.169 128.937 227.092 128.921 227.019 128.892C226.947 128.862 226.882 128.818 226.827 128.763C226.771 128.708 226.728 128.643 226.698 128.571C226.668 128.499 226.652 128.422 226.652 128.345V120.319C226.652 119.992 226.919 119.727 227.247 119.727Z" fill="#F0F0F3" fill-opacity="0.9"/>
<path fill-rule="evenodd" clip-rule="evenodd" d="M141.167 62.4922V123.197L201.604 131.321V76.9745L141.167 62.4922Z" fill="#DDDDE7"/>
<path fill-rule="evenodd" clip-rule="evenodd" d="M96.0825 76.9745L141.167 62.4922V115.688L96.0825 132.039V76.9745Z" fill="#ECECF4"/>
<path d="M96.0825 76.9746V132.039L157.366 150.419V92.4396L96.0825 76.9746Z" fill="url(#paint1_linear_7884_3352)"/>
<path d="M157.366 92.4396V150.419L201.604 131.321V76.9746L157.366 92.4396Z" fill="url(#paint2_linear_7884_3352)"/>
<path fill-rule="evenodd" clip-rule="evenodd" d="M96.0826 76.9746L81.2776 98.8049L139.805 115.689L157.366 92.4396L96.0826 76.9746Z" fill="#F4F4F9"/>
<path fill-rule="evenodd" clip-rule="evenodd" d="M157.366 92.4396L172.037 117.682L217.976 97.6394L201.604 76.9746L157.366 92.4396Z" fill="url(#paint3_linear_7884_3352)"/>
<path fill-rule="evenodd" clip-rule="evenodd" d="M197.88 99.4075C194.764 102.798 192.898 104.893 192.28 105.692C192.034 106.039 193.054 107.019 195.339 108.631C198.501 108.427 199.84 108.592 199.354 109.124C199.034 109.453 197.819 110.425 197.397 109.871C197.116 109.502 195.974 109.266 193.97 109.163C190.055 109.03 188.794 107.501 190.189 104.575C191.583 101.65 193.135 99.1805 194.844 97.166L197.713 99.0939L197.88 99.4075Z" fill="url(#paint4_linear_7884_3352)"/>
<path fill-rule="evenodd" clip-rule="evenodd" d="M198.463 88.7856C197.968 91.2675 198.2 92.7273 199.16 93.1648C200.417 93.6905 199.204 94.918 198.95 95.0516C198.781 95.1405 198.93 95.3951 199.4 95.8147C200.194 96.2366 200.778 96.4046 201.151 96.3187C201.524 96.2329 201.98 95.811 202.517 95.0516C201.516 94.3289 201.167 93.7487 201.472 93.3119C201.776 92.8751 202.238 92.4189 202.857 91.9447C203.459 91.4818 203.435 91.1294 202.787 90.8882C202.944 90.4499 203.003 89.9504 202.961 89.3897L200.853 88.7856L198.707 88.3145L198.463 88.7856Z" fill="url(#paint5_linear_7884_3352)"/>
<path fill-rule="evenodd" clip-rule="evenodd" d="M199.809 89.3499C201.864 88.7615 202.41 89.6657 202.41 90.048C202.41 90.3034 202.345 90.726 202.216 91.3159C202.397 91.2377 202.576 91.1518 202.75 91.0583C203.38 90.6999 203.797 90.0645 203.946 89.5694C204.223 88.6443 203.407 86.6821 201.291 86.9747C200.553 86.8344 200.436 85.742 199.153 86.414C197.872 87.086 197.439 86.5693 197.439 87.2577C197.439 87.9469 197.492 90.0697 199.809 89.3499Z" fill="#353564"/>
<path fill-rule="evenodd" clip-rule="evenodd" d="M195.165 145.288C193.813 146.121 192.869 146.536 192.332 146.536C191.526 146.536 191.09 147.255 191.84 147.642C192.589 148.031 194.988 147.471 195.602 147.471C196.217 147.471 197.798 147.693 197.192 145.938C196.788 144.768 196.418 144.27 196.079 144.444L195.165 144.691V145.288ZM204.446 145.204C203.511 146.497 202.8 147.222 202.313 147.379C201.583 147.617 201.439 148.516 202.254 148.712C203.069 148.908 205.049 147.602 205.606 147.421C206.163 147.241 207.674 147.013 206.512 145.307C205.736 144.169 205.226 143.743 204.98 144.03L204.238 144.564L204.446 145.204Z" fill="#3E3E6E"/>
<path fill-rule="evenodd" clip-rule="evenodd" d="M203.173 114.557C202.293 120.395 201.052 124.958 199.45 128.246C198.574 132.341 198.013 144.738 196.85 145.207C195.686 145.677 194.857 145.395 194.899 144.796C194.941 144.196 193.349 127.577 193.53 124.993C193.651 123.269 193.668 119.851 193.583 114.738L203.173 114.557Z" fill="url(#paint6_linear_7884_3352)"/>
<path fill-rule="evenodd" clip-rule="evenodd" d="M207.264 113.891C207.389 119.496 207.067 125.513 206.296 131.942C205.576 139.955 207.13 144.394 206.032 145.001C204.934 145.609 204.077 145.431 204.046 144.83C204.014 144.229 200.67 128.009 200.534 125.422C200.443 123.697 200.044 120.302 199.335 115.238L207.264 113.891Z" fill="url(#paint7_linear_7884_3352)"/>
<path fill-rule="evenodd" clip-rule="evenodd" d="M199.01 94.8192C200.321 96.2364 201.527 96.2364 202.626 94.8192C202.817 94.6908 206.855 94.4907 209.716 99.1215C209.744 99.2977 208.942 100.252 207.308 101.986H206.807C207.918 107.683 208.085 112.222 207.308 115.602C207.206 115.954 202.617 116.151 193.541 116.195C193.517 108.572 194.024 104.065 195.061 102.674C194.934 102.418 193.993 101.582 192.237 100.164C192.79 98.9797 193.622 97.8402 194.732 96.7471C195.842 95.654 197.267 95.0119 199.01 94.8192Z" fill="#1677FF"/>
<path d="M180.125 90.2598C179.884 90.0196 179.557 89.8847 179.215 89.8848C178.874 89.8848 178.547 90.0199 178.305 90.2602C178.064 90.5005 177.929 90.8264 177.929 91.1662C177.929 91.5059 178.064 91.8318 178.306 92.072L198.747 112.422C198.988 112.663 199.316 112.797 199.657 112.797C199.998 112.797 200.326 112.662 200.567 112.422C200.808 112.182 200.944 111.856 200.944 111.516C200.944 111.176 200.808 110.85 200.567 110.61L180.125 90.2598Z" fill="#EFAB23"/>
<path d="M190.472 100.928C194.423 96.9941 194.423 90.6153 190.472 86.6811C186.52 82.7469 180.113 82.7469 176.161 86.6811C172.209 90.6153 172.209 96.9941 176.161 100.928C180.113 104.862 186.52 104.862 190.472 100.928Z" fill="url(#paint8_linear_7884_3352)"/>
<path d="M189.279 99.7419C192.572 96.4632 192.572 91.1477 189.279 87.8691C185.986 84.5905 180.646 84.5905 177.354 87.8691C174.061 91.1477 174.061 96.4632 177.354 99.7419C180.646 103.02 185.986 103.02 189.279 99.7419Z" fill="url(#paint9_linear_7884_3352)"/>
<path fill-rule="evenodd" clip-rule="evenodd" d="M206.213 101.63C206.11 102.272 207.906 105.078 208.582 106.094C208.801 106.168 202.938 108.532 202.441 108.86C201.085 109.755 201.069 111.141 202.177 111.457C203.284 111.773 203.501 109.716 203.715 109.667C207.447 108.806 207.773 108.9 210.251 108.3C212.39 107.84 210.775 104.135 209.337 100.148C207.899 96.1609 206.315 100.988 206.213 101.63Z" fill="url(#paint10_linear_7884_3352)"/>
<path fill-rule="evenodd" clip-rule="evenodd" d="M205.268 95.2148C205.952 95.5396 206.427 95.7831 206.696 95.9436C207.397 96.3632 207.876 96.7761 208.185 97.0255C209.143 97.7976 209.624 98.589 209.902 99.1826C210.134 99.5933 207.675 103.315 205.268 102.893C204.939 102.879 204.416 102.112 203.697 100.589L205.268 95.2148Z" fill="#1677FF"/>
<path fill-rule="evenodd" clip-rule="evenodd" d="M195.012 109.12C195.836 108.853 196.395 108.094 196.261 107.683C196.127 107.272 195.353 107.036 194.864 107.682C194.724 107.867 194.792 108.777 193.403 108.153C193.029 107.985 192.93 108.181 193.013 108.435C193.092 108.676 192.97 109.065 193.879 109.152C194.222 109.185 194.673 109.229 195.012 109.12Z" fill="#FFCEBF"/>
<path d="M194.109 108.47C194.46 108.216 194.641 107.868 194.513 107.694C194.386 107.52 193.998 107.583 193.648 107.837C193.297 108.09 193.116 108.437 193.244 108.612C193.371 108.787 193.759 108.723 194.109 108.47Z" fill="#FFCEBF"/>
<defs>
<linearGradient id="paint0_linear_7884_3352" x1="149.669" y1="171.934" x2="149.669" y2="103" gradientUnits="userSpaceOnUse">
<stop stop-color="#FCFCFE" stop-opacity="0"/>
<stop offset="1" stop-color="white"/>
</linearGradient>
<linearGradient id="paint1_linear_7884_3352" x1="110.836" y1="113.697" x2="149.222" y2="125.296" gradientUnits="userSpaceOnUse">
<stop stop-color="#F6F6F9"/>
<stop offset="1" stop-color="#E4E4EB"/>
</linearGradient>
<linearGradient id="paint2_linear_7884_3352" x1="179.485" y1="141.739" x2="179.485" y2="95.8414" gradientUnits="userSpaceOnUse">
<stop stop-color="#EEEEF3"/>
<stop offset="1" stop-color="#DDDDE5"/>
</linearGradient>
<linearGradient id="paint3_linear_7884_3352" x1="198.592" y1="90.9231" x2="184.42" y2="112.382" gradientUnits="userSpaceOnUse">
<stop stop-color="#ECECF1"/>
<stop offset="1" stop-color="#EBEDF3"/>
</linearGradient>
<linearGradient id="paint4_linear_7884_3352" x1="193.949" y1="110.725" x2="196.333" y2="99.0808" gradientUnits="userSpaceOnUse">
<stop stop-color="#FFD2C4"/>
<stop offset="1" stop-color="#FFB8A3"/>
</linearGradient>
<linearGradient id="paint5_linear_7884_3352" x1="199.273" y1="89.6099" x2="203.196" y2="94.0401" gradientUnits="userSpaceOnUse">
<stop stop-color="#FFD2C4"/>
<stop offset="1" stop-color="#FFB8A3"/>
</linearGradient>
<linearGradient id="paint6_linear_7884_3352" x1="200.37" y1="143.969" x2="197.498" y2="116.039" gradientUnits="userSpaceOnUse">
<stop stop-color="#7C7C7C"/>
<stop offset="1" stop-color="#595959"/>
</linearGradient>
<linearGradient id="paint7_linear_7884_3352" x1="204.982" y1="143.875" x2="201.377" y2="115.56" gradientUnits="userSpaceOnUse">
<stop stop-color="#7C7C7C"/>
<stop offset="1" stop-color="#595959"/>
</linearGradient>
<linearGradient id="paint8_linear_7884_3352" x1="192.438" y1="95.3917" x2="174.248" y2="93.7571" gradientUnits="userSpaceOnUse">
<stop stop-color="#FAC251"/>
<stop offset="1" stop-color="#FFDE9B"/>
</linearGradient>
<linearGradient id="paint9_linear_7884_3352" x1="177.354" y1="87.8691" x2="189.226" y2="99.7947" gradientUnits="userSpaceOnUse">
<stop stop-color="#FCFCFF"/>
<stop offset="1" stop-color="#FAFAFC"/>
</linearGradient>
<linearGradient id="paint10_linear_7884_3352" x1="205.99" y1="110.848" x2="209.155" y2="102.277" gradientUnits="userSpaceOnUse">
<stop stop-color="#FFD2C4"/>
<stop offset="1" stop-color="#FFB8A3"/>
</linearGradient>
</defs>
</svg>
