<svg width="343" height="158" viewBox="0 0 343 158" fill="none" xmlns="http://www.w3.org/2000/svg">
<rect x="0.5" width="342" height="158" rx="11.5" fill="url(#paint0_linear_10432_20891)"/>
<rect x="0.5" width="342" height="158" rx="11.5" stroke="white"/>
<path d="M232.608 102.974C243.302 114.803 252.347 105.714 262.725 100.762C280.803 92.1383 301.522 113.52 310.821 102.087C317.708 93.6185 311.625 71.8027 297.103 61.6902C284.457 52.8838 270.297 52.9803 253.604 60.165C235.824 67.817 221.1 90.243 232.608 102.974Z" fill="url(#paint1_linear_10432_20891)" fill-opacity="0.1"/>
<path d="M293.756 130.657C301.853 130.805 308.443 129.513 308.475 127.772C308.507 126.03 301.969 124.498 293.872 124.35C285.775 124.202 279.185 125.494 279.153 127.235C279.121 128.977 285.659 130.509 293.756 130.657Z" fill="#F3F3F3"/>
<path d="M222.76 119.451H253.516L275.727 133.277H244.041C241.703 133.277 239.409 132.645 237.403 131.447L221.985 122.248C220.671 121.464 221.229 119.451 222.76 119.451Z" fill="url(#paint2_linear_10432_20891)"/>
<mask id="mask0_10432_20891" style="mask-type:alpha" maskUnits="userSpaceOnUse" x="306" y="115" width="21" height="13">
<path d="M306.715 126.103C307.726 128.318 312.849 128.16 318.158 125.749C323.466 123.339 326.95 119.588 325.939 117.373C324.928 115.157 319.805 115.316 314.496 117.726C309.188 120.137 305.704 123.887 306.715 126.103Z" fill="#F4A0D7"/>
</mask>
<g mask="url(#mask0_10432_20891)">
<path d="M308.055 129.038C309.066 131.253 314.189 131.095 319.497 128.684C324.806 126.273 328.29 122.523 327.279 120.308C326.268 118.092 321.145 118.251 315.836 120.661C310.528 123.072 307.044 126.822 308.055 129.038Z" fill="#3C56C6"/>
</g>
<mask id="mask1_10432_20891" style="mask-type:alpha" maskUnits="userSpaceOnUse" x="305" y="109" width="16" height="19">
<path d="M306.711 127.034C308.646 128.517 313.096 125.978 316.648 121.364C320.201 116.75 321.513 111.807 319.578 110.324C317.642 108.842 313.193 111.38 309.64 115.995C306.087 120.609 304.776 125.551 306.711 127.034Z" fill="#C4C4C4"/>
</mask>
<g mask="url(#mask1_10432_20891)">
<path d="M309.275 128.999C311.21 130.482 315.659 127.943 319.212 123.329C322.765 118.715 324.077 113.772 322.141 112.289C320.206 110.807 315.757 113.345 312.204 117.959C308.651 122.574 307.34 127.516 309.275 128.999Z" fill="#6386FF"/>
</g>
<mask id="mask2_10432_20891" style="mask-type:alpha" maskUnits="userSpaceOnUse" x="304" y="109" width="8" height="19">
<path d="M306.882 127.895C308.981 128.151 311.181 124.301 311.794 119.295C312.408 114.29 311.204 110.025 309.104 109.768C307.005 109.512 304.806 113.362 304.192 118.368C303.578 123.373 304.783 127.639 306.882 127.895Z" fill="#8D8D8D"/>
</mask>
<g mask="url(#mask2_10432_20891)">
<path d="M309.663 128.235C311.763 128.491 313.962 124.641 314.576 119.635C315.189 114.63 313.985 110.364 311.886 110.108C309.787 109.852 307.587 113.702 306.974 118.708C306.36 123.713 307.564 127.978 309.663 128.235Z" fill="#C6D3FF"/>
</g>
<path d="M243.692 113.812C247.543 117.644 248.355 124.911 248.279 128.066C246.307 124.842 241.968 120.173 238.959 118.313C236.642 116.88 231.473 110.727 229.434 106.976C231.257 109.63 238.878 109.023 243.692 113.812Z" fill="#6785EF"/>
<path d="M237.538 117.731C242.744 119.302 246.93 125.222 248.372 127.986C245.103 126.089 239.069 124.014 235.543 123.767C232.829 123.576 225.358 120.593 221.777 118.271C224.643 119.742 231.03 115.767 237.538 117.731Z" fill="#6785EF" fill-opacity="0.6"/>
<path d="M287.447 99.934L289.592 98.9104V96.7703L286.607 98.166L287.447 99.934Z" fill="#FCD8E3"/>
<path d="M279.425 93.4195L281.104 92.582L281.85 93.9778L280.357 94.8152L279.425 93.4195Z" fill="#FCD8E3"/>
<path d="M286.607 100.864L287.54 99.933L286.794 98.165C286.545 98.2581 285.954 98.4256 285.581 98.3512C285.115 98.2581 284.368 98.3512 283.995 98.6303C283.622 98.9094 283.716 99.3746 283.995 99.933C284.219 100.38 285.83 100.739 286.607 100.864Z" fill="#FCD8E3"/>
<path d="M279.518 93.4201L280.451 94.8159C280.357 94.878 280.096 95.0393 279.798 95.1881C279.424 95.3742 278.958 95.6533 278.678 95.7464C278.398 95.8395 278.119 95.7464 277.372 94.8159C276.775 94.0716 277.372 93.6994 277.746 93.6063C277.777 93.5442 277.895 93.4201 278.119 93.4201H279.518Z" fill="#FCD8E3"/>
<path d="M286.7 89.2327L291.738 84.5801C292.515 84.5801 293.921 85.1756 294.07 86.4411C294.219 87.7066 293.075 88.8296 292.484 89.2327L287.633 92.2104L281.384 94.3505L280.73 92.4895L286.7 89.2327Z" fill="#B2C3FF"/>
<path d="M295.469 81.6961L295.096 83.0918L295.749 84.8598L298.547 83.6502V81.1377L295.469 81.6961Z" fill="#FCD8E3"/>
<path d="M294.07 80.021C294.07 80.4678 295.065 81.3858 295.562 81.7892C296.34 81.7892 298.025 81.6402 298.547 81.0446C299.2 80.3003 299.76 77.8809 299.946 76.8573C300.133 75.8337 298.547 74.7172 297.708 74.4381C296.868 74.1588 295.935 74.8103 295.189 75.8337C294.443 76.8573 294.07 79.4629 294.07 80.021Z" fill="#FCD8E3"/>
<path d="M297.428 81.5093C297.635 81.2343 295.789 80.2767 294.55 80.0587C294.373 80.0275 294.163 80.1206 294.163 80.2997C294.163 80.3928 295.376 81.9745 295.376 81.9745L295.283 82.5329C295.469 82.5639 296.122 82.4398 296.122 82.4398C296.122 82.4398 297.148 81.8814 297.428 81.5093Z" fill="#EDD2E4"/>
<path d="M290.432 89.1403C290.357 88.3214 291.271 85.7595 291.737 84.5806L294.536 83.5572L295.212 82.6267L295.613 84.1857L296.517 83.2839L299.028 82.4824C298.997 82.9786 299.872 84.0597 300.32 84.5806C300.879 85.2321 301.159 87.9305 301.159 89.1403C301.159 90.108 299.729 97.1736 299.014 100.586C298.547 100.71 297.223 100.976 295.655 101.051C294.088 101.125 292.08 100.213 291.271 99.7482C291.022 96.5533 290.506 89.959 290.432 89.1403Z" fill="#B2C3FF"/>
<path d="M299.028 82.482L298.547 82.3818V82.639L299.028 82.482Z" fill="#DADADA"/>
<path d="M287.608 125.43C287.709 125.329 288.38 124.686 288.623 123.981C288.877 124.276 289.587 124.335 289.892 124.234C290.196 124.133 290.543 123.873 290.712 123.662C291.135 124.336 291.973 125.548 291.668 125.75L290.272 126.508C289.68 126.803 288.318 127.443 287.608 127.645C286.897 127.847 285.874 127.729 285.451 127.645C285.408 127.476 285.349 127.222 285.451 126.919C285.578 126.54 287.481 125.557 287.608 125.43Z" fill="#2B3A7C"/>
<path d="M296.402 127.663C296.626 127.291 296.744 125.709 296.775 124.965L297.055 124.406H298.734L298.921 125.43V127.384C298.921 127.849 299.107 128.966 298.921 129.152C298.734 129.338 298.081 129.71 297.055 129.617C296.029 129.524 296.122 128.128 296.402 127.663Z" fill="#2B3A7C"/>
<path d="M286.141 111.472C286.29 110.728 289.623 102.252 291.178 98.5611V97.3513C291.955 97.5996 293.315 97.9961 294.816 98.0959C296.215 98.189 298.878 98.2818 299.53 98.0959L299.344 99.2124L299.251 103.121L298.411 113.799L298.921 124.406C298.921 124.655 298.753 125.151 298.081 125.151C297.409 125.151 296.993 124.965 296.868 124.872L294.163 114.078L293.203 105.926L289.965 113.706L290.805 123.755C290.681 123.91 290.283 124.332 289.686 124.406C289.089 124.481 288.659 124.437 288.566 124.22C287.758 120.715 285.992 112.217 286.141 111.472Z" fill="#3C56C6"/>
<path d="M298.734 86.2556C298.174 87.093 297.055 89.6055 297.055 89.6055C297.055 89.6055 295.096 92.6761 294.443 93.2345C293.79 93.7926 288.566 96.8635 288.566 96.8635L289.686 99.2829L296.682 95.9329C296.682 95.9329 300.786 93.0483 301.532 91.4665C302.279 89.8846 302.559 88.7679 302.372 87.4652C302.185 86.1625 300.6 85.0458 300.6 85.0458C300.6 85.0458 299.294 85.4182 298.734 86.2556Z" fill="url(#paint3_linear_10432_20891)"/>
<path d="M295.184 75.8233C294.995 75.4462 294.585 74.629 295.002 73.973C295.538 73.1304 296.43 72.8383 297.428 72.7632C298.325 72.6957 299.014 73.4147 299.48 73.7868C300.226 73.6937 300.786 74.5312 300.972 75.1826C301.159 75.8339 300.972 77.0437 300.599 77.6949C300.301 78.2161 299.355 79.8043 299.107 80.1143C299.387 79.5559 299.524 78.6375 299.76 77.6949C299.946 76.9506 299.2 75.5548 298.827 75.0895C298.361 75.1826 297.838 74.9779 296.868 74.9036C295.898 74.8289 295.469 75.5548 295.189 75.8339L295.184 75.8233Z" fill="#3049A0"/>
<path d="M294.909 84.4726L295.412 83.3834L295.613 84.1849L296.517 83.2832L296.402 84.6588L295.613 84.1849L294.909 84.4726Z" fill="#97ADF9"/>
<path d="M287.354 98.6309L286.98 97.9794L287.82 97.6072L288.193 98.2587L287.354 98.6309Z" fill="#293253"/>
<path d="M287.82 99.7479L287.54 99.1896L288.473 98.8174L288.753 99.3755L287.82 99.7479Z" fill="#293253"/>
<path d="M287.82 99.4684C288.232 99.4684 288.566 99.1352 288.566 98.724C288.566 98.3129 288.232 97.9796 287.82 97.9796C287.408 97.9796 287.073 98.3129 287.073 98.724C287.073 99.1352 287.408 99.4684 287.82 99.4684Z" fill="#B2C3FF"/>
<path d="M285.783 103.256C283.969 111.959 279.515 132.201 277.246 132.639L275.766 131.967C274.363 131.438 266.303 114.642 261.711 106.064C263.543 101.483 265.869 91.9947 266.784 88.1308C266.977 87.3135 267.93 86.9382 268.631 87.4043L283.248 97.1292C285.266 98.4716 286.277 100.888 285.783 103.256Z" fill="#6386FF"/>
<path d="M246.321 90.9212C245.987 91.7321 251.914 116.395 253.293 119.25C255.076 120.728 269.063 129.851 272.111 131.556C275.92 133.686 276.449 133.212 277.337 132.635C275.426 132.603 270.507 113.671 268.683 106.38C268.227 104.559 267.167 102.957 265.651 101.846C260.968 98.4135 250.749 90.9801 249.119 90.2742C246.992 89.3534 246.739 89.9072 246.321 90.9212Z" fill="#DAE2FF"/>
<path d="M273.116 132.376C271.308 131.273 261.723 125.089 256.634 121.615C256.634 121.615 261.767 121.355 263.876 118.049C265.985 114.742 268.251 104.924 266.688 102.82C268.094 104.223 268.195 104.323 268.898 107.329C269.601 110.334 271.911 118.45 273.618 124.361C274.544 127.567 276.698 132.376 277.234 132.676C276.129 133.578 274.613 133.288 273.116 132.376Z" fill="#3C56C6" fill-opacity="0.2"/>
<path d="M253.179 91.8103C253.264 94.1101 253.855 99.1947 254.188 102.82C254.223 103.205 254.44 103.549 254.773 103.746L259.444 106.512C259.868 106.763 260.398 106.426 260.347 105.936C259.92 101.842 259.355 96.6394 259.262 94.1108C259.141 90.8163 258.295 87.8829 256.331 87.1716C254.367 86.4604 253.051 88.3154 253.179 91.8103Z" fill="#BAC6F4"/>
<path d="M256.269 94.3603C257.27 94.276 257.975 92.9532 257.845 91.4055C257.714 89.8578 256.796 88.6715 255.795 88.7557C254.794 88.8399 254.089 90.1628 254.22 91.7105C254.351 93.2581 255.268 94.4445 256.269 94.3603Z" fill="white"/>
<path d="M260.209 45.3125C257.908 48.011 253.324 55.6783 253.399 64.7603C253.492 76.1125 257.41 81.7888 260.209 86.069C263.007 90.3494 263.1 95.8394 262.261 98.9101" stroke="#3BE300" stroke-width="0.921056" stroke-linecap="round" stroke-linejoin="round" stroke-dasharray="3.07 4.6"/>
<path d="M270.706 113.139C281.653 106.226 282.783 89.9774 280.637 82.2542C277.879 72.3251 269.908 69.5857 270.47 60.9453C270.717 57.1379 274.294 52.7568 274.294 52.7568" stroke="#3BE300" stroke-width="0.921056" stroke-linecap="round" stroke-linejoin="round" stroke-dasharray="3.07 4.6"/>
<path d="M269.299 107.729C274.924 98.6123 272.993 92.6009 269.098 87.8922C262.382 79.7706 249.915 87.8922 242.885 80.4783" stroke="#3BE300" stroke-width="0.921056" stroke-linecap="round" stroke-linejoin="round" stroke-dasharray="3.07 4.6"/>
<path d="M272.149 47.8246L274.387 46.6151L278.305 56.0133L275.88 56.8508C275.04 56.5405 273.212 55.3991 272.242 53.3147C271.272 51.2305 271.775 48.6623 272.149 47.8246Z" fill="#BAF5A5"/>
<path d="M278.149 56.079C279.811 55.3817 280.268 52.7043 279.169 50.0988C278.071 47.4933 275.833 45.9465 274.171 46.6438C272.509 47.341 272.052 50.0185 273.15 52.6239C274.249 55.2294 276.486 56.7763 278.149 56.079Z" fill="#3BE300"/>
<path d="M235.511 76.8947C235.619 75.7122 235.621 76.0844 235.621 76.0844L244.779 75.2822C244.779 75.2822 245.044 78.0974 244.392 79.4906C243.738 80.8838 241.669 82.6584 239.175 82.2697C235.727 81.7322 235.404 78.0772 235.511 76.8947Z" fill="#BAF5A5"/>
<path d="M239.566 81.3859C242.105 81.6227 244.44 79.4873 244.78 76.6163C245.121 73.7454 243.339 71.226 240.799 70.9893C238.26 70.7525 235.925 72.8879 235.584 75.7589C235.244 78.6298 237.026 81.1491 239.566 81.3859Z" fill="#3BE300"/>
<path d="M268.494 96.233V95.2362L275.635 95.1455L274.986 96.958C274.481 97.7212 273.471 98.5973 271.524 98.4531C269.576 98.3088 268.711 97.0485 268.494 96.233Z" fill="#BAF5A5"/>
<path d="M271.545 97.7301C273.509 97.8598 275.314 96.6898 275.577 95.1169C275.841 93.5439 274.462 92.1636 272.499 92.0338C270.535 91.9041 268.73 93.0741 268.466 94.6471C268.203 96.22 269.581 97.6004 271.545 97.7301Z" fill="#3BE300"/>
<path d="M271.943 73.761L273.036 72.0458L282.748 78.749L281.322 80.5103C280.294 80.723 277.619 80.5555 275.28 78.7695C273.218 77.1952 271.935 75.0128 271.943 73.761Z" fill="#BAF5A5"/>
<path d="M282.703 78.7897C283.659 77.4158 282.266 74.8003 279.591 72.9478C276.916 71.0952 273.973 70.7071 273.017 72.0809C272.06 73.4548 273.454 76.0703 276.128 77.9229C278.803 79.7754 281.747 80.1635 282.703 78.7897Z" fill="#3BE300"/>
<path fill-rule="evenodd" clip-rule="evenodd" d="M274.327 50.4566L276.687 48.8336C276.744 48.7948 276.811 48.7922 276.865 48.8268L278.174 49.6709C278.242 49.7146 278.272 49.8081 278.247 49.8985L277.328 53.261C277.298 53.3699 277.199 53.4377 277.107 53.4132L274.245 52.6548C274.166 52.6338 274.114 52.5519 274.12 52.4569L274.232 50.6316C274.236 50.5606 274.272 50.4943 274.327 50.4566ZM276.66 49.6311L276.835 50.0007L276.162 50.4631L276.283 50.7193C276.768 50.4219 277.176 50.2907 277.242 50.4237L277.375 50.7047C277.436 50.8413 277.134 51.1974 276.675 51.5494L276.972 52.1782L276.526 52.4852L276.229 51.8564C275.744 52.1538 275.336 52.285 275.27 52.152L275.137 51.871C275.076 51.7344 275.378 51.3783 275.837 51.0262L275.716 50.77L275.044 51.2324L274.869 50.8628L276.66 49.6311ZM276.361 51.5099C276.865 51.1634 277.241 50.7787 277.284 50.5808C277.146 50.5332 276.79 50.6659 276.377 50.9186L276.504 51.1869C276.434 51.2405 276.36 51.294 276.284 51.3467C276.207 51.3994 276.132 51.4485 276.058 51.4939L275.931 51.2256C275.541 51.5249 275.264 51.827 275.228 51.9949C275.391 52.051 275.857 51.8564 276.361 51.5099Z" fill="white"/>
<path fill-rule="evenodd" clip-rule="evenodd" d="M238.13 75.2701L240.49 73.647C240.546 73.6083 240.614 73.6057 240.667 73.6402L241.977 74.4844C242.045 74.5281 242.075 74.6216 242.05 74.712L241.131 78.0745C241.101 78.1834 241.002 78.2512 240.909 78.2267L238.047 77.4683C237.969 77.4473 237.917 77.3654 237.923 77.2703L238.035 75.445C238.039 75.3741 238.075 75.3077 238.13 75.2701ZM240.463 74.4446L240.637 74.8142L239.965 75.2765L240.086 75.5327C240.571 75.2353 240.978 75.1042 241.045 75.2371L241.177 75.5182C241.238 75.6548 240.937 76.0108 240.478 76.3629L240.775 76.9917L240.328 77.2987L240.031 76.6699C239.546 76.9672 239.139 77.0985 239.073 76.9654L238.94 76.6844C238.879 76.5479 239.18 76.1918 239.64 75.8397L239.519 75.5835L238.846 76.0458L238.672 75.6763L240.463 74.4446ZM240.164 76.3234C240.667 75.9769 241.044 75.5922 241.087 75.3943C240.949 75.3467 240.592 75.4794 240.18 75.7321L240.307 76.0004C240.237 76.054 240.163 76.1075 240.087 76.1601C240.01 76.2129 239.934 76.262 239.86 76.3073L239.734 76.0391C239.343 76.3384 239.067 76.6405 239.031 76.8084C239.194 76.8645 239.66 76.6699 240.164 76.3234Z" fill="white"/>
<path d="M249.775 59.8063L248.709 58.3533L260.515 51.7266L261.361 53.6164C260.93 54.4461 259.146 56.3411 256.494 57.641C253.729 58.9957 250.89 60.1993 249.775 59.8063Z" fill="#BAF5A5"/>
<path d="M248.674 58.2461C249.045 58.917 251.986 58.0062 255.243 56.2118C258.5 54.4174 260.839 52.4189 260.467 51.748C260.096 51.0771 257.154 51.9879 253.898 53.7823C250.641 55.5767 248.302 57.5752 248.674 58.2461Z" fill="#3BE300"/>
<g clip-path="url(#clip0_10432_20891)">
<path d="M257.388 45.0335C257.388 45.1301 257.468 45.2084 257.568 45.2084L265.869 45.2084C265.969 45.2084 266.05 45.1301 266.05 45.0336V44.8247C266.054 44.7618 266.062 44.4477 265.855 44.1005C265.724 43.8815 265.534 43.6924 265.29 43.5383C264.995 43.3519 264.62 43.2169 264.167 43.1355C264.163 43.1351 263.827 43.0906 263.482 43.0028C262.882 42.8499 262.83 42.7146 262.829 42.7133C262.826 42.6999 262.821 42.687 262.814 42.675C262.809 42.6497 262.797 42.5547 262.82 42.3001C262.879 41.6536 263.227 41.2715 263.506 40.9645C263.594 40.8676 263.677 40.7762 263.742 40.6865C264.018 40.2996 264.044 39.8597 264.045 39.8324C264.045 39.7772 264.038 39.7317 264.025 39.6896C263.998 39.6054 263.947 39.5529 263.909 39.5146L263.909 39.5143C263.9 39.5046 263.891 39.4955 263.884 39.4871C263.881 39.4839 263.873 39.4754 263.88 39.4319C263.905 39.2715 263.919 39.1373 263.926 39.0094C263.939 38.7815 263.949 38.4408 263.89 38.1091C263.883 38.0525 263.87 37.9927 263.851 37.9214C263.789 37.693 263.688 37.4978 263.55 37.3366C263.526 37.3107 262.945 36.7001 261.258 36.5749C261.025 36.5575 260.794 36.5669 260.567 36.5784C260.513 36.5811 260.438 36.5848 260.368 36.603C260.194 36.648 260.147 36.7581 260.135 36.8197C260.115 36.9217 260.15 37.0011 260.174 37.0537C260.177 37.0613 260.181 37.0707 260.174 37.0953C260.135 37.1557 260.073 37.2103 260.01 37.2619C259.992 37.2773 259.569 37.6411 259.546 38.1163C259.483 38.4777 259.488 39.0407 259.562 39.4299C259.567 39.4514 259.573 39.4832 259.563 39.5047C259.483 39.576 259.393 39.6568 259.393 39.8411C259.394 39.8597 259.419 40.2996 259.696 40.6865C259.76 40.7761 259.843 40.8675 259.931 40.9643L259.931 40.9645C260.211 41.2715 260.558 41.6536 260.617 42.3001C260.64 42.5547 260.628 42.6497 260.623 42.6749C260.617 42.687 260.612 42.6999 260.608 42.7132C260.608 42.7146 260.556 42.8495 259.958 43.002C259.613 43.0901 259.274 43.1351 259.264 43.1365C258.823 43.2108 258.45 43.3425 258.156 43.5279C257.913 43.6809 257.723 43.8704 257.59 44.0911C257.379 44.4437 257.384 44.7648 257.388 44.8234V45.0335Z" fill="#618DFF" stroke="#618DFF" stroke-width="1.04911" stroke-linejoin="round"/>
</g>
<g clip-path="url(#clip1_10432_20891)">
<path d="M233.194 69.1672C233.194 69.2638 233.275 69.3421 233.374 69.3421L241.676 69.3421C241.775 69.3421 241.856 69.2638 241.856 69.1673V68.9584C241.86 68.8955 241.869 68.5814 241.661 68.2342C241.53 68.0153 241.34 67.8261 241.097 67.672C240.802 67.4856 240.427 67.3506 239.973 67.2693C239.97 67.2688 239.633 67.2243 239.289 67.1365C238.688 66.9836 238.636 66.8483 238.636 66.847C238.632 66.8336 238.627 66.8208 238.62 66.8087C238.616 66.7834 238.603 66.6884 238.627 66.4339C238.685 65.7873 239.033 65.4052 239.313 65.0982C239.401 65.0014 239.484 64.9099 239.548 64.8202C239.824 64.4333 239.85 63.9934 239.851 63.9661C239.851 63.9109 239.845 63.8655 239.831 63.8234C239.804 63.7391 239.753 63.6866 239.716 63.6483L239.715 63.648C239.706 63.6384 239.697 63.6292 239.69 63.6208C239.687 63.6176 239.68 63.6091 239.687 63.5656C239.711 63.4053 239.726 63.271 239.733 63.1431C239.745 62.9153 239.755 62.5745 239.696 62.2429C239.689 62.1862 239.677 62.1264 239.657 62.0551C239.595 61.8268 239.495 61.6315 239.356 61.4704C239.332 61.4444 238.751 60.8339 237.065 60.7086C236.831 60.6913 236.601 60.7006 236.374 60.7122C236.319 60.7149 236.244 60.7186 236.174 60.7367C236 60.7817 235.954 60.8918 235.941 60.9534C235.921 61.0555 235.957 61.1349 235.98 61.1874C235.984 61.195 235.988 61.2045 235.98 61.229C235.941 61.2895 235.88 61.344 235.817 61.3957C235.799 61.411 235.376 61.7748 235.353 62.25C235.29 62.6114 235.295 63.1745 235.369 63.5636C235.373 63.5851 235.379 63.6169 235.369 63.6384C235.289 63.7097 235.199 63.7905 235.199 63.9749C235.2 63.9934 235.226 64.4333 235.502 64.8202C235.566 64.9098 235.649 65.0012 235.737 65.098L235.738 65.0982C236.017 65.4052 236.365 65.7873 236.424 66.4338C236.447 66.6884 236.435 66.7834 236.43 66.8087C236.423 66.8207 236.418 66.8336 236.415 66.847C236.414 66.8483 236.362 66.9832 235.764 67.1358C235.42 67.2238 235.08 67.2688 235.07 67.2703C234.629 67.3445 234.257 67.4762 233.962 67.6616C233.719 67.8147 233.529 68.0042 233.397 68.2248C233.185 68.5774 233.191 68.8985 233.194 68.9571V69.1672Z" fill="#618DFF" stroke="#618DFF" stroke-width="1.04911" stroke-linejoin="round"/>
</g>
<g clip-path="url(#clip2_10432_20891)">
<path d="M272.076 45.0335C272.076 45.1301 272.157 45.2084 272.257 45.2084L280.558 45.2084C280.658 45.2084 280.739 45.1301 280.739 45.0336V44.8247C280.743 44.7618 280.751 44.4477 280.544 44.1005C280.413 43.8815 280.223 43.6924 279.979 43.5383C279.684 43.3519 279.309 43.2169 278.855 43.1355C278.852 43.1351 278.516 43.0906 278.171 43.0028C277.571 42.8499 277.518 42.7146 277.518 42.7133C277.514 42.6999 277.509 42.687 277.503 42.675C277.498 42.6497 277.486 42.5547 277.509 42.3001C277.568 41.6536 277.915 41.2715 278.195 40.9645C278.283 40.8676 278.366 40.7762 278.43 40.6865C278.707 40.2996 278.732 39.8597 278.733 39.8324C278.733 39.7772 278.727 39.7317 278.714 39.6896C278.686 39.6054 278.635 39.5529 278.598 39.5146L278.598 39.5143C278.588 39.5046 278.58 39.4955 278.572 39.4871C278.57 39.4839 278.562 39.4754 278.569 39.4319C278.593 39.2715 278.608 39.1373 278.615 39.0094C278.628 38.7815 278.638 38.4408 278.579 38.1091C278.571 38.0525 278.559 37.9927 278.539 37.9214C278.477 37.693 278.377 37.4978 278.238 37.3366C278.214 37.3107 277.633 36.7001 275.947 36.5749C275.714 36.5575 275.483 36.5669 275.256 36.5784C275.201 36.5811 275.127 36.5848 275.056 36.603C274.882 36.648 274.836 36.7581 274.824 36.8197C274.803 36.9217 274.839 37.0011 274.862 37.0537C274.866 37.0613 274.87 37.0707 274.863 37.0953C274.824 37.1557 274.762 37.2103 274.699 37.2619C274.681 37.2773 274.258 37.6411 274.235 38.1163C274.172 38.4777 274.177 39.0407 274.251 39.4299C274.255 39.4514 274.262 39.4832 274.251 39.5047C274.172 39.576 274.081 39.6568 274.082 39.8411C274.082 39.8597 274.108 40.2996 274.385 40.6865C274.449 40.7761 274.532 40.8675 274.62 40.9643L274.62 40.9645C274.899 41.2715 275.247 41.6536 275.306 42.3001C275.329 42.5547 275.317 42.6497 275.312 42.6749C275.305 42.687 275.3 42.6999 275.297 42.7132C275.296 42.7146 275.244 42.8495 274.647 43.002C274.302 43.0901 273.963 43.1351 273.953 43.1365C273.512 43.2108 273.139 43.3425 272.845 43.5279C272.602 43.6809 272.411 43.8704 272.279 44.0911C272.067 44.4437 272.073 44.7648 272.076 44.8234V45.0335Z" fill="#618DFF" stroke="#618DFF" stroke-width="1.04911" stroke-linejoin="round"/>
</g>
<path d="M19.8828 46.8203L22.1484 37.625H23.375L23.4531 39.5625L21.0312 49H19.7344L19.8828 46.8203ZM18.4531 37.625L20.3125 46.7891V49H18.8984L16.3203 37.625H18.4531ZM25.8047 46.75L27.6328 37.625H29.7734L27.1953 49H25.7812L25.8047 46.75ZM23.9609 37.625L26.2266 46.8516L26.3594 49H25.0625L22.6484 39.5547L22.7422 37.625H23.9609ZM33 37V49H30.9297V37H33ZM32.6719 44.4688H32.0625C32.0625 43.8802 32.1406 43.3385 32.2969 42.8438C32.4531 42.349 32.6745 41.9193 32.9609 41.5547C33.2474 41.1849 33.5885 40.8984 33.9844 40.6953C34.3854 40.4922 34.8281 40.3906 35.3125 40.3906C35.7292 40.3906 36.1068 40.4505 36.4453 40.5703C36.7891 40.6849 37.0833 40.8698 37.3281 41.125C37.5729 41.3802 37.7604 41.7135 37.8906 42.125C38.026 42.5312 38.0938 43.026 38.0938 43.6094V49H36.0156V43.5938C36.0156 43.2031 35.9583 42.8958 35.8438 42.6719C35.7292 42.4427 35.5651 42.2786 35.3516 42.1797C35.1432 42.0807 34.8854 42.0312 34.5781 42.0312C34.2448 42.0312 33.9583 42.0964 33.7188 42.2266C33.4792 42.3516 33.2812 42.526 33.125 42.75C32.974 42.974 32.8594 43.2318 32.7812 43.5234C32.7083 43.8151 32.6719 44.1302 32.6719 44.4688ZM44.5703 47.2031V43.3047C44.5703 43.0182 44.5208 42.7708 44.4219 42.5625C44.3229 42.3542 44.1719 42.1927 43.9688 42.0781C43.7656 41.9635 43.5078 41.9062 43.1953 41.9062C42.9193 41.9062 42.6771 41.9531 42.4688 42.0469C42.2656 42.1406 42.1094 42.2734 42 42.4453C41.8906 42.612 41.8359 42.8047 41.8359 43.0234H39.7656C39.7656 42.6745 39.849 42.3438 40.0156 42.0312C40.1823 41.7135 40.4193 41.4323 40.7266 41.1875C41.0391 40.9375 41.4115 40.7422 41.8438 40.6016C42.2812 40.4609 42.7708 40.3906 43.3125 40.3906C43.9531 40.3906 44.5234 40.5 45.0234 40.7188C45.5286 40.9323 45.9245 41.2552 46.2109 41.6875C46.5026 42.1198 46.6484 42.6641 46.6484 43.3203V47.0078C46.6484 47.4297 46.6745 47.7917 46.7266 48.0938C46.7839 48.3906 46.8672 48.6484 46.9766 48.8672V49H44.875C44.776 48.7865 44.7005 48.5156 44.6484 48.1875C44.5964 47.8542 44.5703 47.526 44.5703 47.2031ZM44.8594 43.8516L44.875 45.0781H43.5703C43.2474 45.0781 42.9635 45.112 42.7188 45.1797C42.474 45.2422 42.2734 45.3359 42.1172 45.4609C41.9609 45.5807 41.8438 45.7266 41.7656 45.8984C41.6875 46.0651 41.6484 46.2552 41.6484 46.4688C41.6484 46.6771 41.6953 46.8646 41.7891 47.0312C41.888 47.1979 42.0286 47.3307 42.2109 47.4297C42.3984 47.5234 42.6172 47.5703 42.8672 47.5703C43.2318 47.5703 43.5495 47.4974 43.8203 47.3516C44.0911 47.2005 44.3021 47.0182 44.4531 46.8047C44.6042 46.5911 44.6849 46.388 44.6953 46.1953L45.2891 47.0859C45.2161 47.2995 45.1068 47.526 44.9609 47.7656C44.8151 48.0052 44.6276 48.2292 44.3984 48.4375C44.1693 48.6458 43.8932 48.8177 43.5703 48.9531C43.2474 49.0885 42.8724 49.1562 42.4453 49.1562C41.8984 49.1562 41.4089 49.0469 40.9766 48.8281C40.5443 48.6094 40.2031 48.3099 39.9531 47.9297C39.7031 47.5495 39.5781 47.1172 39.5781 46.6328C39.5781 46.1849 39.6615 45.7891 39.8281 45.4453C39.9948 45.1016 40.2422 44.8125 40.5703 44.5781C40.8984 44.3385 41.3047 44.1589 41.7891 44.0391C42.2786 43.9141 42.8385 43.8516 43.4688 43.8516H44.8594ZM52.5078 40.5469V42.0312H47.6641V40.5469H52.5078ZM48.9609 38.4688H51.0312V46.5625C51.0312 46.8125 51.0651 47.0052 51.1328 47.1406C51.2005 47.276 51.3021 47.3672 51.4375 47.4141C51.5729 47.4609 51.7344 47.4844 51.9219 47.4844C52.0573 47.4844 52.1823 47.4766 52.2969 47.4609C52.4115 47.4453 52.5078 47.4297 52.5859 47.4141L52.5938 48.9609C52.4219 49.0182 52.2266 49.0651 52.0078 49.1016C51.7943 49.138 51.5521 49.1562 51.2812 49.1562C50.8177 49.1562 50.4115 49.0781 50.0625 48.9219C49.7135 48.7604 49.4427 48.5026 49.25 48.1484C49.0573 47.7891 48.9609 47.3151 48.9609 46.7266V38.4688ZM60.0547 40.5469V49H57.9844V40.5469H60.0547ZM57.8438 38.3359C57.8438 38.0286 57.9479 37.7734 58.1562 37.5703C58.3698 37.3672 58.6562 37.2656 59.0156 37.2656C59.375 37.2656 59.6589 37.3672 59.8672 37.5703C60.0807 37.7734 60.1875 38.0286 60.1875 38.3359C60.1875 38.638 60.0807 38.8906 59.8672 39.0938C59.6589 39.2969 59.375 39.3984 59.0156 39.3984C58.6562 39.3984 58.3698 39.2969 58.1562 39.0938C57.9479 38.8906 57.8438 38.638 57.8438 38.3359ZM66.6719 46.6875C66.6719 46.5104 66.625 46.3516 66.5312 46.2109C66.4375 46.0703 66.2604 45.9427 66 45.8281C65.7448 45.7083 65.3698 45.5964 64.875 45.4922C64.4375 45.3984 64.0339 45.2812 63.6641 45.1406C63.2943 45 62.9766 44.8307 62.7109 44.6328C62.4453 44.4297 62.237 44.1927 62.0859 43.9219C61.9401 43.6458 61.8672 43.3281 61.8672 42.9688C61.8672 42.6198 61.9427 42.2917 62.0938 41.9844C62.2448 41.6719 62.4635 41.3984 62.75 41.1641C63.0365 40.9245 63.3854 40.737 63.7969 40.6016C64.2083 40.4609 64.6719 40.3906 65.1875 40.3906C65.9062 40.3906 66.5234 40.5078 67.0391 40.7422C67.5599 40.9766 67.9583 41.2995 68.2344 41.7109C68.5104 42.1172 68.6484 42.5755 68.6484 43.0859H66.5859C66.5859 42.862 66.5339 42.6589 66.4297 42.4766C66.3307 42.2943 66.1771 42.1484 65.9688 42.0391C65.7604 41.9245 65.4974 41.8672 65.1797 41.8672C64.8932 41.8672 64.651 41.9141 64.4531 42.0078C64.2604 42.1016 64.1146 42.224 64.0156 42.375C63.9167 42.526 63.8672 42.6927 63.8672 42.875C63.8672 43.0104 63.8932 43.1328 63.9453 43.2422C64.0026 43.3464 64.0938 43.4427 64.2188 43.5312C64.3438 43.6198 64.513 43.7005 64.7266 43.7734C64.9453 43.8464 65.2135 43.9167 65.5312 43.9844C66.1615 44.1094 66.7109 44.276 67.1797 44.4844C67.6536 44.6875 68.0234 44.9583 68.2891 45.2969C68.5547 45.6354 68.6875 46.0677 68.6875 46.5938C68.6875 46.9688 68.6068 47.3125 68.4453 47.625C68.2839 47.9323 68.0495 48.2005 67.7422 48.4297C67.4349 48.6589 67.0677 48.8385 66.6406 48.9688C66.2135 49.0938 65.7318 49.1562 65.1953 49.1562C64.4193 49.1562 63.763 49.0182 63.2266 48.7422C62.6901 48.4609 62.2839 48.1068 62.0078 47.6797C61.7318 47.2474 61.5938 46.7995 61.5938 46.3359H63.5703C63.5859 46.6641 63.6745 46.9271 63.8359 47.125C63.9974 47.3229 64.2005 47.4661 64.4453 47.5547C64.6953 47.638 64.9583 47.6797 65.2344 47.6797C65.5469 47.6797 65.8099 47.638 66.0234 47.5547C66.237 47.4661 66.3984 47.349 66.5078 47.2031C66.6172 47.0521 66.6719 46.8802 66.6719 46.6875ZM78.8984 47.2031V43.3047C78.8984 43.0182 78.849 42.7708 78.75 42.5625C78.651 42.3542 78.5 42.1927 78.2969 42.0781C78.0938 41.9635 77.8359 41.9062 77.5234 41.9062C77.2474 41.9062 77.0052 41.9531 76.7969 42.0469C76.5938 42.1406 76.4375 42.2734 76.3281 42.4453C76.2188 42.612 76.1641 42.8047 76.1641 43.0234H74.0938C74.0938 42.6745 74.1771 42.3438 74.3438 42.0312C74.5104 41.7135 74.7474 41.4323 75.0547 41.1875C75.3672 40.9375 75.7396 40.7422 76.1719 40.6016C76.6094 40.4609 77.099 40.3906 77.6406 40.3906C78.2812 40.3906 78.8516 40.5 79.3516 40.7188C79.8568 40.9323 80.2526 41.2552 80.5391 41.6875C80.8307 42.1198 80.9766 42.6641 80.9766 43.3203V47.0078C80.9766 47.4297 81.0026 47.7917 81.0547 48.0938C81.112 48.3906 81.1953 48.6484 81.3047 48.8672V49H79.2031C79.1042 48.7865 79.0286 48.5156 78.9766 48.1875C78.9245 47.8542 78.8984 47.526 78.8984 47.2031ZM79.1875 43.8516L79.2031 45.0781H77.8984C77.5755 45.0781 77.2917 45.112 77.0469 45.1797C76.8021 45.2422 76.6016 45.3359 76.4453 45.4609C76.2891 45.5807 76.1719 45.7266 76.0938 45.8984C76.0156 46.0651 75.9766 46.2552 75.9766 46.4688C75.9766 46.6771 76.0234 46.8646 76.1172 47.0312C76.2161 47.1979 76.3568 47.3307 76.5391 47.4297C76.7266 47.5234 76.9453 47.5703 77.1953 47.5703C77.5599 47.5703 77.8776 47.4974 78.1484 47.3516C78.4193 47.2005 78.6302 47.0182 78.7812 46.8047C78.9323 46.5911 79.013 46.388 79.0234 46.1953L79.6172 47.0859C79.5443 47.2995 79.4349 47.526 79.2891 47.7656C79.1432 48.0052 78.9557 48.2292 78.7266 48.4375C78.4974 48.6458 78.2214 48.8177 77.8984 48.9531C77.5755 49.0885 77.2005 49.1562 76.7734 49.1562C76.2266 49.1562 75.737 49.0469 75.3047 48.8281C74.8724 48.6094 74.5312 48.3099 74.2812 47.9297C74.0312 47.5495 73.9062 47.1172 73.9062 46.6328C73.9062 46.1849 73.9896 45.7891 74.1562 45.4453C74.3229 45.1016 74.5703 44.8125 74.8984 44.5781C75.2266 44.3385 75.6328 44.1589 76.1172 44.0391C76.6068 43.9141 77.1667 43.8516 77.7969 43.8516H79.1875ZM17.1523 62H19.7402V74.666L19.4863 77H17.1523V62ZM26.5371 71.6094V71.8145C26.5371 72.6022 26.4492 73.3249 26.2734 73.9824C26.1042 74.64 25.847 75.2096 25.502 75.6914C25.1569 76.1667 24.7272 76.5378 24.2129 76.8047C23.7051 77.0651 23.1094 77.1953 22.4258 77.1953C21.7747 77.1953 21.2083 77.0684 20.7266 76.8145C20.2513 76.5605 19.8509 76.2025 19.5254 75.7402C19.1999 75.2715 18.9395 74.7214 18.7441 74.0898C18.5488 73.4518 18.4023 72.7552 18.3047 72V71.4434C18.4023 70.6816 18.5488 69.985 18.7441 69.3535C18.9395 68.722 19.1999 68.1719 19.5254 67.7031C19.8509 67.2344 20.2513 66.873 20.7266 66.6191C21.2018 66.3652 21.7617 66.2383 22.4062 66.2383C23.0964 66.2383 23.6986 66.3717 24.2129 66.6387C24.7337 66.8991 25.1634 67.2702 25.502 67.752C25.847 68.2272 26.1042 68.7936 26.2734 69.4512C26.4492 70.1022 26.5371 70.8216 26.5371 71.6094ZM23.9492 71.8145V71.6094C23.9492 71.1602 23.9134 70.737 23.8418 70.3398C23.7702 69.9362 23.653 69.5814 23.4902 69.2754C23.3275 68.9694 23.1061 68.7285 22.8262 68.5527C22.5462 68.377 22.1947 68.2891 21.7715 68.2891C21.3678 68.2891 21.0228 68.3574 20.7363 68.4941C20.4564 68.6309 20.222 68.8197 20.0332 69.0605C19.8509 69.3014 19.7077 69.5846 19.6035 69.9102C19.5059 70.2357 19.4408 70.5872 19.4082 70.9648V72.4883C19.4538 72.9896 19.5612 73.4421 19.7305 73.8457C19.8997 74.2428 20.1504 74.5586 20.4824 74.793C20.821 75.0273 21.2572 75.1445 21.791 75.1445C22.2077 75.1445 22.556 75.0632 22.8359 74.9004C23.1159 74.7311 23.3372 74.4967 23.5 74.1973C23.6628 73.8913 23.7767 73.5365 23.8418 73.1328C23.9134 72.7292 23.9492 72.2897 23.9492 71.8145ZM30.9902 68.5918V77H28.4121V66.4336H30.8535L30.9902 68.5918ZM34.2031 66.3652L34.1641 68.7676C34.0208 68.7415 33.8581 68.722 33.6758 68.709C33.5 68.696 33.334 68.6895 33.1777 68.6895C32.7806 68.6895 32.4323 68.7448 32.1328 68.8555C31.8333 68.9596 31.5827 69.1126 31.3809 69.3145C31.1855 69.5163 31.0358 69.7637 30.9316 70.0566C30.8275 70.3431 30.7689 70.6686 30.7559 71.0332L30.1992 70.9648C30.1992 70.2943 30.2676 69.6725 30.4043 69.0996C30.541 68.5267 30.7396 68.0254 31 67.5957C31.2604 67.166 31.5859 66.834 31.9766 66.5996C32.3737 66.3587 32.8294 66.2383 33.3438 66.2383C33.487 66.2383 33.64 66.2513 33.8027 66.2773C33.972 66.2969 34.1055 66.3262 34.2031 66.3652ZM38.3535 66.4336V77H35.7656V66.4336H38.3535ZM35.5898 63.6699C35.5898 63.2858 35.7201 62.9668 35.9805 62.7129C36.2474 62.459 36.6055 62.332 37.0547 62.332C37.5039 62.332 37.8587 62.459 38.1191 62.7129C38.3861 62.9668 38.5195 63.2858 38.5195 63.6699C38.5195 64.0475 38.3861 64.3633 38.1191 64.6172C37.8587 64.8711 37.5039 64.998 37.0547 64.998C36.6055 64.998 36.2474 64.8711 35.9805 64.6172C35.7201 64.3633 35.5898 64.0475 35.5898 63.6699ZM47.1523 74.7539V62H49.75V77H47.4062L47.1523 74.7539ZM40.3652 71.8438V71.6387C40.3652 70.8314 40.4564 70.099 40.6387 69.4414C40.8275 68.7773 41.1009 68.2077 41.459 67.7324C41.8171 67.2572 42.25 66.8893 42.7578 66.6289C43.2721 66.3685 43.8548 66.2383 44.5059 66.2383C45.1374 66.2383 45.6875 66.3652 46.1562 66.6191C46.6315 66.873 47.0352 67.2344 47.3672 67.7031C47.7057 68.1719 47.9759 68.7285 48.1777 69.373C48.3796 70.0111 48.526 70.7142 48.6172 71.4824V72.0391C48.526 72.7878 48.3796 73.4746 48.1777 74.0996C47.9759 74.7246 47.7057 75.2715 47.3672 75.7402C47.0352 76.2025 46.6315 76.5605 46.1562 76.8145C45.681 77.0684 45.1243 77.1953 44.4863 77.1953C43.8418 77.1953 43.2624 77.0618 42.748 76.7949C42.2402 76.528 41.8073 76.1536 41.4492 75.6719C41.0977 75.1901 40.8275 74.6237 40.6387 73.9727C40.4564 73.3216 40.3652 72.612 40.3652 71.8438ZM42.9531 71.6387V71.8438C42.9531 72.2995 42.9922 72.7259 43.0703 73.123C43.1484 73.5202 43.2754 73.8717 43.4512 74.1777C43.627 74.4772 43.8516 74.7116 44.125 74.8809C44.4049 75.0501 44.7435 75.1348 45.1406 75.1348C45.6484 75.1348 46.0651 75.0241 46.3906 74.8027C46.7227 74.5749 46.9798 74.2656 47.1621 73.875C47.3444 73.4779 47.4616 73.0319 47.5137 72.5371V71.0039C47.4876 70.6133 47.4193 70.252 47.3086 69.9199C47.2044 69.5879 47.0547 69.3014 46.8594 69.0605C46.6706 68.8197 46.4362 68.6309 46.1562 68.4941C45.8763 68.3574 45.5443 68.2891 45.1602 68.2891C44.763 68.2891 44.4245 68.377 44.1445 68.5527C43.8646 68.722 43.6367 68.9596 43.4609 69.2656C43.2852 69.5716 43.1549 69.9264 43.0703 70.3301C42.9922 70.7337 42.9531 71.1699 42.9531 71.6387ZM58.8027 66.4336H61.1465V76.6777C61.1465 77.6348 60.9382 78.4453 60.5215 79.1094C60.1113 79.7799 59.5352 80.2878 58.793 80.6328C58.0508 80.9844 57.1882 81.1602 56.2051 81.1602C55.7819 81.1602 55.3229 81.1016 54.8281 80.9844C54.3398 80.8672 53.8678 80.6816 53.4121 80.4277C52.9629 80.1803 52.5885 79.8581 52.2891 79.4609L53.4512 77.9375C53.8027 78.3477 54.1999 78.6569 54.6426 78.8652C55.0853 79.0801 55.5638 79.1875 56.0781 79.1875C56.599 79.1875 57.0417 79.0898 57.4062 78.8945C57.7773 78.7057 58.0605 78.4258 58.2559 78.0547C58.4577 77.6901 58.5586 77.2409 58.5586 76.707V68.8457L58.8027 66.4336ZM51.6641 71.8438V71.6387C51.6641 70.8314 51.7617 70.099 51.957 69.4414C52.1523 68.7773 52.4323 68.2077 52.7969 67.7324C53.168 67.2572 53.6139 66.8893 54.1348 66.6289C54.6621 66.3685 55.2546 66.2383 55.9121 66.2383C56.6087 66.2383 57.1947 66.3652 57.6699 66.6191C58.1517 66.873 58.5488 67.2344 58.8613 67.7031C59.1803 68.1719 59.4277 68.7285 59.6035 69.373C59.7858 70.0111 59.9258 70.7142 60.0234 71.4824V72.0391C59.9323 72.7878 59.7858 73.4746 59.584 74.0996C59.3887 74.7246 59.1283 75.2715 58.8027 75.7402C58.4772 76.2025 58.0736 76.5605 57.5918 76.8145C57.11 77.0684 56.5436 77.1953 55.8926 77.1953C55.2415 77.1953 54.6556 77.0618 54.1348 76.7949C53.6139 76.528 53.168 76.1536 52.7969 75.6719C52.4323 75.1901 52.1523 74.6237 51.957 73.9727C51.7617 73.3216 51.6641 72.612 51.6641 71.8438ZM54.2422 71.6387V71.8438C54.2422 72.2995 54.2878 72.7259 54.3789 73.123C54.4701 73.5202 54.61 73.8717 54.7988 74.1777C54.9876 74.4772 55.2253 74.7116 55.5117 74.8809C55.7982 75.0501 56.14 75.1348 56.5371 75.1348C57.071 75.1348 57.5072 75.0241 57.8457 74.8027C58.1908 74.5749 58.4512 74.2656 58.627 73.875C58.8092 73.4779 58.9264 73.0319 58.9785 72.5371V71.0039C58.946 70.6133 58.8743 70.252 58.7637 69.9199C58.6595 69.5879 58.513 69.3014 58.3242 69.0605C58.1354 68.8197 57.8945 68.6309 57.6016 68.4941C57.3086 68.3574 56.9603 68.2891 56.5566 68.2891C56.166 68.2891 55.8242 68.377 55.5312 68.5527C55.2383 68.722 54.9974 68.9596 54.8086 69.2656C54.6198 69.5716 54.4766 69.9264 54.3789 70.3301C54.2878 70.7337 54.2422 71.1699 54.2422 71.6387ZM68.2168 77.1953C67.416 77.1953 66.6966 77.0651 66.0586 76.8047C65.4206 76.5443 64.877 76.1829 64.4277 75.7207C63.985 75.252 63.6432 74.7083 63.4023 74.0898C63.168 73.4648 63.0508 72.7943 63.0508 72.0781V71.6875C63.0508 70.8737 63.168 70.1348 63.4023 69.4707C63.6367 68.8001 63.9688 68.224 64.3984 67.7422C64.8281 67.2604 65.3424 66.8893 65.9414 66.6289C66.5404 66.3685 67.2012 66.2383 67.9238 66.2383C68.6725 66.2383 69.3333 66.3652 69.9062 66.6191C70.4792 66.8665 70.9577 67.2181 71.3418 67.6738C71.7259 68.1296 72.0156 68.6764 72.2109 69.3145C72.4062 69.946 72.5039 70.6458 72.5039 71.4141V72.498H64.2227V70.7207H69.9648V70.5254C69.9518 70.1152 69.8737 69.7409 69.7305 69.4023C69.5872 69.0573 69.3659 68.7839 69.0664 68.582C68.7669 68.3737 68.3796 68.2695 67.9043 68.2695C67.5202 68.2695 67.1849 68.3542 66.8984 68.5234C66.6185 68.6862 66.3841 68.9206 66.1953 69.2266C66.013 69.526 65.8763 69.8841 65.7852 70.3008C65.694 70.7174 65.6484 71.1797 65.6484 71.6875V72.0781C65.6484 72.5208 65.707 72.931 65.8242 73.3086C65.9479 73.6862 66.127 74.015 66.3613 74.2949C66.6022 74.5684 66.8887 74.7832 67.2207 74.9395C67.5592 75.0892 67.9434 75.1641 68.373 75.1641C68.9134 75.1641 69.4017 75.0599 69.8379 74.8516C70.2806 74.6367 70.6647 74.321 70.9902 73.9043L72.2891 75.252C72.0677 75.5775 71.7682 75.89 71.3906 76.1895C71.0195 76.4889 70.5703 76.7331 70.043 76.9219C69.5156 77.1042 68.9069 77.1953 68.2168 77.1953ZM85.0332 74.7539V69.8809C85.0332 69.5228 84.9714 69.2135 84.8477 68.9531C84.724 68.6927 84.5352 68.4909 84.2812 68.3477C84.0273 68.2044 83.7051 68.1328 83.3145 68.1328C82.9694 68.1328 82.6667 68.1914 82.4062 68.3086C82.1523 68.4258 81.957 68.5918 81.8203 68.8066C81.6836 69.015 81.6152 69.2559 81.6152 69.5293H79.0273C79.0273 69.0931 79.1315 68.6797 79.3398 68.2891C79.5482 67.8919 79.8444 67.5404 80.2285 67.2344C80.6191 66.9219 81.0846 66.6777 81.625 66.502C82.1719 66.3262 82.7839 66.2383 83.4609 66.2383C84.2617 66.2383 84.9746 66.375 85.5996 66.6484C86.2311 66.9154 86.7259 67.319 87.084 67.8594C87.4486 68.3997 87.6309 69.0801 87.6309 69.9004V74.5098C87.6309 75.0371 87.6634 75.4896 87.7285 75.8672C87.8001 76.2383 87.9043 76.5605 88.041 76.834V77H85.4141C85.2904 76.7331 85.196 76.3945 85.1309 75.9844C85.0658 75.5677 85.0332 75.1576 85.0332 74.7539ZM85.3945 70.5645L85.4141 72.0977H83.7832C83.3796 72.0977 83.0247 72.14 82.7188 72.2246C82.4128 72.3027 82.1621 72.4199 81.9668 72.5762C81.7715 72.7259 81.625 72.9082 81.5273 73.123C81.4297 73.3314 81.3809 73.569 81.3809 73.8359C81.3809 74.0964 81.4395 74.3307 81.5566 74.5391C81.6803 74.7474 81.8561 74.9134 82.084 75.0371C82.3184 75.1543 82.5918 75.2129 82.9043 75.2129C83.36 75.2129 83.7572 75.1217 84.0957 74.9395C84.4342 74.7507 84.6979 74.5228 84.8867 74.2559C85.0755 73.9889 85.1764 73.735 85.1895 73.4941L85.9316 74.6074C85.8405 74.8743 85.7038 75.1576 85.5215 75.457C85.3392 75.7565 85.1048 76.0365 84.8184 76.2969C84.5319 76.5573 84.1868 76.7721 83.7832 76.9414C83.3796 77.1107 82.9108 77.1953 82.377 77.1953C81.6934 77.1953 81.0814 77.0586 80.541 76.7852C80.0007 76.5117 79.5742 76.1374 79.2617 75.6621C78.9492 75.1868 78.793 74.6465 78.793 74.041C78.793 73.4811 78.8971 72.9863 79.1055 72.5566C79.3138 72.127 79.623 71.7656 80.0332 71.4727C80.4434 71.1732 80.9512 70.9486 81.5566 70.7988C82.1686 70.6426 82.8685 70.5645 83.6562 70.5645H85.3945ZM96.293 74.7539V62H98.8906V77H96.5469L96.293 74.7539ZM89.5059 71.8438V71.6387C89.5059 70.8314 89.597 70.099 89.7793 69.4414C89.9681 68.7773 90.2415 68.2077 90.5996 67.7324C90.9577 67.2572 91.3906 66.8893 91.8984 66.6289C92.4128 66.3685 92.9954 66.2383 93.6465 66.2383C94.278 66.2383 94.8281 66.3652 95.2969 66.6191C95.7721 66.873 96.1758 67.2344 96.5078 67.7031C96.8464 68.1719 97.1165 68.7285 97.3184 69.373C97.5202 70.0111 97.6667 70.7142 97.7578 71.4824V72.0391C97.6667 72.7878 97.5202 73.4746 97.3184 74.0996C97.1165 74.7246 96.8464 75.2715 96.5078 75.7402C96.1758 76.2025 95.7721 76.5605 95.2969 76.8145C94.8216 77.0684 94.265 77.1953 93.627 77.1953C92.9824 77.1953 92.403 77.0618 91.8887 76.7949C91.3809 76.528 90.9479 76.1536 90.5898 75.6719C90.2383 75.1901 89.9681 74.6237 89.7793 73.9727C89.597 73.3216 89.5059 72.612 89.5059 71.8438ZM92.0938 71.6387V71.8438C92.0938 72.2995 92.1328 72.7259 92.2109 73.123C92.2891 73.5202 92.416 73.8717 92.5918 74.1777C92.7676 74.4772 92.9922 74.7116 93.2656 74.8809C93.5456 75.0501 93.8841 75.1348 94.2812 75.1348C94.7891 75.1348 95.2057 75.0241 95.5312 74.8027C95.8633 74.5749 96.1204 74.2656 96.3027 73.875C96.485 73.4779 96.6022 73.0319 96.6543 72.5371V71.0039C96.6283 70.6133 96.5599 70.252 96.4492 69.9199C96.3451 69.5879 96.1953 69.3014 96 69.0605C95.8112 68.8197 95.5768 68.6309 95.2969 68.4941C95.0169 68.3574 94.6849 68.2891 94.3008 68.2891C93.9036 68.2891 93.5651 68.377 93.2852 68.5527C93.0052 68.722 92.7773 68.9596 92.6016 69.2656C92.4258 69.5716 92.2956 69.9264 92.2109 70.3301C92.1328 70.7337 92.0938 71.1699 92.0938 71.6387ZM107.562 74.7539V62H110.16V77H107.816L107.562 74.7539ZM100.775 71.8438V71.6387C100.775 70.8314 100.867 70.099 101.049 69.4414C101.238 68.7773 101.511 68.2077 101.869 67.7324C102.227 67.2572 102.66 66.8893 103.168 66.6289C103.682 66.3685 104.265 66.2383 104.916 66.2383C105.548 66.2383 106.098 66.3652 106.566 66.6191C107.042 66.873 107.445 67.2344 107.777 67.7031C108.116 68.1719 108.386 68.7285 108.588 69.373C108.79 70.0111 108.936 70.7142 109.027 71.4824V72.0391C108.936 72.7878 108.79 73.4746 108.588 74.0996C108.386 74.7246 108.116 75.2715 107.777 75.7402C107.445 76.2025 107.042 76.5605 106.566 76.8145C106.091 77.0684 105.535 77.1953 104.896 77.1953C104.252 77.1953 103.673 77.0618 103.158 76.7949C102.65 76.528 102.217 76.1536 101.859 75.6719C101.508 75.1901 101.238 74.6237 101.049 73.9727C100.867 73.3216 100.775 72.612 100.775 71.8438ZM103.363 71.6387V71.8438C103.363 72.2995 103.402 72.7259 103.48 73.123C103.559 73.5202 103.686 73.8717 103.861 74.1777C104.037 74.4772 104.262 74.7116 104.535 74.8809C104.815 75.0501 105.154 75.1348 105.551 75.1348C106.059 75.1348 106.475 75.0241 106.801 74.8027C107.133 74.5749 107.39 74.2656 107.572 73.875C107.755 73.4779 107.872 73.0319 107.924 72.5371V71.0039C107.898 70.6133 107.829 70.252 107.719 69.9199C107.615 69.5879 107.465 69.3014 107.27 69.0605C107.081 68.8197 106.846 68.6309 106.566 68.4941C106.286 68.3574 105.954 68.2891 105.57 68.2891C105.173 68.2891 104.835 68.377 104.555 68.5527C104.275 68.722 104.047 68.9596 103.871 69.2656C103.695 69.5716 103.565 69.9264 103.48 70.3301C103.402 70.7337 103.363 71.1699 103.363 71.6387ZM115.072 68.5918V77H112.494V66.4336H114.936L115.072 68.5918ZM118.285 66.3652L118.246 68.7676C118.103 68.7415 117.94 68.722 117.758 68.709C117.582 68.696 117.416 68.6895 117.26 68.6895C116.863 68.6895 116.514 68.7448 116.215 68.8555C115.915 68.9596 115.665 69.1126 115.463 69.3145C115.268 69.5163 115.118 69.7637 115.014 70.0566C114.91 70.3431 114.851 70.6686 114.838 71.0332L114.281 70.9648C114.281 70.2943 114.35 69.6725 114.486 69.0996C114.623 68.5267 114.822 68.0254 115.082 67.5957C115.342 67.166 115.668 66.834 116.059 66.5996C116.456 66.3587 116.911 66.2383 117.426 66.2383C117.569 66.2383 117.722 66.2513 117.885 66.2773C118.054 66.2969 118.188 66.3262 118.285 66.3652ZM124.252 77.1953C123.451 77.1953 122.732 77.0651 122.094 76.8047C121.456 76.5443 120.912 76.1829 120.463 75.7207C120.02 75.252 119.678 74.7083 119.438 74.0898C119.203 73.4648 119.086 72.7943 119.086 72.0781V71.6875C119.086 70.8737 119.203 70.1348 119.438 69.4707C119.672 68.8001 120.004 68.224 120.434 67.7422C120.863 67.2604 121.378 66.8893 121.977 66.6289C122.576 66.3685 123.236 66.2383 123.959 66.2383C124.708 66.2383 125.368 66.3652 125.941 66.6191C126.514 66.8665 126.993 67.2181 127.377 67.6738C127.761 68.1296 128.051 68.6764 128.246 69.3145C128.441 69.946 128.539 70.6458 128.539 71.4141V72.498H120.258V70.7207H126V70.5254C125.987 70.1152 125.909 69.7409 125.766 69.4023C125.622 69.0573 125.401 68.7839 125.102 68.582C124.802 68.3737 124.415 68.2695 123.939 68.2695C123.555 68.2695 123.22 68.3542 122.934 68.5234C122.654 68.6862 122.419 68.9206 122.23 69.2266C122.048 69.526 121.911 69.8841 121.82 70.3008C121.729 70.7174 121.684 71.1797 121.684 71.6875V72.0781C121.684 72.5208 121.742 72.931 121.859 73.3086C121.983 73.6862 122.162 74.015 122.396 74.2949C122.637 74.5684 122.924 74.7832 123.256 74.9395C123.594 75.0892 123.979 75.1641 124.408 75.1641C124.949 75.1641 125.437 75.0599 125.873 74.8516C126.316 74.6367 126.7 74.321 127.025 73.9043L128.324 75.252C128.103 75.5775 127.803 75.89 127.426 76.1895C127.055 76.4889 126.605 76.7331 126.078 76.9219C125.551 77.1042 124.942 77.1953 124.252 77.1953ZM136.078 74.1094C136.078 73.888 136.02 73.6895 135.902 73.5137C135.785 73.3379 135.564 73.1784 135.238 73.0352C134.919 72.8854 134.451 72.7454 133.832 72.6152C133.285 72.498 132.781 72.3516 132.318 72.1758C131.856 72 131.459 71.7884 131.127 71.541C130.795 71.2871 130.535 70.9909 130.346 70.6523C130.163 70.3073 130.072 69.9102 130.072 69.4609C130.072 69.0247 130.167 68.6146 130.355 68.2305C130.544 67.8398 130.818 67.498 131.176 67.2051C131.534 66.9056 131.97 66.6712 132.484 66.502C132.999 66.3262 133.578 66.2383 134.223 66.2383C135.121 66.2383 135.893 66.3848 136.537 66.6777C137.188 66.9707 137.686 67.3743 138.031 67.8887C138.376 68.3965 138.549 68.9694 138.549 69.6074H135.971C135.971 69.3275 135.906 69.0736 135.775 68.8457C135.652 68.6178 135.46 68.4355 135.199 68.2988C134.939 68.1556 134.61 68.084 134.213 68.084C133.855 68.084 133.552 68.1426 133.305 68.2598C133.064 68.377 132.882 68.5299 132.758 68.7188C132.634 68.9076 132.572 69.1159 132.572 69.3438C132.572 69.513 132.605 69.666 132.67 69.8027C132.742 69.9329 132.855 70.0534 133.012 70.1641C133.168 70.2747 133.38 70.3757 133.646 70.4668C133.92 70.5579 134.255 70.6458 134.652 70.7305C135.44 70.8867 136.127 71.0951 136.713 71.3555C137.305 71.6094 137.768 71.9479 138.1 72.3711C138.432 72.7943 138.598 73.3346 138.598 73.9922C138.598 74.4609 138.497 74.8906 138.295 75.2812C138.093 75.6654 137.8 76.0007 137.416 76.2871C137.032 76.5736 136.573 76.7982 136.039 76.9609C135.505 77.1172 134.903 77.1953 134.232 77.1953C133.262 77.1953 132.442 77.0228 131.771 76.6777C131.101 76.3262 130.593 75.8835 130.248 75.3496C129.903 74.8092 129.73 74.2493 129.73 73.6699H132.201C132.221 74.0801 132.331 74.4089 132.533 74.6562C132.735 74.9036 132.989 75.0827 133.295 75.1934C133.607 75.2975 133.936 75.3496 134.281 75.3496C134.672 75.3496 135.001 75.2975 135.268 75.1934C135.535 75.0827 135.736 74.9362 135.873 74.7539C136.01 74.5651 136.078 74.3503 136.078 74.1094ZM146.371 74.1094C146.371 73.888 146.312 73.6895 146.195 73.5137C146.078 73.3379 145.857 73.1784 145.531 73.0352C145.212 72.8854 144.743 72.7454 144.125 72.6152C143.578 72.498 143.074 72.3516 142.611 72.1758C142.149 72 141.752 71.7884 141.42 71.541C141.088 71.2871 140.827 70.9909 140.639 70.6523C140.456 70.3073 140.365 69.9102 140.365 69.4609C140.365 69.0247 140.46 68.6146 140.648 68.2305C140.837 67.8398 141.111 67.498 141.469 67.2051C141.827 66.9056 142.263 66.6712 142.777 66.502C143.292 66.3262 143.871 66.2383 144.516 66.2383C145.414 66.2383 146.186 66.3848 146.83 66.6777C147.481 66.9707 147.979 67.3743 148.324 67.8887C148.669 68.3965 148.842 68.9694 148.842 69.6074H146.264C146.264 69.3275 146.199 69.0736 146.068 68.8457C145.945 68.6178 145.753 68.4355 145.492 68.2988C145.232 68.1556 144.903 68.084 144.506 68.084C144.148 68.084 143.845 68.1426 143.598 68.2598C143.357 68.377 143.174 68.5299 143.051 68.7188C142.927 68.9076 142.865 69.1159 142.865 69.3438C142.865 69.513 142.898 69.666 142.963 69.8027C143.035 69.9329 143.148 70.0534 143.305 70.1641C143.461 70.2747 143.673 70.3757 143.939 70.4668C144.213 70.5579 144.548 70.6458 144.945 70.7305C145.733 70.8867 146.42 71.0951 147.006 71.3555C147.598 71.6094 148.061 71.9479 148.393 72.3711C148.725 72.7943 148.891 73.3346 148.891 73.9922C148.891 74.4609 148.79 74.8906 148.588 75.2812C148.386 75.6654 148.093 76.0007 147.709 76.2871C147.325 76.5736 146.866 76.7982 146.332 76.9609C145.798 77.1172 145.196 77.1953 144.525 77.1953C143.555 77.1953 142.735 77.0228 142.064 76.6777C141.394 76.3262 140.886 75.8835 140.541 75.3496C140.196 74.8092 140.023 74.2493 140.023 73.6699H142.494C142.514 74.0801 142.624 74.4089 142.826 74.6562C143.028 74.9036 143.282 75.0827 143.588 75.1934C143.9 75.2975 144.229 75.3496 144.574 75.3496C144.965 75.3496 145.294 75.2975 145.561 75.1934C145.827 75.0827 146.029 74.9362 146.166 74.7539C146.303 74.5651 146.371 74.3503 146.371 74.1094ZM158.171 71.86C158.105 71.3267 158.145 70.86 158.291 70.46C158.451 70.06 158.671 69.7 158.951 69.38C159.245 69.06 159.565 68.7667 159.911 68.5C160.271 68.2333 160.605 67.9733 160.911 67.72C161.231 67.4667 161.491 67.2067 161.691 66.94C161.891 66.6733 161.991 66.38 161.991 66.06C161.991 65.66 161.891 65.32 161.691 65.04C161.491 64.76 161.198 64.5467 160.811 64.4C160.438 64.2533 159.985 64.18 159.451 64.18C158.838 64.18 158.278 64.3133 157.771 64.58C157.265 64.8467 156.765 65.24 156.271 65.76L154.631 64.24C155.271 63.5067 156.025 62.92 156.891 62.48C157.771 62.0267 158.738 61.8 159.791 61.8C160.765 61.8 161.625 61.9467 162.371 62.24C163.131 62.5333 163.725 62.98 164.151 63.58C164.591 64.1667 164.811 64.9067 164.811 65.8C164.811 66.2933 164.705 66.7267 164.491 67.1C164.291 67.46 164.025 67.7867 163.691 68.08C163.371 68.36 163.031 68.6333 162.671 68.9C162.311 69.1533 161.978 69.42 161.671 69.7C161.365 69.98 161.125 70.2933 160.951 70.64C160.778 70.9867 160.711 71.3933 160.751 71.86H158.171ZM159.471 77.18C158.965 77.18 158.545 77.0133 158.211 76.68C157.878 76.3467 157.711 75.9267 157.711 75.42C157.711 74.9 157.878 74.4733 158.211 74.14C158.545 73.8067 158.965 73.64 159.471 73.64C159.978 73.64 160.398 73.8067 160.731 74.14C161.065 74.4733 161.231 74.9 161.231 75.42C161.231 75.9267 161.065 76.3467 160.731 76.68C160.398 77.0133 159.978 77.18 159.471 77.18Z" fill="black"/>
<rect x="16.5" y="93.5" width="58" height="31" rx="15.5" stroke="#0066FF"/>
<path d="M29.3696 104.004H31.2876L34.6896 111.844H34.7456L38.1336 104.004H40.0516V114H38.4136V107.112H38.3576L35.4176 114H34.0036L31.0636 107.112H31.0076V114H29.3696V104.004ZM45.2361 106.566C46.3281 106.566 47.2101 106.916 47.8821 107.644C48.5401 108.358 48.8761 109.268 48.8761 110.388C48.8761 111.494 48.5401 112.404 47.8961 113.104C47.2241 113.832 46.3281 114.196 45.2361 114.196C44.1301 114.196 43.2481 113.832 42.5761 113.104C41.9181 112.404 41.5961 111.494 41.5961 110.388C41.5961 109.268 41.9181 108.358 42.5901 107.644C43.2481 106.916 44.1301 106.566 45.2361 106.566ZM45.2361 107.868C44.5641 107.868 44.0601 108.12 43.6961 108.652C43.3881 109.1 43.2341 109.688 43.2341 110.388C43.2341 111.088 43.3881 111.662 43.6961 112.11C44.0601 112.628 44.5641 112.894 45.2361 112.894C45.8941 112.894 46.4121 112.628 46.7761 112.11C47.0841 111.648 47.2521 111.074 47.2521 110.388C47.2521 109.688 47.0841 109.1 46.7761 108.652C46.4121 108.12 45.8941 107.868 45.2361 107.868ZM53.6867 106.566C54.0367 106.566 54.3447 106.622 54.5967 106.748V108.344C54.2327 108.232 53.8967 108.19 53.5607 108.19C53.1407 108.19 52.7627 108.344 52.4267 108.68C52.0347 109.058 51.8527 109.548 51.8527 110.164V114H50.2707V106.762H51.8527V107.798C52.0487 107.434 52.2727 107.154 52.5387 106.958C52.8607 106.692 53.2387 106.566 53.6867 106.566ZM58.587 106.566C59.777 106.566 60.687 106.958 61.317 107.77C61.891 108.498 62.185 109.52 62.185 110.822H56.767C56.823 111.494 57.005 112.012 57.313 112.362C57.621 112.712 58.069 112.894 58.643 112.894C59.133 112.894 59.525 112.782 59.833 112.558C60.071 112.376 60.281 112.082 60.477 111.676H62.073C61.905 112.348 61.569 112.922 61.065 113.37C60.421 113.916 59.623 114.196 58.657 114.196C57.579 114.196 56.725 113.86 56.095 113.202C55.423 112.516 55.087 111.578 55.087 110.374C55.087 109.296 55.395 108.4 56.039 107.672C56.655 106.93 57.509 106.566 58.587 106.566ZM58.629 107.868C58.097 107.868 57.691 108.008 57.383 108.316C57.089 108.61 56.893 109.044 56.795 109.618H60.519C60.379 108.442 59.749 107.868 58.629 107.868Z" fill="#0066FF"/>
<defs>
<linearGradient id="paint0_linear_10432_20891" x1="171.5" y1="-0.5" x2="171.5" y2="158.5" gradientUnits="userSpaceOnUse">
<stop stop-color="#DCEBFF"/>
<stop offset="1" stop-color="white"/>
</linearGradient>
<linearGradient id="paint1_linear_10432_20891" x1="311.023" y1="75.906" x2="228.113" y2="91.6322" gradientUnits="userSpaceOnUse">
<stop stop-color="#4066EA"/>
<stop offset="1" stop-color="#4066EA" stop-opacity="0.4"/>
</linearGradient>
<linearGradient id="paint2_linear_10432_20891" x1="261.698" y1="124.733" x2="239.822" y2="124.841" gradientUnits="userSpaceOnUse">
<stop stop-color="#F3F3F3"/>
<stop offset="1" stop-color="#F3F3F3" stop-opacity="0"/>
</linearGradient>
<linearGradient id="paint3_linear_10432_20891" x1="300.693" y1="85.1389" x2="290.652" y2="99.3063" gradientUnits="userSpaceOnUse">
<stop stop-color="#97ACF8"/>
<stop offset="1" stop-color="#B2C3FF"/>
</linearGradient>
<clipPath id="clip0_10432_20891">
<rect width="10.9446" height="10.9176" fill="white" transform="translate(256.247 35.4287)"/>
</clipPath>
<clipPath id="clip1_10432_20891">
<rect width="10.9446" height="10.9176" fill="white" transform="translate(232.053 59.5623)"/>
</clipPath>
<clipPath id="clip2_10432_20891">
<rect width="10.9446" height="10.9176" fill="white" transform="translate(270.935 35.4287)"/>
</clipPath>
</defs>
</svg>
