<svg width="301" height="135" viewBox="0 0 301 135" fill="none" xmlns="http://www.w3.org/2000/svg">
<path d="M149.169 124.435C202.269 124.435 245.315 114.126 245.315 101.41C245.315 88.6932 202.269 78.3848 149.169 78.3848C96.0699 78.3848 53.0244 88.6932 53.0244 101.41C53.0244 114.126 96.0699 124.435 149.169 124.435Z" fill="url(#paint0_linear_10879_17040)"/>
<path fill-rule="evenodd" clip-rule="evenodd" d="M226.747 77.7266H227.54C227.868 77.7266 228.135 77.9916 228.135 78.3187V86.3446C228.135 86.4223 228.119 86.4993 228.089 86.5712C228.059 86.643 228.016 86.7083 227.96 86.7633C227.905 86.8182 227.84 86.8619 227.767 86.8916C227.695 86.9214 227.618 86.9367 227.54 86.9367H226.747C226.669 86.9367 226.592 86.9214 226.519 86.8916C226.447 86.8619 226.382 86.8182 226.327 86.7633C226.271 86.7083 226.228 86.643 226.198 86.5712C226.168 86.4993 226.152 86.4223 226.152 86.3446V78.3187C226.152 77.9916 226.419 77.7266 226.747 77.7266Z" fill="#F0F0F3" fill-opacity="0.9"/>
<path fill-rule="evenodd" clip-rule="evenodd" d="M140.667 20.4922V81.1969L201.104 89.3214V34.9745L140.667 20.4922Z" fill="#DDDDE7"/>
<path fill-rule="evenodd" clip-rule="evenodd" d="M95.5825 34.9745L140.667 20.4922V73.6884L95.5825 90.039V34.9745Z" fill="#ECECF4"/>
<path d="M95.5825 34.9746V90.039L156.866 108.419V50.4396L95.5825 34.9746Z" fill="url(#paint1_linear_10879_17040)"/>
<path d="M156.866 50.4396V108.419L201.104 89.3215V34.9746L156.866 50.4396Z" fill="url(#paint2_linear_10879_17040)"/>
<path fill-rule="evenodd" clip-rule="evenodd" d="M95.5823 34.9746L80.7773 56.8049L139.304 73.6893L156.866 50.4396L95.5823 34.9746Z" fill="#F4F4F9"/>
<path fill-rule="evenodd" clip-rule="evenodd" d="M156.866 50.4396L171.537 75.6821L217.476 55.6394L201.104 34.9746L156.866 50.4396Z" fill="url(#paint3_linear_10879_17040)"/>
<path fill-rule="evenodd" clip-rule="evenodd" d="M197.38 57.4075C194.264 60.7981 192.398 62.8933 191.78 63.6922C191.534 64.0394 192.554 65.019 194.839 66.6311C198.001 66.4272 199.34 66.5915 198.854 67.1239C198.534 67.4532 197.319 68.4253 196.897 67.8713C196.616 67.5024 195.474 67.2665 193.47 67.1635C189.555 67.0298 188.294 65.5006 189.689 62.5752C191.083 59.6505 192.635 57.1805 194.344 55.166L197.213 57.0939L197.38 57.4075Z" fill="url(#paint4_linear_10879_17040)"/>
<path fill-rule="evenodd" clip-rule="evenodd" d="M197.963 46.7856C197.468 49.2675 197.7 50.7273 198.66 51.1648C199.916 51.6905 198.704 52.918 198.449 53.0516C198.281 53.1405 198.43 53.3951 198.899 53.8147C199.694 54.2366 200.278 54.4046 200.651 54.3187C201.024 54.2329 201.479 53.811 202.016 53.0516C201.016 52.3289 200.667 51.7487 200.972 51.3119C201.275 50.8751 201.737 50.4189 202.357 49.9447C202.958 49.4818 202.935 49.1294 202.287 48.8882C202.444 48.4499 202.502 47.9504 202.461 47.3897L200.353 46.7856L198.206 46.3145L197.963 46.7856Z" fill="url(#paint5_linear_10879_17040)"/>
<path fill-rule="evenodd" clip-rule="evenodd" d="M199.309 47.3499C201.364 46.7615 201.91 47.6657 201.91 48.048C201.91 48.3034 201.845 48.726 201.716 49.3159C201.897 49.2377 202.076 49.1518 202.25 49.0583C202.88 48.6999 203.297 48.0645 203.446 47.5694C203.723 46.6443 202.907 44.6821 200.791 44.9747C200.053 44.8344 199.936 43.742 198.653 44.414C197.372 45.086 196.939 44.5693 196.939 45.2577C196.939 45.9469 196.992 48.0697 199.309 47.3499Z" fill="#353564"/>
<path fill-rule="evenodd" clip-rule="evenodd" d="M194.665 103.288C193.313 104.121 192.369 104.536 191.832 104.536C191.026 104.536 190.59 105.255 191.34 105.642C192.089 106.031 194.488 105.471 195.102 105.471C195.717 105.471 197.298 105.693 196.692 103.938C196.288 102.768 195.918 102.27 195.579 102.444L194.665 102.691V103.288ZM203.946 103.204C203.011 104.497 202.3 105.222 201.813 105.379C201.083 105.617 200.939 106.516 201.754 106.712C202.569 106.908 204.549 105.602 205.106 105.421C205.663 105.241 207.174 105.013 206.012 103.307C205.236 102.169 204.726 101.743 204.48 102.03L203.738 102.564L203.946 103.204Z" fill="#3E3E6E"/>
<path fill-rule="evenodd" clip-rule="evenodd" d="M202.673 72.5566C201.793 78.3948 200.552 82.9577 198.95 86.246C198.074 90.3415 197.513 102.738 196.35 103.207C195.186 103.677 194.357 103.395 194.399 102.796C194.441 102.196 192.849 85.577 193.03 82.9928C193.151 81.2695 193.168 77.8513 193.083 72.7381L202.673 72.5566Z" fill="url(#paint6_linear_10879_17040)"/>
<path fill-rule="evenodd" clip-rule="evenodd" d="M206.764 71.8906C206.889 77.4959 206.567 83.5132 205.796 89.942C205.076 97.9553 206.63 102.394 205.532 103.001C204.434 103.609 203.577 103.431 203.546 102.83C203.514 102.229 200.17 86.0093 200.034 83.4221C199.943 81.6973 199.544 78.3023 198.835 73.2376L206.764 71.8906Z" fill="url(#paint7_linear_10879_17040)"/>
<path fill-rule="evenodd" clip-rule="evenodd" d="M198.51 52.8192C199.822 54.2364 201.027 54.2364 202.126 52.8192C202.318 52.6908 206.355 52.4907 209.216 57.1215C209.245 57.2977 208.442 58.252 206.808 59.9857H206.308C207.418 65.6828 207.585 70.2218 206.808 73.602C206.706 73.9536 202.117 74.1515 193.042 74.1948C193.018 66.5721 193.525 62.0652 194.561 60.6742C194.434 60.4181 193.493 59.5818 191.737 58.1639C192.29 56.9797 193.122 55.8402 194.232 54.7471C195.342 53.654 196.768 53.0119 198.51 52.8192Z" fill="#1677FF"/>
<path d="M179.625 48.2598C179.384 48.0196 179.057 47.8847 178.715 47.8848C178.374 47.8848 178.047 48.0199 177.805 48.2602C177.564 48.5005 177.429 48.8264 177.429 49.1662C177.429 49.5059 177.564 49.8318 177.806 50.072L198.247 70.4224C198.488 70.6626 198.816 70.7975 199.157 70.7974C199.498 70.7974 199.826 70.6623 200.067 70.422C200.308 70.1817 200.444 69.8558 200.444 69.516C200.444 69.1762 200.308 68.8504 200.067 68.6102L179.625 48.2598Z" fill="#EFAB23"/>
<path d="M189.972 58.9283C193.924 54.9941 193.924 48.6153 189.972 44.6811C186.02 40.7469 179.614 40.7469 175.661 44.6811C171.709 48.6153 171.709 54.9941 175.661 58.9283C179.614 62.8624 186.02 62.8624 189.972 58.9283Z" fill="url(#paint8_linear_10879_17040)"/>
<path d="M188.779 57.7419C192.072 54.4632 192.072 49.1477 188.779 45.8691C185.485 42.5905 180.146 42.5905 176.854 45.8691C173.56 49.1477 173.56 54.4632 176.854 57.7419C180.146 61.0205 185.485 61.0205 188.779 57.7419Z" fill="url(#paint9_linear_10879_17040)"/>
<path fill-rule="evenodd" clip-rule="evenodd" d="M205.713 59.6303C205.61 60.2724 207.406 63.0784 208.081 64.0938C208.301 64.1677 202.438 66.5324 201.94 66.8602C200.585 67.7555 200.569 69.1413 201.676 69.4571C202.783 69.773 203.001 67.7159 203.215 67.6666C206.947 66.8065 207.273 66.8998 209.751 66.3002C211.89 65.8395 210.274 62.1353 208.837 58.1481C207.399 54.1609 205.815 58.9881 205.713 59.6303Z" fill="url(#paint10_linear_10879_17040)"/>
<path fill-rule="evenodd" clip-rule="evenodd" d="M204.769 53.2148C205.452 53.5396 205.927 53.7831 206.196 53.9436C206.897 54.3632 207.376 54.7761 207.685 55.0255C208.643 55.7976 209.125 56.589 209.402 57.1826C209.634 57.5933 207.175 61.3147 204.769 60.8928C204.439 60.8794 203.916 60.1118 203.197 58.5894L204.769 53.2148Z" fill="#1677FF"/>
<path fill-rule="evenodd" clip-rule="evenodd" d="M194.512 67.12C195.336 66.8534 195.895 66.0941 195.761 65.6827C195.627 65.272 194.853 65.0361 194.364 65.6819C194.224 65.8671 194.292 66.7773 192.903 66.1531C192.529 65.9851 192.43 66.1807 192.513 66.4346C192.592 66.6765 192.47 67.0648 193.379 67.1521C193.722 67.185 194.173 67.229 194.512 67.12Z" fill="#FFCEBF"/>
<path d="M193.609 66.4715C193.96 66.2176 194.141 65.8704 194.013 65.6957C193.886 65.5217 193.498 65.5852 193.148 65.8391C192.797 66.0922 192.616 66.4394 192.744 66.6141C192.871 66.7888 193.259 66.7246 193.609 66.4715Z" fill="#FFCEBF"/>
<defs>
<linearGradient id="paint0_linear_10879_17040" x1="149.169" y1="129.934" x2="149.169" y2="61" gradientUnits="userSpaceOnUse">
<stop stop-color="#FCFCFE" stop-opacity="0"/>
<stop offset="1" stop-color="white"/>
</linearGradient>
<linearGradient id="paint1_linear_10879_17040" x1="110.336" y1="71.6972" x2="148.722" y2="83.2961" gradientUnits="userSpaceOnUse">
<stop stop-color="#F6F6F9"/>
<stop offset="1" stop-color="#E4E4EB"/>
</linearGradient>
<linearGradient id="paint2_linear_10879_17040" x1="178.985" y1="99.739" x2="178.985" y2="53.8414" gradientUnits="userSpaceOnUse">
<stop stop-color="#EEEEF3"/>
<stop offset="1" stop-color="#DDDDE5"/>
</linearGradient>
<linearGradient id="paint3_linear_10879_17040" x1="198.092" y1="48.9231" x2="183.92" y2="70.3822" gradientUnits="userSpaceOnUse">
<stop stop-color="#ECECF1"/>
<stop offset="1" stop-color="#EBEDF3"/>
</linearGradient>
<linearGradient id="paint4_linear_10879_17040" x1="193.449" y1="68.7247" x2="195.833" y2="57.0808" gradientUnits="userSpaceOnUse">
<stop stop-color="#FFD2C4"/>
<stop offset="1" stop-color="#FFB8A3"/>
</linearGradient>
<linearGradient id="paint5_linear_10879_17040" x1="198.773" y1="47.6099" x2="202.696" y2="52.0401" gradientUnits="userSpaceOnUse">
<stop stop-color="#FFD2C4"/>
<stop offset="1" stop-color="#FFB8A3"/>
</linearGradient>
<linearGradient id="paint6_linear_10879_17040" x1="199.87" y1="101.969" x2="196.998" y2="74.0395" gradientUnits="userSpaceOnUse">
<stop stop-color="#7C7C7C"/>
<stop offset="1" stop-color="#595959"/>
</linearGradient>
<linearGradient id="paint7_linear_10879_17040" x1="204.482" y1="101.875" x2="200.877" y2="73.5599" gradientUnits="userSpaceOnUse">
<stop stop-color="#7C7C7C"/>
<stop offset="1" stop-color="#595959"/>
</linearGradient>
<linearGradient id="paint8_linear_10879_17040" x1="191.938" y1="53.3917" x2="173.748" y2="51.7571" gradientUnits="userSpaceOnUse">
<stop stop-color="#FAC251"/>
<stop offset="1" stop-color="#FFDE9B"/>
</linearGradient>
<linearGradient id="paint9_linear_10879_17040" x1="176.854" y1="45.8691" x2="188.726" y2="57.7947" gradientUnits="userSpaceOnUse">
<stop stop-color="#FCFCFF"/>
<stop offset="1" stop-color="#FAFAFC"/>
</linearGradient>
<linearGradient id="paint10_linear_10879_17040" x1="205.489" y1="68.8479" x2="208.654" y2="60.2774" gradientUnits="userSpaceOnUse">
<stop stop-color="#FFD2C4"/>
<stop offset="1" stop-color="#FFB8A3"/>
</linearGradient>
</defs>
</svg>
