<svg width="24" height="24" viewBox="0 0 24 24" fill="none" xmlns="http://www.w3.org/2000/svg">
<g id="Sphere (&#229;&#156;&#134;&#231;&#144;&#131;)">
<path id="Vector" d="M12 16C17.5229 16 22 14.2092 22 12C22 9.79085 17.5229 8 12 8C6.47715 8 2 9.79085 2 12C2 14.2092 6.47715 16 12 16Z" stroke="#1677FF" stroke-width="1.5" stroke-linecap="round" stroke-linejoin="round"/>
<path id="Vector_2" d="M16 12C16 17.5229 14.2092 22 12 22C9.79085 22 8 17.5229 8 12C8 6.47715 9.79085 2 12 2C14.2092 2 16 6.47715 16 12Z" stroke="#1677FF" stroke-width="1.5" stroke-linecap="round" stroke-linejoin="round"/>
<path id="Vector_3" d="M12 22C17.5228 22 22 17.5228 22 12C22 6.47715 17.5228 2 12 2C6.47715 2 2 6.47715 2 12C2 17.5228 6.47715 22 12 22Z" stroke="#1677FF" stroke-width="1.5" stroke-linejoin="round"/>
</g>
</svg>
