<svg width="24" height="24" viewBox="0 0 24 24" fill="none" xmlns="http://www.w3.org/2000/svg">
<path d="M10.3369 12C12.6601 12 14.5434 10.1166 14.5434 7.79344C14.5434 5.47024 12.6601 3.58691 10.3369 3.58691C8.0137 3.58691 6.13037 5.47024 6.13037 7.79344C6.13037 10.1166 8.0137 12 10.3369 12Z" fill="#333333"/>
<path d="M21.5547 12C21.5567 11.414 21.4014 10.8382 21.1048 10.3328C20.8083 9.82741 20.3814 9.41092 19.8689 9.12687C19.3563 8.84282 18.7769 8.70164 18.1912 8.71809C17.6054 8.73453 17.0348 8.90799 16.539 9.22035C16.0432 9.5327 15.6404 9.97248 15.3727 10.4937C15.1049 11.015 14.9821 11.5986 15.017 12.1835C15.052 12.7685 15.2434 13.3333 15.5712 13.819C15.8991 14.3047 16.3513 14.6934 16.8808 14.9446V19.9457L18.283 21.3478L20.6199 19.0109L19.2177 17.6087L20.6199 16.2065L19.4608 15.0474C20.0764 14.8098 20.6058 14.3917 20.9795 13.8478C21.3532 13.304 21.5537 12.6599 21.5547 12ZM18.283 12C18.0981 12 17.9173 11.9452 17.7636 11.8425C17.6099 11.7397 17.4901 11.5938 17.4193 11.4229C17.3486 11.2521 17.3301 11.0642 17.3661 10.8829C17.4022 10.7015 17.4912 10.535 17.622 10.4042C17.7527 10.2735 17.9193 10.1845 18.1006 10.1484C18.2819 10.1123 18.4699 10.1308 18.6407 10.2016C18.8115 10.2723 18.9575 10.3922 19.0602 10.5459C19.1629 10.6996 19.2177 10.8803 19.2177 11.0652C19.2177 11.3131 19.1192 11.5509 18.9439 11.7262C18.7686 11.9015 18.5309 12 18.283 12Z" fill="#333333"/>
<path d="M14.0201 13.8884C13.3023 13.5684 12.5252 13.4028 11.7392 13.4023H8.93487C7.44735 13.4023 6.02076 13.9933 4.96892 15.0451C3.91709 16.0969 3.32617 17.5235 3.32617 19.011V20.8806H15.4783V15.73C14.8479 15.2457 14.347 14.6131 14.0201 13.8884V13.8884Z" fill="#333333"/>
</svg>
