<svg width="32" height="32" viewBox="0 0 32 32" fill="none" xmlns="http://www.w3.org/2000/svg">
<rect x="0.25" y="0.25" width="31.5" height="31.5" rx="15.75" fill="white"/>
<rect x="0.25" y="0.25" width="31.5" height="31.5" rx="15.75" stroke="#EEEEEE" stroke-width="0.5"/>
<g clip-path="url(#clip0_11106_37348)">
<mask id="mask0_11106_37348" style="mask-type:luminance" maskUnits="userSpaceOnUse" x="5" y="9" width="22" height="14">
<path d="M26.0367 9.5H5.96317V22.5H26.0367V9.5Z" fill="white"/>
</mask>
<g mask="url(#mask0_11106_37348)">
<path d="M13.8355 9.54688H13.7018H6.57717C6.23773 9.54688 5.96329 9.82132 5.96329 10.1608V12.6524C5.96329 12.9919 6.23773 13.2663 6.57717 13.2663H8.24911H8.91355V14.003V21.8896C8.91355 22.229 9.18798 22.5035 9.52744 22.5035H12.1419C12.4813 22.5035 12.7557 22.229 12.7557 21.8896V14.003V13.9344V13.2663H13.4202H13.691H13.8246C14.8502 13.2663 15.6843 12.4321 15.6843 11.4066C15.6952 10.381 14.861 9.54688 13.8355 9.54688Z" fill="#2980FE"/>
<path fill-rule="evenodd" clip-rule="evenodd" d="M20.899 9.54883C18.0607 9.54883 15.7568 11.8527 15.7568 14.691C15.7568 14.6978 15.7568 14.7045 15.7568 14.7113V21.8735C15.7568 22.2129 16.0313 22.4874 16.3707 22.4874H19.1224C19.4618 22.4874 19.7363 22.2129 19.7363 21.8735V19.7024L19.7394 19.7031L19.7519 19.7051C19.8891 19.7376 20.0175 19.7609 20.1619 19.7826C20.3641 19.8115 20.5736 19.8296 20.783 19.8332L20.8989 19.8331C21.0001 19.8331 21.0976 19.8296 21.1951 19.826C23.8962 19.6707 26.0412 17.4318 26.0412 14.691C26.0448 11.8527 23.7409 9.54883 20.899 9.54883ZM21.1951 15.8105C21.1012 15.8357 21.0001 15.8501 20.899 15.8501C20.8712 15.8501 20.8467 15.8497 20.8191 15.8465C20.2262 15.8075 19.7554 15.3215 19.7398 14.7217V14.691C19.7398 14.0519 20.2598 13.5319 20.899 13.5319C21.5381 13.5319 22.0581 14.0519 22.0581 14.691C22.0581 15.2291 21.6934 15.6805 21.1951 15.8105Z" fill="#2980FE"/>
</g>
</g>
<defs>
<clipPath id="clip0_11106_37348">
<rect width="20.0735" height="13" fill="white" transform="translate(5.96323 9.5)"/>
</clipPath>
</defs>
</svg>
