<svg width="24" height="24" viewBox="0 0 24 24" fill="none" xmlns="http://www.w3.org/2000/svg">
<path fill-rule="evenodd" clip-rule="evenodd" d="M4.5 1.25195C3.5335 1.25195 2.75 2.03545 2.75 3.00195V21.002C2.75 21.9685 3.53351 22.752 4.5 22.752H18.5C19.4665 22.752 20.25 21.9685 20.25 21.002V10.0043C20.25 9.59004 19.9142 9.25425 19.5 9.25425C19.0858 9.25425 18.75 9.59004 18.75 10.0043V21.002C18.75 21.14 18.6381 21.252 18.5 21.252H4.5C4.36192 21.252 4.25 21.14 4.25 21.002V3.00195C4.25 2.86388 4.36193 2.75195 4.5 2.75195H14.5C14.9142 2.75195 15.25 2.41617 15.25 2.00195C15.25 1.58774 14.9142 1.25195 14.5 1.25195H4.5ZM6.5 8.25195C6.08579 8.25195 5.75 8.58774 5.75 9.00195C5.75 9.41617 6.08579 9.75195 6.5 9.75195H10.5C10.9142 9.75195 11.25 9.41617 11.25 9.00195C11.25 8.58774 10.9142 8.25195 10.5 8.25195H6.5ZM5.75 14.002C5.75 13.5877 6.08579 13.252 6.5 13.252H12.5C12.9142 13.252 13.25 13.5877 13.25 14.002C13.25 14.4162 12.9142 14.752 12.5 14.752H6.5C6.08579 14.752 5.75 14.4162 5.75 14.002ZM21.0299 3.53277C21.3228 3.23987 21.3228 2.765 21.0299 2.47211C20.737 2.17922 20.2621 2.17922 19.9692 2.47211L13.9719 8.46952C13.679 8.76242 13.679 9.23729 13.9719 9.53018C14.2648 9.82308 14.7396 9.82307 15.0325 9.53018L21.0299 3.53277Z" fill="#0066FF"/>
</svg>
