<svg width="32" height="32" viewBox="0 0 32 32" fill="none" xmlns="http://www.w3.org/2000/svg">
<rect x="0.25" y="0.25" width="31.5" height="31.5" rx="15.75" fill="white"/>
<rect x="0.25" y="0.25" width="31.5" height="31.5" rx="15.75" stroke="#EEEEEE" stroke-width="0.5"/>
<path d="M25.9481 9.41964C26.6076 18.353 20.8652 22.5753 15.7173 23.0256C10.9313 23.4442 6.42628 20.5033 6.03106 15.985C5.70504 12.2521 8.01217 10.6628 9.82485 10.5044C11.6893 10.341 13.256 11.6267 13.3919 13.1834C13.5228 14.6801 12.5889 15.3613 11.9394 15.418C11.4258 15.463 10.7796 15.1512 10.7212 14.4816C10.6712 13.9063 10.8896 13.8279 10.8363 13.2167C10.7412 12.1287 9.79233 12.0019 9.27287 12.0469C8.64419 12.102 7.50355 12.8357 7.66364 14.6634C7.82456 16.5069 9.59222 17.9636 11.9094 17.761C14.4099 17.5425 16.1509 15.5956 16.2818 12.8649C16.2806 12.7203 16.3111 12.5771 16.371 12.4455L16.3719 12.4422C16.3988 12.385 16.4303 12.33 16.4661 12.2779C16.5195 12.1979 16.5878 12.1095 16.6762 12.0128C16.677 12.0103 16.677 12.0103 16.6787 12.0103C16.7429 11.9377 16.8204 11.8593 16.9079 11.7751C18.0002 10.7445 21.9341 8.31402 25.6545 9.08362C25.7332 9.10047 25.8043 9.1423 25.8571 9.20286C25.91 9.26342 25.9419 9.33947 25.9481 9.41964Z" fill="url(#paint0_linear_11106_37343)"/>
<defs>
<linearGradient id="paint0_linear_11106_37343" x1="23.9372" y1="12.3067" x2="8.96228" y2="20.8" gradientUnits="userSpaceOnUse">
<stop stop-color="#0CC5FF"/>
<stop offset="1" stop-color="#007FFF"/>
</linearGradient>
</defs>
</svg>
