<svg width="65" height="64" viewBox="0 0 65 64" fill="none" xmlns="http://www.w3.org/2000/svg">
<g clip-path="url(#clip0_11126_41489)">
<rect x="0.5" width="64" height="64" fill="#0066FF"/>
<rect x="0.5" width="64" height="64" fill="#0066FF"/>
<path d="M52.5 38.46C49.7678 44.3858 43.7713 48.5 36.8133 48.5C35.9112 48.5 35.0248 48.4311 34.1596 48.2961C33.7113 48.2273 33.2691 48.1414 32.8331 48.0377C32.7771 48.0248 32.7211 48.0111 32.6652 47.9975C30.2346 47.3988 28.0067 46.2854 26.1043 44.7799C24.975 43.886 23.9597 42.8544 23.0856 41.7096L12.625 31.0724L23.8675 19.8385L25.3926 18.3146C27.4424 16.5064 29.9248 15.1768 32.6652 14.5018C32.7211 14.4882 32.7771 14.4746 32.8331 14.4616C33.2691 14.3586 33.7113 14.2721 34.1596 14.2039C35.0248 14.0689 35.9112 14 36.8133 14C43.701 14 49.6471 18.031 52.4161 23.8606L45.3223 30.9483L36.8133 22.4465L34.1596 25.0982L32.8331 26.4237L28.135 31.1181L32.8331 35.8138L36.8133 39.7903L45.3223 31.2878L52.5 38.46Z" fill="white"/>
</g>
<defs>
<clipPath id="clip0_11126_41489">
<rect x="0.5" width="64" height="64" rx="16" fill="white"/>
</clipPath>
</defs>
</svg>
