<svg width="22" height="20" viewBox="0 0 22 20" fill="none" xmlns="http://www.w3.org/2000/svg">
<g id="_&#229;&#155;&#190;&#229;&#177;&#130;_1">
<path id="Vector" d="M21.902 13.8683C20.4356 17.0476 17.217 19.2549 13.4825 19.2549C12.9983 19.2549 12.5226 19.218 12.0582 19.1456C11.8176 19.1086 11.5802 19.0625 11.3462 19.0069C11.3162 19 11.2861 18.9927 11.2561 18.9853C9.95157 18.6642 8.75579 18.0668 7.73471 17.2591C7.12859 16.7795 6.58362 16.226 6.11447 15.6118L0.5 9.90474L6.53418 3.87758L7.35273 3.05999C8.45291 2.08985 9.78529 1.37651 11.2561 1.01436C11.2861 1.00704 11.3162 0.999724 11.3462 0.992773C11.5802 0.937535 11.8176 0.891077 12.0582 0.854496C12.5226 0.782064 12.9983 0.745117 13.4825 0.745117C17.1793 0.745117 20.3707 2.90781 21.8569 6.03552L18.0495 9.83816L13.4825 5.27682L12.0582 6.69947L11.3462 7.41062L8.82465 9.92925L11.3462 12.4486L13.4825 14.582L18.0495 10.0203L21.902 13.8683Z" fill="#0066FF"/>
</g>
</svg>
