<svg width="24" height="24" viewBox="0 0 24 24" fill="none" xmlns="http://www.w3.org/2000/svg">
<g id="Help (&#229;&#184;&#174;&#229;&#138;&#169;)">
<path id="Vector" d="M12 22.002C14.7614 22.002 17.2614 20.8827 19.0711 19.073C20.8807 17.2634 22 14.7634 22 12.002C22 9.24055 20.8807 6.74055 19.0711 4.93088C17.2614 3.12124 14.7614 2.00195 12 2.00195C9.2386 2.00195 6.7386 3.12124 4.92893 4.93088C3.11929 6.74055 2 9.24055 2 12.002C2 14.7634 3.11929 17.2634 4.92893 19.073C6.7386 20.8827 9.2386 22.002 12 22.002Z" stroke="#1677FF" stroke-width="1.5" stroke-linejoin="round"/>
<path id="Vector_2" d="M12 14.3145V12.3145C13.6568 12.3145 15 10.9713 15 9.31445C15 7.6576 13.6568 6.31445 12 6.31445C10.3432 6.31445 9 7.6576 9 9.31445" stroke="#1677FF" stroke-width="1.5" stroke-linecap="round" stroke-linejoin="round"/>
<path id="Vector_3" fill-rule="evenodd" clip-rule="evenodd" d="M12 18.8145C12.6904 18.8145 13.25 18.2548 13.25 17.5645C13.25 16.8741 12.6904 16.3145 12 16.3145C11.3097 16.3145 10.75 16.8741 10.75 17.5645C10.75 18.2548 11.3097 18.8145 12 18.8145Z" fill="#1677FF"/>
</g>
</svg>
