<svg width="131" height="42" viewBox="0 0 131 42" fill="none" xmlns="http://www.w3.org/2000/svg">
<path d="M118.84 1H121.877L121.191 6.6521H124.782C128.427 6.6521 130.25 8.32484 130.25 11.6703C130.25 12.0753 130.223 12.5155 130.17 12.9909L129.14 21.3634H126.103L127.133 12.9117C127.168 12.5595 127.186 12.313 127.186 12.1721C127.186 10.3761 126.27 9.47815 124.439 9.47815H120.847L119.395 21.3634H116.357L118.84 1Z" fill="white"/>
<path d="M107.361 21.4688C105.741 21.4336 104.341 21.3632 103.162 21.2575L103.558 18.4051C105.283 18.5635 106.666 18.6604 107.704 18.6956H108.602C109.729 18.6956 110.513 18.5547 110.953 18.273C111.411 17.9913 111.693 17.5863 111.798 17.0581C111.816 16.97 111.825 16.8468 111.825 16.6883C111.825 16.2481 111.754 15.9576 111.613 15.8167C111.49 15.623 111.288 15.491 111.006 15.4205C110.724 15.3501 110.187 15.2709 109.395 15.1828L108.787 15.1036C107.872 15.0332 107 14.8747 106.173 14.6282C105.521 14.3817 105.037 14.0295 104.72 13.5717C104.403 13.0963 104.244 12.4712 104.244 11.6965C104.244 11.538 104.262 11.2651 104.297 10.8777C104.421 9.80365 104.729 8.96728 105.222 8.36861C105.715 7.75234 106.401 7.31215 107.282 7.04803C108.162 6.78391 109.298 6.65186 110.689 6.65186H111.772L115.496 6.67827L115.153 9.47791H110.346C109.571 9.47791 108.981 9.52192 108.576 9.60996C108.171 9.68039 107.872 9.81245 107.678 10.0061C107.502 10.1822 107.387 10.4463 107.335 10.7985C107.317 10.8865 107.308 11.001 107.308 11.1418C107.308 11.4236 107.387 11.6613 107.546 11.855C107.722 12.0663 107.977 12.2159 108.312 12.304C108.664 12.3744 109.307 12.4624 110.24 12.5681C111.349 12.6737 112.256 12.841 112.96 13.0699C113.577 13.2812 114.043 13.6421 114.36 14.1528C114.695 14.6634 114.862 15.3237 114.862 16.1336C114.862 16.521 114.844 16.8204 114.809 17.0316C114.598 18.6692 113.982 19.8137 112.96 20.4652C111.939 21.1343 110.372 21.4688 108.259 21.4688H107.361Z" fill="white"/>
<path d="M93.4473 21.3632C92.1267 21.3632 91.0702 20.9934 90.2779 20.2539C89.4855 19.4967 89.0894 18.5195 89.0894 17.3222C89.0894 17.0581 89.0982 16.8556 89.1158 16.7147C89.2742 15.623 89.556 14.7602 89.9609 14.1264C90.3659 13.4749 90.947 13.0083 91.7041 12.7265C92.4789 12.4272 93.4913 12.2775 94.7415 12.2775H99.1786L99.205 12.0663C99.2226 11.9782 99.2314 11.855 99.2314 11.6965C99.2314 11.0098 99.0025 10.4551 98.5447 10.0326C98.0869 9.60996 97.3738 9.39867 96.4054 9.39867H95.7187C94.1516 9.39867 92.743 9.44269 91.4928 9.53073L91.889 6.83674L92.6549 6.78391C92.9367 6.76631 93.4297 6.73989 94.134 6.70468C94.8559 6.66946 95.481 6.65186 96.0092 6.65186H96.7223C98.5359 6.65186 99.9093 7.08325 100.843 7.94603C101.776 8.80881 102.242 9.96212 102.242 11.406C102.242 11.5644 102.225 11.8373 102.19 12.2247L101.107 21.3632H93.4473ZM92.1267 17.0316C92.1267 17.5423 92.2676 17.9384 92.5493 18.2202C92.8486 18.4843 93.2712 18.6163 93.817 18.6163H98.4127L98.8617 14.9187L94.4773 14.8923C93.8082 14.8747 93.2712 15.0068 92.8662 15.2885C92.4789 15.5526 92.2411 16.028 92.1531 16.7147L92.1267 17.0316Z" fill="white"/>
<path d="M84.052 9.47791C82.9603 9.47791 82.124 9.76843 81.5429 10.3495C80.9795 10.9305 80.6273 11.7933 80.4865 12.9378L80.2223 15.2092C80.1871 15.5614 80.1695 15.8167 80.1695 15.9752C80.1695 17.7536 81.0763 18.6428 82.8899 18.6428H83.92C84.7123 18.6428 86.0417 18.5635 87.9081 18.4051L87.6176 21.2311C86.0681 21.3896 84.7387 21.4688 83.6294 21.4688H82.5466C78.9018 21.4688 77.0793 19.8137 77.0793 16.5034C77.0793 16.0632 77.1058 15.6054 77.1586 15.13L77.4227 13.0171C77.6868 10.9041 78.3911 9.31944 79.5356 8.26297C80.6801 7.18889 82.3001 6.65186 84.3954 6.65186H85.3726L89.0702 6.70468L88.7269 9.50432L84.052 9.47791Z" fill="white"/>
<path d="M70.7609 1.52808C72.5921 1.54568 74.0007 1.98588 74.9867 2.84866C75.9904 3.69383 76.4922 4.91758 76.4922 6.51988C76.4922 6.96008 76.4746 7.30343 76.4394 7.54994L76.2809 8.89694C76.0344 10.8338 75.2949 12.3217 74.0623 13.3605C72.8298 14.3818 71.1834 14.9012 69.1233 14.9188H63.7353L62.943 21.3633H59.8264L62.2563 1.52808H70.7609ZM69.5459 12.0135C70.6376 11.9959 71.474 11.7582 72.055 11.3004C72.6361 10.825 72.997 10.0767 73.1379 9.05541L73.3492 7.44429C73.3668 7.32104 73.3756 7.15377 73.3756 6.94247C73.3756 6.07969 73.1379 5.45461 72.6625 5.06724C72.2047 4.66226 71.4828 4.45097 70.4967 4.43336H65.0295L64.0787 12.0135H69.5459Z" fill="white"/>
<path d="M54.4062 1.52808C55.1457 1.52808 56.2022 1.54568 57.5756 1.5809L59.2131 1.60731L58.817 4.53901L57.2851 4.48618C55.5243 4.45097 54.4238 4.43336 53.9836 4.43336H52.8215C51.2192 4.43336 50.0219 4.83834 49.2295 5.6483C48.4548 6.45826 47.9441 7.77004 47.6976 9.58364L47.2222 13.4133C47.1518 14.1176 47.1166 14.6107 47.1166 14.8924C47.1166 16.1778 47.4159 17.111 48.0146 17.692C48.6308 18.2731 49.6345 18.5636 51.0255 18.5636H52.2933C53.2265 18.5636 54.7408 18.502 56.8361 18.3787L57.4964 18.3523L57.2851 21.2576C55.5595 21.3985 53.8075 21.4689 52.0292 21.4689H50.7614C48.4372 21.4513 46.7292 20.9495 45.6375 19.9634C44.5458 18.9774 44 17.4279 44 15.315C44 14.7691 44.044 14.0824 44.1321 13.2549L44.5282 9.74211C44.898 6.87204 45.7696 4.79432 47.143 3.50895C48.534 2.20598 50.5677 1.54568 53.2441 1.52808H54.4062Z" fill="white"/>
<path d="M45.0723 38.4692V29.8794H46.127V32.9614C46.6191 32.3911 47.2402 32.106 47.9902 32.106C48.4512 32.106 48.8516 32.1978 49.1914 32.3813C49.5312 32.561 49.7734 32.811 49.918 33.1313C50.0664 33.4517 50.1406 33.9165 50.1406 34.5259V38.4692H49.0859V34.5259C49.0859 33.9985 48.9707 33.6157 48.7402 33.3774C48.5137 33.1353 48.1914 33.0142 47.7734 33.0142C47.4609 33.0142 47.166 33.0962 46.8887 33.2603C46.6152 33.4204 46.4199 33.6392 46.3027 33.9165C46.1855 34.1938 46.127 34.5767 46.127 35.0649V38.4692H45.0723ZM54.0547 37.5259L54.207 38.4575C53.9102 38.52 53.6445 38.5513 53.4102 38.5513C53.0273 38.5513 52.7305 38.4907 52.5195 38.3696C52.3086 38.2485 52.1602 38.0903 52.0742 37.895C51.9883 37.6958 51.9453 37.2798 51.9453 36.647V33.0669H51.1719V32.2466H51.9453V30.7056L52.9941 30.0728V32.2466H54.0547V33.0669H52.9941V36.7056C52.9941 37.0063 53.0117 37.1997 53.0469 37.2856C53.0859 37.3716 53.1465 37.4399 53.2285 37.4907C53.3145 37.5415 53.4355 37.5669 53.5918 37.5669C53.709 37.5669 53.8633 37.5532 54.0547 37.5259ZM57.3945 37.5259L57.5469 38.4575C57.25 38.52 56.9844 38.5513 56.75 38.5513C56.3672 38.5513 56.0703 38.4907 55.8594 38.3696C55.6484 38.2485 55.5 38.0903 55.4141 37.895C55.3281 37.6958 55.2852 37.2798 55.2852 36.647V33.0669H54.5117V32.2466H55.2852V30.7056L56.334 30.0728V32.2466H57.3945V33.0669H56.334V36.7056C56.334 37.0063 56.3516 37.1997 56.3867 37.2856C56.4258 37.3716 56.4863 37.4399 56.5684 37.4907C56.6543 37.5415 56.7754 37.5669 56.9316 37.5669C57.0488 37.5669 57.2031 37.5532 57.3945 37.5259ZM58.4316 40.854V32.2466H59.3926V33.0552C59.6191 32.7388 59.875 32.5024 60.1602 32.3462C60.4453 32.186 60.791 32.106 61.1973 32.106C61.7285 32.106 62.1973 32.2427 62.6035 32.5161C63.0098 32.7896 63.3164 33.1763 63.5234 33.6763C63.7305 34.1724 63.834 34.7173 63.834 35.311C63.834 35.9478 63.7188 36.522 63.4883 37.0337C63.2617 37.5415 62.9297 37.9321 62.4922 38.2056C62.0586 38.4751 61.6016 38.6099 61.1211 38.6099C60.7695 38.6099 60.4531 38.5356 60.1719 38.3872C59.8945 38.2388 59.666 38.0513 59.4863 37.8247V40.854H58.4316ZM59.3867 35.3931C59.3867 36.1938 59.5488 36.7856 59.873 37.1685C60.1973 37.5513 60.5898 37.7427 61.0508 37.7427C61.5195 37.7427 61.9199 37.5454 62.252 37.1509C62.5879 36.7524 62.7559 36.1372 62.7559 35.3052C62.7559 34.5122 62.5918 33.9185 62.2637 33.5239C61.9395 33.1294 61.5508 32.9321 61.0977 32.9321C60.6484 32.9321 60.25 33.1431 59.9023 33.5649C59.5586 33.9829 59.3867 34.5923 59.3867 35.3931ZM64.6895 36.6118L65.7324 36.4478C65.791 36.8657 65.9531 37.186 66.2188 37.4087C66.4883 37.6313 66.8633 37.7427 67.3438 37.7427C67.8281 37.7427 68.1875 37.645 68.4219 37.4497C68.6562 37.2505 68.7734 37.0181 68.7734 36.7524C68.7734 36.5142 68.6699 36.3267 68.4629 36.1899C68.3184 36.0962 67.959 35.9771 67.3848 35.8325C66.6113 35.6372 66.0742 35.4692 65.7734 35.3286C65.4766 35.1841 65.25 34.9868 65.0938 34.7368C64.9414 34.4829 64.8652 34.2036 64.8652 33.8989C64.8652 33.6216 64.9277 33.3657 65.0527 33.1313C65.1816 32.8931 65.3555 32.6958 65.5742 32.5396C65.7383 32.4185 65.9609 32.3169 66.2422 32.2349C66.5273 32.1489 66.832 32.106 67.1562 32.106C67.6445 32.106 68.0723 32.1763 68.4395 32.3169C68.8105 32.4575 69.084 32.6489 69.2598 32.8911C69.4355 33.1294 69.5566 33.4497 69.623 33.8521L68.5918 33.9927C68.5449 33.6724 68.4082 33.4224 68.1816 33.2427C67.959 33.063 67.6426 32.9731 67.2324 32.9731C66.748 32.9731 66.4023 33.0532 66.1953 33.2134C65.9883 33.3735 65.8848 33.561 65.8848 33.7759C65.8848 33.9126 65.9277 34.0356 66.0137 34.145C66.0996 34.2583 66.2344 34.3521 66.418 34.4263C66.5234 34.4653 66.834 34.5552 67.3496 34.6958C68.0957 34.895 68.6152 35.0591 68.9082 35.188C69.2051 35.313 69.4375 35.4966 69.6055 35.7388C69.7734 35.981 69.8574 36.2817 69.8574 36.6411C69.8574 36.9927 69.7539 37.3247 69.5469 37.6372C69.3438 37.9458 69.0488 38.186 68.6621 38.3579C68.2754 38.5259 67.8379 38.6099 67.3496 38.6099C66.541 38.6099 65.9238 38.4419 65.498 38.106C65.0762 37.77 64.8066 37.272 64.6895 36.6118ZM71.4043 33.4478V32.2466H72.6055V33.4478H71.4043ZM71.4043 38.4692V37.2681H72.6055V38.4692H71.4043ZM73.6602 38.6157L76.1504 29.7329H76.9941L74.5098 38.6157H73.6602ZM77 38.6157L79.4902 29.7329H80.334L77.8496 38.6157H77ZM85.1914 36.1899L86.2285 36.3247C86.1152 37.0396 85.8242 37.6001 85.3555 38.0063C84.8906 38.4087 84.3184 38.6099 83.6387 38.6099C82.7871 38.6099 82.1016 38.3325 81.582 37.7778C81.0664 37.2192 80.8086 36.4204 80.8086 35.3813C80.8086 34.7095 80.9199 34.1216 81.1426 33.6177C81.3652 33.1138 81.7031 32.7368 82.1562 32.4868C82.6133 32.2329 83.1094 32.106 83.6445 32.106C84.3203 32.106 84.873 32.2778 85.3027 32.6216C85.7324 32.9614 86.0078 33.4458 86.1289 34.0747L85.1035 34.2329C85.0059 33.8149 84.832 33.5005 84.582 33.2896C84.3359 33.0786 84.0371 32.9731 83.6855 32.9731C83.1543 32.9731 82.7227 33.1646 82.3906 33.5474C82.0586 33.9263 81.8926 34.5278 81.8926 35.3521C81.8926 36.188 82.0527 36.7954 82.373 37.1743C82.6934 37.5532 83.1113 37.7427 83.627 37.7427C84.041 37.7427 84.3867 37.6157 84.6641 37.3618C84.9414 37.1079 85.1172 36.7173 85.1914 36.1899ZM87.1309 40.854V32.2466H88.0918V33.0552C88.3184 32.7388 88.5742 32.5024 88.8594 32.3462C89.1445 32.186 89.4902 32.106 89.8965 32.106C90.4277 32.106 90.8965 32.2427 91.3027 32.5161C91.709 32.7896 92.0156 33.1763 92.2227 33.6763C92.4297 34.1724 92.5332 34.7173 92.5332 35.311C92.5332 35.9478 92.418 36.522 92.1875 37.0337C91.9609 37.5415 91.6289 37.9321 91.1914 38.2056C90.7578 38.4751 90.3008 38.6099 89.8203 38.6099C89.4688 38.6099 89.1523 38.5356 88.8711 38.3872C88.5938 38.2388 88.3652 38.0513 88.1855 37.8247V40.854H87.1309ZM88.0859 35.3931C88.0859 36.1938 88.248 36.7856 88.5723 37.1685C88.8965 37.5513 89.2891 37.7427 89.75 37.7427C90.2188 37.7427 90.6191 37.5454 90.9512 37.1509C91.2871 36.7524 91.4551 36.1372 91.4551 35.3052C91.4551 34.5122 91.291 33.9185 90.9629 33.5239C90.6387 33.1294 90.25 32.9321 89.7969 32.9321C89.3477 32.9321 88.9492 33.1431 88.6016 33.5649C88.2578 33.9829 88.0859 34.5923 88.0859 35.3931ZM94.1094 38.4692V37.2681H95.3105V38.4692H94.1094ZM101.211 36.1899L102.248 36.3247C102.135 37.0396 101.844 37.6001 101.375 38.0063C100.91 38.4087 100.338 38.6099 99.6582 38.6099C98.8066 38.6099 98.1211 38.3325 97.6016 37.7778C97.0859 37.2192 96.8281 36.4204 96.8281 35.3813C96.8281 34.7095 96.9395 34.1216 97.1621 33.6177C97.3848 33.1138 97.7227 32.7368 98.1758 32.4868C98.6328 32.2329 99.1289 32.106 99.6641 32.106C100.34 32.106 100.893 32.2778 101.322 32.6216C101.752 32.9614 102.027 33.4458 102.148 34.0747L101.123 34.2329C101.025 33.8149 100.852 33.5005 100.602 33.2896C100.355 33.0786 100.057 32.9731 99.7051 32.9731C99.1738 32.9731 98.7422 33.1646 98.4102 33.5474C98.0781 33.9263 97.9121 34.5278 97.9121 35.3521C97.9121 36.188 98.0723 36.7954 98.3926 37.1743C98.7129 37.5532 99.1309 37.7427 99.6465 37.7427C100.061 37.7427 100.406 37.6157 100.684 37.3618C100.961 37.1079 101.137 36.7173 101.211 36.1899ZM107.211 37.7017C106.82 38.0337 106.443 38.2681 106.08 38.4048C105.721 38.5415 105.334 38.6099 104.92 38.6099C104.236 38.6099 103.711 38.4438 103.344 38.1118C102.977 37.7759 102.793 37.3481 102.793 36.8286C102.793 36.5239 102.861 36.2466 102.998 35.9966C103.139 35.7427 103.32 35.5396 103.543 35.3872C103.77 35.2349 104.023 35.1196 104.305 35.0415C104.512 34.9868 104.824 34.9341 105.242 34.8833C106.094 34.7817 106.721 34.6606 107.123 34.52C107.127 34.3755 107.129 34.2837 107.129 34.2446C107.129 33.8149 107.029 33.5122 106.83 33.3364C106.561 33.0981 106.16 32.979 105.629 32.979C105.133 32.979 104.766 33.0669 104.527 33.2427C104.293 33.4146 104.119 33.7212 104.006 34.1626L102.975 34.022C103.068 33.5806 103.223 33.2251 103.438 32.9556C103.652 32.6821 103.963 32.4731 104.369 32.3286C104.775 32.1802 105.246 32.106 105.781 32.106C106.312 32.106 106.744 32.1685 107.076 32.2935C107.408 32.4185 107.652 32.5767 107.809 32.7681C107.965 32.9556 108.074 33.1938 108.137 33.4829C108.172 33.6626 108.189 33.9868 108.189 34.4556V35.8618C108.189 36.8423 108.211 37.4634 108.254 37.7251C108.301 37.9829 108.391 38.231 108.523 38.4692H107.422C107.312 38.2505 107.242 37.9946 107.211 37.7017ZM107.123 35.3462C106.74 35.5024 106.166 35.6353 105.4 35.7446C104.967 35.8071 104.66 35.8774 104.48 35.9556C104.301 36.0337 104.162 36.1489 104.064 36.3013C103.967 36.4497 103.918 36.6157 103.918 36.7993C103.918 37.0806 104.023 37.3149 104.234 37.5024C104.449 37.6899 104.762 37.7837 105.172 37.7837C105.578 37.7837 105.939 37.6958 106.256 37.52C106.572 37.3403 106.805 37.0962 106.953 36.7876C107.066 36.5493 107.123 36.1978 107.123 35.7329V35.3462ZM109.408 36.6118L110.451 36.4478C110.51 36.8657 110.672 37.186 110.938 37.4087C111.207 37.6313 111.582 37.7427 112.062 37.7427C112.547 37.7427 112.906 37.645 113.141 37.4497C113.375 37.2505 113.492 37.0181 113.492 36.7524C113.492 36.5142 113.389 36.3267 113.182 36.1899C113.037 36.0962 112.678 35.9771 112.104 35.8325C111.33 35.6372 110.793 35.4692 110.492 35.3286C110.195 35.1841 109.969 34.9868 109.812 34.7368C109.66 34.4829 109.584 34.2036 109.584 33.8989C109.584 33.6216 109.646 33.3657 109.771 33.1313C109.9 32.8931 110.074 32.6958 110.293 32.5396C110.457 32.4185 110.68 32.3169 110.961 32.2349C111.246 32.1489 111.551 32.106 111.875 32.106C112.363 32.106 112.791 32.1763 113.158 32.3169C113.529 32.4575 113.803 32.6489 113.979 32.8911C114.154 33.1294 114.275 33.4497 114.342 33.8521L113.311 33.9927C113.264 33.6724 113.127 33.4224 112.9 33.2427C112.678 33.063 112.361 32.9731 111.951 32.9731C111.467 32.9731 111.121 33.0532 110.914 33.2134C110.707 33.3735 110.604 33.561 110.604 33.7759C110.604 33.9126 110.646 34.0356 110.732 34.145C110.818 34.2583 110.953 34.3521 111.137 34.4263C111.242 34.4653 111.553 34.5552 112.068 34.6958C112.814 34.895 113.334 35.0591 113.627 35.188C113.924 35.313 114.156 35.4966 114.324 35.7388C114.492 35.981 114.576 36.2817 114.576 36.6411C114.576 36.9927 114.473 37.3247 114.266 37.6372C114.062 37.9458 113.768 38.186 113.381 38.3579C112.994 38.5259 112.557 38.6099 112.068 38.6099C111.26 38.6099 110.643 38.4419 110.217 38.106C109.795 37.77 109.525 37.272 109.408 36.6118ZM115.83 38.4692V29.8794H116.885V32.9614C117.377 32.3911 117.998 32.106 118.748 32.106C119.209 32.106 119.609 32.1978 119.949 32.3813C120.289 32.561 120.531 32.811 120.676 33.1313C120.824 33.4517 120.898 33.9165 120.898 34.5259V38.4692H119.844V34.5259C119.844 33.9985 119.729 33.6157 119.498 33.3774C119.271 33.1353 118.949 33.0142 118.531 33.0142C118.219 33.0142 117.924 33.0962 117.646 33.2603C117.373 33.4204 117.178 33.6392 117.061 33.9165C116.943 34.1938 116.885 34.5767 116.885 35.0649V38.4692H115.83Z" fill="white" fill-opacity="0.7"/>
<path d="M34.6875 25.2696C32.3108 30.4225 27.0943 34 21.0415 34C20.2568 34 19.4857 33.9401 18.733 33.8227C18.3431 33.7628 17.9584 33.6881 17.5791 33.598C17.5304 33.5868 17.4818 33.5749 17.4331 33.563C15.3187 33.0425 13.3807 32.0743 11.7257 30.7652C10.7433 29.9879 9.86009 29.0908 9.0997 28.0953L0 18.8456L9.77995 9.07698L11.1066 7.75185C12.8898 6.17949 15.0492 5.02334 17.4331 4.43637C17.4818 4.42451 17.5304 4.41266 17.5791 4.40139C17.9584 4.31186 18.3431 4.23657 18.733 4.17728C19.4857 4.05988 20.2568 4 21.0415 4C27.0332 4 32.2057 7.50521 34.6145 12.5745L28.4435 18.7376L21.0415 11.3448L18.733 13.6506L17.5791 14.8032L13.4923 18.8853L17.5791 22.9686L21.0415 26.4263L28.4435 19.0329L34.6875 25.2696Z" fill="white"/>
</svg>
